<?xml version="1.0" encoding="utf-8"?>
<!-- Generator: Adobe Illustrator 24.1.1, SVG Export Plug-In . SVG Version: 6.00 Build 0)  -->
<svg version="1.1" id="Layer_1" xmlns="http://www.w3.org/2000/svg" xmlns:xlink="http://www.w3.org/1999/xlink" x="0px" y="0px"
	 viewBox="0 0 60 60" style="enable-background:new 0 0 60 60;" xml:space="preserve">
<style type="text/css">
	.st0{opacity:0.2;}
	.st1{opacity:0.25;}
	.st2{fill:#FFFFFF;}
	.st3{fill:none;stroke:#000000;stroke-width:0.5;stroke-linecap:round;stroke-linejoin:round;stroke-miterlimit:10;}
	.st4{stroke:#000000;stroke-width:0.25;stroke-miterlimit:10;}
	.st5{fill:#4D4D4D;}
	.st6{fill:none;stroke:#000000;stroke-width:1.25;stroke-linecap:round;stroke-miterlimit:10;}
</style>
<g>
	<path d="M59.25,50.31c-0.01-0.02-0.01-0.03-0.02-0.05l-2-3.46c-0.19-0.32-0.6-0.43-0.91-0.24c-0.32,0.19-0.43,0.59-0.24,0.91
		l0.75,1.3l-8.83-5.1c0.01-0.09,0.03-0.17,0.03-0.27c0-0.77-0.48-1.42-1.16-1.69V27.25c0.68-0.27,1.16-0.92,1.16-1.69
		c0-1.01-0.82-1.82-1.82-1.82c-0.43,0-0.81,0.15-1.13,0.4l-13.28-7.67c0.01-0.09,0.03-0.18,0.03-0.27c0-0.77-0.48-1.42-1.15-1.69
		V8.59l0.75,1.3c0.12,0.21,0.35,0.33,0.58,0.33c0.11,0,0.23-0.03,0.33-0.09c0.32-0.18,0.43-0.59,0.25-0.91l-1.99-3.46
		c-0.01-0.01-0.03-0.02-0.03-0.03C30.43,5.55,30.23,5.43,30,5.43c-0.23,0-0.42,0.12-0.54,0.3c-0.01,0.01-0.03,0.02-0.03,0.03
		l-1.99,3.46c-0.18,0.32-0.07,0.73,0.25,0.91c0.32,0.18,0.73,0.07,0.91-0.25l0.75-1.3v5.93c-0.68,0.27-1.16,0.92-1.16,1.69
		c0,0.09,0.01,0.18,0.03,0.27l-13.28,7.67c-0.31-0.25-0.7-0.4-1.13-0.4c-1.01,0-1.82,0.82-1.82,1.82c0,0.77,0.48,1.42,1.16,1.69
		v14.45c-0.68,0.27-1.16,0.92-1.16,1.69c0,0.09,0.01,0.18,0.03,0.27l-8.84,5.1l0.75-1.3c0.19-0.32,0.08-0.73-0.24-0.91
		c-0.32-0.19-0.73-0.08-0.91,0.24l-2,3.46c-0.01,0.02-0.01,0.04-0.01,0.05c-0.03,0.07-0.05,0.15-0.06,0.23
		c-0.01,0.03-0.01,0.05-0.01,0.08c0,0.1,0.03,0.21,0.08,0.3c0.06,0.1,0.15,0.19,0.25,0.25c0.09,0.05,0.19,0.07,0.3,0.08
		c0.01,0,0.02,0.01,0.03,0.01c0,0,0,0,0,0l3.99-0.01c0.37,0,0.67-0.3,0.67-0.67c0-0.37-0.3-0.67-0.67-0.67c0,0,0,0,0,0l-1.5,0
		l8.83-5.1c0.31,0.25,0.7,0.4,1.13,0.4s0.82-0.15,1.13-0.4l13.28,7.67c-0.01,0.09-0.03,0.17-0.03,0.27c0,1.01,0.82,1.82,1.82,1.82
		c1,0,1.82-0.82,1.82-1.82c0-0.09-0.01-0.18-0.03-0.27l13.28-7.67c0.31,0.25,0.7,0.4,1.13,0.4c0.43,0,0.81-0.15,1.13-0.4l8.84,5.1
		l-1.5,0c0,0,0,0,0,0c-0.37,0-0.67,0.3-0.67,0.67c0,0.37,0.3,0.67,0.67,0.67l3.99,0.01c0,0,0,0,0,0c0.01,0,0.02-0.01,0.03-0.01
		c0.1-0.01,0.21-0.03,0.3-0.08c0.1-0.06,0.19-0.14,0.25-0.25c0.06-0.1,0.08-0.2,0.08-0.3c0-0.03,0-0.06-0.01-0.08
		C59.3,50.46,59.28,50.39,59.25,50.31z M44.38,43.4c0,0.09,0.02,0.18,0.03,0.27l-13.28,7.67c-0.14-0.11-0.29-0.21-0.46-0.27V36.61
		c0.68-0.27,1.16-0.92,1.16-1.69c0-0.09-0.01-0.18-0.03-0.27l13.28-7.67c0.14,0.11,0.29,0.2,0.46,0.27v14.45
		C44.86,41.97,44.38,42.63,44.38,43.4z M28.87,51.33L15.6,43.67c0.01-0.09,0.03-0.17,0.03-0.27c0-0.77-0.48-1.42-1.16-1.69V27.25
		c0.17-0.07,0.32-0.16,0.46-0.27l13.28,7.67c-0.01,0.09-0.03,0.18-0.03,0.27c0,0.77,0.48,1.42,1.16,1.69v14.45
		C29.17,51.13,29.01,51.22,28.87,51.33z M30.49,16.21c0,0.27-0.22,0.49-0.49,0.49c-0.27,0-0.49-0.22-0.49-0.49
		c0-0.27,0.22-0.49,0.49-0.49C30.27,15.72,30.49,15.94,30.49,16.21z M30,18.03c0.43,0,0.81-0.15,1.13-0.4L44.4,25.3
		c-0.01,0.09-0.03,0.18-0.03,0.27c0,0.09,0.02,0.18,0.03,0.27l-13.28,7.67c-0.31-0.25-0.7-0.4-1.13-0.4c-0.43,0-0.82,0.15-1.13,0.4
		L15.6,25.83c0.01-0.09,0.03-0.18,0.03-0.27c0-0.09-0.01-0.18-0.03-0.27l13.28-7.67C29.18,17.88,29.57,18.03,30,18.03z M30.49,34.92
		c0,0.27-0.22,0.49-0.49,0.49c-0.27,0-0.49-0.22-0.49-0.49c0-0.27,0.22-0.49,0.49-0.49C30.27,34.42,30.49,34.64,30.49,34.92z
		 M46.69,25.56c0,0.27-0.22,0.49-0.49,0.49c-0.27,0-0.49-0.22-0.49-0.49s0.22-0.49,0.49-0.49C46.47,25.07,46.69,25.29,46.69,25.56z
		 M13.8,25.07c0.27,0,0.49,0.22,0.49,0.49s-0.22,0.49-0.49,0.49s-0.49-0.22-0.49-0.49S13.53,25.07,13.8,25.07z M13.31,43.4
		c0-0.27,0.22-0.49,0.49-0.49s0.49,0.22,0.49,0.49c0,0.27-0.22,0.49-0.49,0.49C13.53,43.89,13.31,43.67,13.31,43.4z M30,53.24
		c-0.27,0-0.49-0.22-0.49-0.49c0-0.27,0.22-0.49,0.49-0.49c0.27,0,0.49,0.22,0.49,0.49C30.49,53.02,30.27,53.24,30,53.24z
		 M45.71,43.4c0-0.27,0.22-0.49,0.49-0.49c0.27,0,0.49,0.22,0.49,0.49c0,0.27-0.22,0.49-0.49,0.49
		C45.93,43.89,45.71,43.67,45.71,43.4z"/>
</g>
</svg>
