<?xml version="1.0" encoding="utf-8"?>
<!-- Generator: Adobe Illustrator 24.1.1, SVG Export Plug-In . SVG Version: 6.00 Build 0)  -->
<svg version="1.1" id="Layer_1" xmlns="http://www.w3.org/2000/svg" xmlns:xlink="http://www.w3.org/1999/xlink" x="0px" y="0px"
	 viewBox="0 0 60 60" style="enable-background:new 0 0 60 60;" xml:space="preserve">
<style type="text/css">
	.st0{opacity:0.2;}
	.st1{opacity:0.25;}
	.st2{fill:#FFFFFF;}
	.st3{fill:none;stroke:#000000;stroke-width:0.5;stroke-linecap:round;stroke-linejoin:round;stroke-miterlimit:10;}
	.st4{stroke:#000000;stroke-width:0.25;stroke-miterlimit:10;}
	.st5{fill:#4D4D4D;}
	.st6{fill:none;stroke:#000000;stroke-width:1.25;stroke-linecap:round;stroke-miterlimit:10;}
</style>
<g>
	<path d="M59.78,38.54l-4.43-13.28h-1.63V13.37c0-1.81-1-3.43-2.62-4.24l-1.17-0.59V6.28c1.05,0,1.9-0.85,1.9-1.9v-1.9
		c0-1.05-0.85-1.9-1.9-1.9h-9.49c-1.05,0-1.9,0.85-1.9,1.9v1.9c0,1.05,0.85,1.9,1.9,1.9v2.26l-1.17,0.59
		c-0.68,0.34-1.24,0.83-1.67,1.41c-0.43-0.58-1-1.07-1.67-1.41l-1.17-0.59V6.28c1.05,0,1.9-0.85,1.9-1.9v-1.9
		c0-1.05-0.85-1.9-1.9-1.9h-9.49c-1.05,0-1.9,0.85-1.9,1.9v1.9c0,1.05,0.85,1.9,1.9,1.9v2.26l-1.17,0.59
		c-0.68,0.34-1.24,0.83-1.67,1.41c-0.43-0.58-1-1.07-1.67-1.41l-1.17-0.59V6.28c1.05,0,1.9-0.85,1.9-1.9v-1.9
		c0-1.05-0.85-1.9-1.9-1.9h-9.49c-1.05,0-1.9,0.85-1.9,1.9v1.9c0,1.05,0.85,1.9,1.9,1.9v2.26L8.9,9.13
		c-1.62,0.81-2.62,2.43-2.62,4.24v11.89H4.65L0.22,38.54h4.16v20.87h51.23V38.54H59.78z M57.15,36.64h-28.3l-2.37-9.49h27.51
		L57.15,36.64z M23.36,25.26v-7.59h13.28v7.59H23.36z M38.54,25.26v-9.49h13.28v9.49H38.54z M40.44,2.49h9.49l0,1.9h-9.49V2.49z
		 M40.11,10.82l2.22-1.11V6.28h5.69v3.43l2.22,1.11c0.97,0.48,1.57,1.46,1.57,2.55v0.5H38.54v-0.5
		C38.54,12.28,39.14,11.31,40.11,10.82z M25.26,2.49h9.49l0,1.9h-9.49V2.49z M24.93,10.82l2.22-1.11V6.28h5.69v3.43l2.22,1.11
		c0.97,0.48,1.57,1.46,1.57,2.55v2.4H23.36v-2.4C23.36,12.28,23.96,11.31,24.93,10.82z M10.08,2.49h9.49l0,1.9h-9.49V2.49z
		 M9.75,10.82l2.22-1.11V6.28h5.69v3.43l2.22,1.11c0.97,0.48,1.57,1.46,1.57,2.55v0.5H8.18v-0.5C8.18,12.28,8.78,11.31,9.75,10.82z
		 M8.18,15.77h13.28v9.49H8.18V15.77z M6.02,27.15h16.98l-3.16,9.49H2.85L6.02,27.15z M53.72,57.51H25.26V35.69h-1.9v21.82H6.28
		V38.54H21.2l2.16-6.49v1.74h1.9v-3.68l2.11,8.42h26.36V57.51z"/>
	<rect x="40.44" y="17.67" width="1.9" height="1.9"/>
	<rect x="44.23" y="17.67" width="5.69" height="1.9"/>
	<rect x="40.44" y="21.46" width="5.69" height="1.9"/>
	<rect x="48.03" y="21.46" width="1.9" height="1.9"/>
	<rect x="10.08" y="17.67" width="9.49" height="1.9"/>
	<rect x="10.08" y="21.46" width="9.49" height="1.9"/>
	<path d="M27.15,55.62h24.67V40.44H27.15V55.62z M29.05,42.33h20.87v11.39H29.05V42.33z"/>
	<rect x="30.95" y="44.23" width="1.9" height="7.59"/>
	<rect x="38.54" y="44.23" width="1.9" height="3.8"/>
	<rect x="42.33" y="44.23" width="1.9" height="3.8"/>
	<rect x="38.54" y="49.92" width="1.9" height="1.9"/>
	<rect x="34.74" y="44.23" width="1.9" height="3.8"/>
	<rect x="34.74" y="49.92" width="1.9" height="1.9"/>
	<rect x="46.13" y="44.23" width="1.9" height="7.59"/>
	<rect x="42.33" y="49.92" width="1.9" height="1.9"/>
</g>
</svg>
