<?xml version="1.0" encoding="utf-8"?>
<!-- Generator: Adobe Illustrator 24.1.1, SVG Export Plug-In . SVG Version: 6.00 Build 0)  -->
<svg version="1.1" id="Layer_1" xmlns="http://www.w3.org/2000/svg" xmlns:xlink="http://www.w3.org/1999/xlink" x="0px" y="0px"
	 viewBox="0 0 60 60" style="enable-background:new 0 0 60 60;" xml:space="preserve">
<style type="text/css">
	.st0{opacity:0.2;}
	.st1{opacity:0.25;}
	.st2{fill:#FFFFFF;}
	.st3{fill:none;stroke:#000000;stroke-width:0.5;stroke-linecap:round;stroke-linejoin:round;stroke-miterlimit:10;}
	.st4{stroke:#000000;stroke-width:0.25;stroke-miterlimit:10;}
	.st5{fill:#4D4D4D;}
	.st6{fill:none;stroke:#000000;stroke-width:1.25;stroke-linecap:round;stroke-miterlimit:10;}
</style>
<g>
	<path d="M23.54,32.81c-1.94-2.23-2.25-2.76-2.92-5c-0.86-0.09-1.71-0.38-2.14-1.23c-0.24-0.46-0.39-1.03-0.37-1.54
		c0.06-1.35,0.98-2.05,2.82-2.32c0.77-2.13,2.17-3.79,4.15-5.01c-0.72-0.84-1.45-1.57-2.45-2.02c-0.42,0.59-0.89,1.11-1.65,1.24
		c-1.08,0.18-2.13-0.43-2.48-1.45c-0.36-1.08,0.16-2.25,1.22-2.71c0.98-0.43,2.2-0.06,2.72,0.89c0.22,0.4,0.51,0.6,0.9,0.78
		c1.09,0.49,1.95,1.28,2.7,2.19c0.26,0.32,0.47,0.41,0.89,0.27c1.79-0.58,3.42-0.78,5.98,0.09c0.3-0.32,0.61-0.66,0.92-0.99
		c0.71-0.72,1.49-1.32,2.44-1.72c0.22-0.09,0.4-0.34,0.53-0.55c0.52-0.83,1.25-1.22,2.22-1.1c0.91,0.11,1.53,0.65,1.79,1.53
		c0.26,0.88,0.03,1.65-0.65,2.27c-0.9,0.82-2.36,0.69-3.13-0.26c-0.12-0.14-0.22-0.3-0.35-0.47c-0.97,0.44-1.71,1.11-2.38,1.97
		c2.06,1.25,3.5,2.95,4.29,5.22c0.99-0.2,1.89-0.07,2.61,0.67c0.47,0.48,0.71,1.08,0.7,1.76c-0.01,1.52-1.14,2.45-3.05,2.47
		c-0.45,2.03-1.5,3.74-3.05,5.1c0.44,0.56,0.89,1.06,1.24,1.61c0.45,0.71,0.57,1.48,0.09,2.24c-0.48,0.77-1.25,0.96-2.07,0.89
		c-1.56-0.14-2.82-0.88-3.75-2.12c-0.27-0.36-0.52-0.45-0.93-0.43c-0.71,0.04-1.42,0.01-2.05,0.01c-0.67,0.6-1.29,1.25-2,1.76
		c-0.85,0.61-1.84,0.87-2.91,0.73c-1.24-0.16-1.93-1.18-1.62-2.4c0.2-0.8,0.71-1.4,1.3-1.95C23.23,33.08,23.39,32.95,23.54,32.81z
		 M35.06,36.18c0.89,0,1.1-0.34,0.75-1c-0.36-0.67-0.94-1.11-1.59-1.46c-0.32-0.17-0.61-0.38-0.5-0.77
		c0.07-0.25,0.27-0.51,0.49-0.67c1.85-1.37,3.01-3.15,3.32-5.46c0.02-0.14,0.04-0.29,0.09-0.43c0.16-0.41,0.56-0.57,0.97-0.39
		c0.13,0.06,0.25,0.16,0.38,0.21c0.47,0.2,0.99,0.05,1.29-0.35c0.29-0.4,0.25-0.96-0.1-1.32c-0.33-0.35-0.88-0.41-1.32-0.14
		c-0.12,0.08-0.23,0.19-0.36,0.25c-0.4,0.2-0.8,0.07-0.98-0.35c-0.07-0.15-0.1-0.32-0.14-0.48c-1.25-5.02-7.92-8.49-13.08-3.68
		c-1.05,0.98-1.72,2.19-2.13,3.56c-0.19,0.64-0.48,0.83-1.04,0.65c-0.53-0.17-0.99-0.16-1.36,0.3c-0.27,0.33-0.29,0.82-0.06,1.17
		c0.33,0.49,0.79,0.53,1.33,0.43c0.54-0.1,0.84,0.1,0.93,0.65c0.35,2.24,1.47,4,3.28,5.36c0.2,0.15,0.36,0.46,0.39,0.72
		c0.04,0.35-0.27,0.53-0.56,0.67c-0.71,0.34-1.33,0.8-1.71,1.51c-0.37,0.68-0.14,1.04,0.62,1.02c0.1,0,0.21-0.01,0.31-0.03
		c1.23-0.32,2.22-0.93,2.75-2.15c0.21-0.5,0.45-0.62,0.99-0.51c0.99,0.2,1.98,0.24,2.99,0.09c0.77-0.12,0.84-0.04,1.21,0.65
		C32.84,35.41,33.89,36.02,35.06,36.18z M20.53,15.51c0.42,0.03,0.77-0.29,0.79-0.7c0.02-0.39-0.34-0.77-0.73-0.78
		c-0.37-0.01-0.72,0.31-0.76,0.68C19.81,15.13,20.11,15.48,20.53,15.51z M38.7,15.51c0.42,0.01,0.77-0.32,0.77-0.73
		c0-0.39-0.37-0.77-0.76-0.76c-0.38,0.01-0.7,0.32-0.72,0.71C37.97,15.17,38.27,15.5,38.7,15.51z"/>
	<path d="M29.65,19c2.51-0.01,4.54,2.02,4.53,4.53c-0.01,2.48-2.04,4.51-4.51,4.51c-2.5,0-4.54-2.04-4.54-4.54
		C25.13,21.03,27.17,19.01,29.65,19z M32.74,23.55c0.01-1.72-1.38-3.13-3.09-3.12c-1.66,0-3.04,1.37-3.07,3.02
		c-0.02,1.71,1.32,3.12,2.99,3.16C31.3,26.63,32.73,25.25,32.74,23.55z"/>
	<path d="M29.6,32.2c-1.26-0.06-2.49-0.41-3.52-1.29c-0.73-0.61-1.18-1.4-1.38-2.33c-0.12-0.52,0.09-0.89,0.51-0.98
		c0.4-0.09,0.72,0.13,0.87,0.61c0.57,1.75,2.19,2.78,4.02,2.53c0.33-0.04,0.66-0.11,0.98-0.21c1.16-0.35,1.96-1.06,2.29-2.26
		c0.15-0.55,0.46-0.77,0.88-0.66c0.45,0.11,0.64,0.48,0.5,1.05c-0.3,1.22-1,2.15-2.09,2.77C31.74,31.95,30.73,32.18,29.6,32.2z"/>
	<path d="M29.74,23.31c-0.4,0.01-0.72-0.29-0.73-0.68c-0.01-0.38,0.32-0.72,0.69-0.73c0.38-0.01,0.72,0.31,0.73,0.69
		C30.45,22.99,30.15,23.3,29.74,23.31z"/>
</g>
<path d="M32.6,43.13c0,1.44,0,2.76,0,4.13c0.26,0.01,0.49,0.03,0.72,0.04c0.96,0.01,1.93-0.04,2.88,0.03
	c1.58,0.11,2.65,1.32,2.59,2.82c-0.06,1.5-1.23,2.6-2.81,2.6c-3.7,0.01-7.4,0-11.11,0c-0.55,0-1.11,0.01-1.66,0
	c-1.54-0.03-2.7-1.12-2.76-2.58c-0.06-1.51,0.99-2.71,2.57-2.83c0.93-0.07,1.87-0.02,2.81-0.03c0.31,0,0.62,0,1,0
	c0-1.39,0-2.72,0-4.12c-0.3-0.02-0.6-0.05-0.9-0.05c-6.95,0-13.89-0.01-20.84,0c-1.65,0-2.9-0.63-3.61-2.13
	c-0.22-0.46-0.34-1.02-0.34-1.53c-0.02-9.54-0.02-19.09-0.01-28.63c0-1.96,1.55-3.51,3.51-3.59c0.34-0.01,0.67-0.01,1.01-0.01
	c16.39,0,32.79,0,49.18-0.01c1.19,0,2.23,0.3,3.05,1.2c0.63,0.68,0.96,1.49,0.96,2.42c0,0.84,0.01,1.68,0,2.52
	c-0.01,0.62-0.33,0.98-0.82,0.98c-0.48,0-0.8-0.37-0.81-0.99c-0.01-0.74,0-1.49-0.01-2.24C57.21,9.72,56.4,8.9,54.98,8.9
	c-3.87-0.01-7.74,0-11.61,0c-12.72,0-25.43,0-38.15,0C4.41,8.89,3.64,9,3.21,9.74c-0.25,0.43-0.41,0.98-0.41,1.48
	C2.76,14.61,2.77,18,2.77,21.39c0,5.87-0.01,11.73,0.01,17.6c0,0.47,0.06,0.98,0.25,1.4c0.37,0.79,1.08,1.11,1.95,1.11
	c3.46-0.01,6.92,0,10.38,0c6.22,0,12.45,0,18.67,0c6.99,0,13.99,0,20.98-0.01c1.42,0,2.21-0.84,2.21-2.34c0.01-5.6,0-11.2,0-16.8
	c0-0.22-0.01-0.43,0.01-0.65c0.05-0.46,0.39-0.78,0.8-0.78c0.4,0,0.75,0.32,0.81,0.77c0.02,0.12,0.01,0.24,0.01,0.36
	c0,5.79,0.01,11.59-0.01,17.38c0,1.63-0.89,2.95-2.35,3.46c-0.55,0.19-1.18,0.24-1.77,0.24c-7.02,0.02-14.04,0.01-21.06,0.01
	C33.35,43.13,33.02,43.13,32.6,43.13z M28.56,43.19c0,0.32,0,0.58,0,0.84c0,1.3,0.01,2.59,0,3.89c-0.01,0.76-0.28,1.05-1.04,1.06
	c-1.25,0.02-2.5,0.01-3.75,0.01c-0.19,0-0.38-0.01-0.58,0c-0.62,0.04-1.07,0.47-1.08,1.03c-0.01,0.52,0.4,0.99,0.97,1.07
	c0.19,0.03,0.38,0.02,0.58,0.02c3.99,0,7.97,0,11.96,0c0.26,0,0.53-0.01,0.78-0.09c0.5-0.15,0.81-0.63,0.74-1.09
	c-0.07-0.5-0.44-0.87-0.95-0.94c-0.17-0.02-0.34-0.01-0.5-0.01c-1.2,0-2.4,0.01-3.6,0c-0.92-0.01-1.19-0.29-1.2-1.22
	c-0.01-1.27,0-2.55,0-3.82c0-0.23,0-0.47,0-0.76C30.08,43.19,29.35,43.19,28.56,43.19z"/>
<path d="M58.85,17.65c-0.01,0.46-0.37,0.81-0.84,0.79c-0.44-0.01-0.77-0.34-0.78-0.78c-0.01-0.46,0.35-0.84,0.8-0.84
	C58.51,16.83,58.86,17.19,58.85,17.65z"/>
</svg>
