<?xml version="1.0" encoding="utf-8"?>
<!-- Generator: Adobe Illustrator 24.1.1, SVG Export Plug-In . SVG Version: 6.00 Build 0)  -->
<svg version="1.1" id="Layer_1" xmlns="http://www.w3.org/2000/svg" xmlns:xlink="http://www.w3.org/1999/xlink" x="0px" y="0px"
	 viewBox="0 0 60 60" style="enable-background:new 0 0 60 60;" xml:space="preserve">
<style type="text/css">
	.st0{opacity:0.2;}
	.st1{opacity:0.25;}
	.st2{fill:#FFFFFF;}
	.st3{fill:none;stroke:#000000;stroke-width:0.5;stroke-linecap:round;stroke-linejoin:round;stroke-miterlimit:10;}
	.st4{stroke:#000000;stroke-width:0.25;stroke-miterlimit:10;}
	.st5{fill:#4D4D4D;}
	.st6{fill:none;stroke:#000000;stroke-width:1.25;stroke-linecap:round;stroke-miterlimit:10;}
</style>
<g transform="translate(0,-952.36218)">
	<path d="M43.32,963.47c-0.07,0.01-0.14,0.02-0.21,0.04L1.27,975.98c-0.57,0.17-0.97,0.69-0.97,1.29v8.86c0,0.6,0.4,1.12,0.97,1.29
		l6.16,1.83l3.04,11.03c0.16,0.59,0.7,0.99,1.31,0.99h6.75c0.75,0,1.35-0.6,1.36-1.34c0-0.12-0.02-0.25-0.05-0.36l-1.98-7.21
		l25.26,7.51c0.72,0.21,1.47-0.2,1.67-0.92c0.04-0.12,0.05-0.25,0.05-0.37v-14.17c0.01-0.75-0.59-1.36-1.33-1.37
		c-0.75-0.01-1.36,0.59-1.37,1.33c0,0.01,0,0.03,0,0.04v12.36L3,985.13v-6.87l39.13-11.64v12.38c-0.01,0.75,0.59,1.36,1.33,1.37
		c0.75,0.01,1.36-0.59,1.37-1.33c0-0.01,0-0.03,0-0.04v-14.17c0.01-0.75-0.59-1.35-1.34-1.36
		C43.44,963.46,43.38,963.47,43.32,963.47z M57.53,967.5c-0.21,0.02-0.41,0.1-0.59,0.21l-5.4,3.37c-0.63,0.4-0.82,1.23-0.43,1.87
		c0.4,0.63,1.23,0.82,1.86,0.43l5.4-3.37c0.65-0.37,0.87-1.2,0.5-1.84C58.6,967.7,58.07,967.43,57.53,967.5z M52.13,980.34
		c-0.75,0.03-1.32,0.66-1.29,1.41s0.66,1.32,1.41,1.29c0,0,0.01,0,0.01,0h6.07c0.75,0.01,1.36-0.59,1.37-1.33
		c0.01-0.75-0.59-1.36-1.33-1.37c-0.01,0-0.02,0-0.04,0h-6.07C52.21,980.34,52.17,980.34,52.13,980.34z M52.19,989.77
		c-0.75,0.02-1.33,0.64-1.31,1.39c0.01,0.46,0.26,0.89,0.66,1.12l5.4,3.37c0.63,0.4,1.47,0.21,1.87-0.42
		c0.4-0.63,0.21-1.47-0.42-1.87c0,0-0.01-0.01-0.01-0.01l-5.4-3.37C52.74,989.83,52.47,989.76,52.19,989.77L52.19,989.77z
		 M10.51,990.15l4.26,1.27l1.98,7.15h-3.94L10.51,990.15z"/>
</g>
</svg>
