<?xml version="1.0" encoding="utf-8"?>
<!-- Generator: Adobe Illustrator 24.1.1, SVG Export Plug-In . SVG Version: 6.00 Build 0)  -->
<svg version="1.1" id="Layer_1" xmlns="http://www.w3.org/2000/svg" xmlns:xlink="http://www.w3.org/1999/xlink" x="0px" y="0px"
	 viewBox="0 0 60 60" style="enable-background:new 0 0 60 60;" xml:space="preserve">
<style type="text/css">
	.st0{opacity:0.2;}
	.st1{opacity:0.25;}
	.st2{fill:#FFFFFF;}
	.st3{fill:none;stroke:#000000;stroke-width:0.5;stroke-linecap:round;stroke-linejoin:round;stroke-miterlimit:10;}
	.st4{stroke:#000000;stroke-width:0.25;stroke-miterlimit:10;}
	.st5{fill:#4D4D4D;}
	.st6{fill:none;stroke:#000000;stroke-width:1.25;stroke-linecap:round;stroke-miterlimit:10;}
</style>
<g>
	<path d="M49.26,6.2c-0.08-0.09-0.18-0.16-0.29-0.2c0,0,0,0,0,0c-3.17-1.36-7.61-3.28-7.94-3.4c-0.25-0.09-0.53-0.08-0.77,0.06
		c-11.1,6.73-18.77,0.51-19.91,0.2c-0.38-0.22-0.71-0.42-1.13-0.27c-0.01,0-0.02,0-0.03,0c-8.37,3.42-7.89,3.13-8.16,3.38
		C11.02,5.99,11.01,5.99,11,6L1,16.45c-0.29,0.3-0.33,0.75-0.1,1.1l6.31,9.66c0.17,0.26,0.45,0.4,0.74,0.4
		c0.14,0,0.29-0.03,0.42-0.11l5.19-2.83l-0.55,29.15c-0.01,0.5,0.39,0.9,0.89,0.9H46c0.24,0,0.46-0.1,0.63-0.26
		c0.17-0.17,0.26-0.4,0.26-0.63l-0.2-14.99c-0.11-8.11-0.16-12.04-0.19-13.86l5.17,2.54c0.12,0.06,0.26,0.09,0.39,0.09
		c0.29,0,0.57-0.14,0.74-0.4l6.31-9.66c0.23-0.34,0.18-0.8-0.1-1.1L49.26,6.2z M39.48,5.22c-1.22,4.04-5.19,7.04-9.36,7.04
		c-4.22,0-8.25-3.06-9.41-7.16c0-0.01,0-0.01,0-0.02C27.16,8.32,33.75,8.35,39.48,5.22z M8.24,25.55l-5.48-8.39l8.68-9.06
		c2.65,5.16,3.41,10.02,2.27,14.47L8.24,25.55z M14.81,52.95l0.56-29.66c1.37-5.03,0.54-10.49-2.47-16.23l5.9-2.39
		c0.98,5.32,5.92,9.36,11.33,9.36c5.45,0,10.31-4.11,11.32-9.33l5.91,2.54c-3.01,5.44-3.93,10.96-2.66,16.05l0.01,0.44
		c0,0.01,0,0.03,0,0.05l0,0.21c0,0.03,0,0.07,0,0.1l0.39,28.86L14.81,52.95L14.81,52.95z M51.74,25.58l-5.29-2.6
		c0-0.01,0-0.02,0-0.03c-1.17-4.61-0.35-9.65,2.36-14.66l8.44,8.87L51.74,25.58z"/>
	<path d="M38.93,18.94h-17.6c-0.49,0-0.89,0.4-0.89,0.89v17.6c0,0.49,0.4,0.89,0.89,0.89h17.6c0.49,0,0.89-0.4,0.89-0.89v-17.6
		C39.82,19.34,39.42,18.94,38.93,18.94z M38.05,36.54H22.22V20.71h15.83V36.54z"/>
	<path d="M26.47,30.37l-0.57,3.27c-0.06,0.33,0.08,0.67,0.35,0.87c0.27,0.2,0.63,0.22,0.93,0.07l2.95-1.55l2.95,1.55
		c0.13,0.07,0.27,0.1,0.41,0.1c0.18,0,0.37-0.06,0.52-0.17c0.27-0.2,0.41-0.54,0.35-0.87l-0.57-3.27l2.38-2.32
		c0.24-0.24,0.33-0.59,0.22-0.91c-0.1-0.32-0.38-0.55-0.72-0.6l-3.29-0.47l-1.47-2.98c-0.3-0.61-1.29-0.61-1.59,0l-1.47,2.98
		l-3.29,0.47c-0.33,0.05-0.61,0.28-0.72,0.6c-0.1,0.32-0.02,0.67,0.22,0.91L26.47,30.37z M28.58,27.75
		c0.29-0.04,0.54-0.22,0.67-0.49l0.88-1.79l0.88,1.79c0.13,0.26,0.38,0.44,0.67,0.49l1.97,0.28l-1.43,1.4
		c-0.21,0.2-0.3,0.5-0.25,0.79l0.34,1.96l-1.77-0.93c-0.13-0.07-0.27-0.1-0.41-0.1s-0.28,0.03-0.41,0.1l-1.77,0.93l0.34-1.96
		c0.05-0.29-0.05-0.58-0.25-0.79l-1.43-1.4L28.58,27.75z"/>
	<g>
		<path class="st2" d="M44.06,14.12c0.02-0.2,0.04-0.41,0.06-0.66c0.12-1.89,0.31-4.75-1.62-6.72C41.75,6,40.43,5.5,39.2,5.5
			c-0.39,0-0.76,0.05-1.11,0.15c-1.04,0.26-1.84,1.09-2.07,2.17c-0.3,1.19,0.2,2.44,1.25,3.12c0.22,0.16,0.49,0.25,0.77,0.25
			c0.41,0,0.79-0.19,1.04-0.51c0.44-0.57,0.33-1.4-0.24-1.84c-0.06-0.04-0.12-0.08-0.18-0.12c-0.08-0.06-0.12-0.17-0.09-0.27
			l0.01-0.03l0.01-0.03c0.02-0.09,0.09-0.17,0.18-0.19c0.16-0.03,0.32-0.05,0.48-0.05c0.51,0,1.01,0.17,1.41,0.49
			c1.08,1.12,0.96,3,0.85,4.67c0,0.08-0.01,0.16-0.02,0.24c-1.01,0.37-1.69,1.38-1.59,2.51c0.11,1.27,1.16,2.22,2.43,2.22
			c0.07,0,0.14,0,0.22-0.01c0.65-0.06,1.24-0.36,1.66-0.86c0.42-0.5,0.62-1.13,0.56-1.78C44.7,15.04,44.45,14.52,44.06,14.12z"/>
		<path class="st2" d="M53.7,26.7l-5.34-12.43c-0.43-0.87-1.12-1.53-1.97-1.9l-1.55-0.57l-1.11-0.41l-0.05,1.18
			c-0.01,0.24-0.03,0.47-0.04,0.7l-0.01,0.17c0,0,0,0,0,0.01L42,12.87l0.02-0.23c0.03-0.44,0.03-0.87,0.03-1.26v-0.62l-0.58-0.2
			c-0.21-0.07-0.43-0.11-0.65-0.11h0l0,0c-0.84,0-1.6,0.53-1.89,1.32l-1.77,4.7c-0.29,0.92-0.27,1.88,0.06,2.74l5.5,12.61
			c0.31,0.72,1.02,1.19,1.81,1.19c0.27,0,0.52-0.05,0.77-0.16l0.02-0.01l0.06-0.03l7.35-3.46C53.71,28.87,54.13,27.7,53.7,26.7z"/>
		<path d="M48.37,22.53c-0.14-0.16-0.36-0.23-0.56-0.17l-1.27,0.34l-1.01-0.84c-0.24-0.2-0.59-0.16-0.79,0.08
			c-0.08,0.09-0.12,0.21-0.13,0.33l-0.06,1.28l-1.13,0.68c-0.27,0.16-0.35,0.51-0.19,0.77c0.07,0.11,0.17,0.19,0.28,0.23l1.23,0.45
			l0.31,1.25c0.08,0.3,0.38,0.48,0.68,0.41c0.12-0.03,0.22-0.1,0.3-0.19l0.82-1.01l1.31,0.09c0.31,0.02,0.58-0.21,0.6-0.52
			c0.01-0.12-0.02-0.25-0.09-0.35l-0.72-1.07l0.49-1.19C48.54,22.91,48.5,22.69,48.37,22.53z M46.66,25.01
			c-0.18-0.01-0.36,0.06-0.48,0.21l-0.3,0.36l-0.11-0.44c-0.05-0.18-0.18-0.33-0.36-0.39l-0.42-0.15l0.38-0.23
			c0.16-0.09,0.27-0.26,0.28-0.45l0.02-0.45l0.36,0.3c0.14,0.12,0.33,0.16,0.5,0.11l0.45-0.12l-0.17,0.41
			c-0.07,0.17-0.05,0.37,0.05,0.53l0.24,0.36L46.66,25.01z"/>
		<path d="M47.57,14.61c-0.32-0.65-0.86-1.16-1.52-1.45l-1.5-0.55c-0.01,0.31-0.03,0.6-0.05,0.88c0,0.1-0.01,0.2-0.02,0.28
			l1.19,0.43c0.37,0.18,0.68,0.48,0.87,0.84l5.35,12.44c0.01,0.03,0,0.06-0.02,0.08l-7.33,3.47l-5.49-12.57
			c-0.14-0.41-0.15-0.86-0.03-1.28l1.76-4.7c0-0.01,0.02-0.03,0.03-0.03l0.35,0.13c0.03-0.41,0.03-0.82,0.03-1.2
			c-0.12-0.04-0.24-0.06-0.37-0.06c-0.48,0-0.92,0.3-1.09,0.76l-1.77,4.71c-0.22,0.7-0.2,1.45,0.06,2.13l5.49,12.57
			c0.24,0.56,0.88,0.82,1.44,0.58c0.01-0.01,0.03-0.01,0.04-0.02l7.35-3.46c0.57-0.28,0.82-0.96,0.56-1.54L47.57,14.61z"/>
		<path d="M38.6,7.46c0.9-0.19,1.84,0.03,2.55,0.61c1.35,1.36,1.21,3.53,1.09,5.27c-0.02,0.28-0.04,0.54-0.08,0.8
			c-0.93,0.08-1.62,0.9-1.53,1.83c0.08,0.93,0.9,1.62,1.83,1.53s1.62-0.9,1.53-1.83c-0.04-0.51-0.32-0.97-0.74-1.25
			c0.05-0.33,0.08-0.67,0.11-1.01c0.12-1.87,0.28-4.42-1.41-6.14C41.23,6.54,39.58,6,38.3,6.37c-0.78,0.2-1.38,0.82-1.55,1.6
			c-0.23,0.9,0.15,1.85,0.94,2.34c0.25,0.19,0.6,0.14,0.79-0.1c0.19-0.25,0.14-0.6-0.1-0.79c-0.03-0.03-0.07-0.05-0.11-0.06
			c-0.38-0.24-0.55-0.7-0.43-1.13C37.92,7.84,38.21,7.54,38.6,7.46z M42.31,16.39c-0.31,0-0.56-0.25-0.56-0.56s0.25-0.56,0.56-0.56
			c0.31,0,0.56,0.25,0.56,0.56S42.62,16.39,42.31,16.39z"/>
	</g>
</g>
</svg>
