<?xml version="1.0" encoding="utf-8"?>
<!-- Generator: Adobe Illustrator 24.1.1, SVG Export Plug-In . SVG Version: 6.00 Build 0)  -->
<svg version="1.1" id="Layer_1" xmlns="http://www.w3.org/2000/svg" xmlns:xlink="http://www.w3.org/1999/xlink" x="0px" y="0px"
	 viewBox="0 0 60 60" style="enable-background:new 0 0 60 60;" xml:space="preserve">
<style type="text/css">
	.st0{opacity:0.2;}
	.st1{opacity:0.25;}
	.st2{fill:#FFFFFF;}
	.st3{fill:none;stroke:#000000;stroke-width:0.5;stroke-linecap:round;stroke-linejoin:round;stroke-miterlimit:10;}
	.st4{stroke:#000000;stroke-width:0.25;stroke-miterlimit:10;}
	.st5{fill:#4D4D4D;}
	.st6{fill:none;stroke:#000000;stroke-width:1.25;stroke-linecap:round;stroke-miterlimit:10;}
</style>
<g>
	<path d="M2.7,38.22c0,1-0.01,1.89,0,2.77c0.02,1.28,0.91,2.14,2.2,2.14c8.66,0,17.32,0,25.98,0c1.11,0,1.58,0.31,1.59,1.06
		c0,0.75-0.47,1.07-1.57,1.07c-1.33,0-2.66,0-4.09,0c0,0.76,0,1.48,0,2.2c0,0.38-0.03,0.76,0.01,1.13c0.17,1.7-0.45,3.02-1.87,3.97
		c-0.12,0.08-0.22,0.19-0.42,0.38c0.32,0.01,0.53,0.03,0.74,0.03c1.99,0,3.99,0,5.98,0c0.75,0,1.21,0.39,1.23,1.01
		c0.02,0.61-0.45,1.07-1.18,1.07c-3.21,0.01-6.42,0.01-9.63,0c-0.41,0-0.88-0.03-1.03-0.54c-0.16-0.53-0.05-0.97,0.43-1.34
		c1.01-0.79,2.01-1.61,2.97-2.45c0.28-0.25,0.59-0.63,0.6-0.97c0.07-1.45,0.03-2.91,0.03-4.47c-0.34,0-0.64,0-0.94,0
		c-6.25,0-12.49-0.04-18.74,0.02c-2.2,0.02-4.41-1.69-4.41-4.46c0.02-10.52,0.03-21.04,0-31.56c-0.01-2.77,2.22-4.47,4.4-4.46
		c16.26,0.04,32.51,0.02,48.77,0.02c2.35,0,4.28,1.86,4.26,4.08c-0.01,0.68-0.35,1.1-0.94,1.14c-0.63,0.04-0.99-0.27-1.11-0.96
		c-0.28-1.59-0.9-2.12-2.5-2.12c-16.1,0-32.2,0.02-48.31-0.02c-1.63,0-2.46,1.2-2.46,2.46C2.72,18.09,2.7,26.75,2.7,35.41
		c0,0.2,0.02,0.39,0.03,0.68c0.26,0,0.49,0,0.73,0c9.13,0,18.25,0,27.38,0c0.2,0,0.4-0.01,0.6,0c0.64,0.03,1.05,0.45,1.04,1.05
		c-0.01,0.6-0.4,0.99-1.08,1c-1.82,0.03-3.63,0.03-5.45,0.03c-7.51,0.02-15.02,0.03-22.53,0.05C3.2,38.22,2.99,38.22,2.7,38.22z"/>
	<path d="M34.67,33.6c0-6.09,0-12.18,0-18.27c0-1.67,0.74-2.78,2.15-3.2c0.37-0.11,0.78-0.14,1.18-0.14
		c6.02-0.01,12.05-0.01,18.07,0c2.13,0,3.38,1.27,3.38,3.38c0,12.13,0,24.27,0,36.4c0,2.09-1.25,3.38-3.32,3.38
		c-6,0.01-12-0.03-18,0.03c-2.13,0.02-3.5-1.41-3.48-3.51C34.71,45.64,34.67,39.62,34.67,33.6z M57.31,44.56c0-8.3,0-16.54,0-24.76
		c-6.9,0-13.73,0-20.53,0c0,8.28,0,16.51,0,24.76C43.63,44.56,50.44,44.56,57.31,44.56z M36.73,46.69c0,1.75,0,3.45,0,5.15
		c0,0.87,0.38,1.25,1.26,1.25c6.05,0,12.09,0,18.14,0c0.89,0,1.26-0.36,1.26-1.25c-0.01-1.64-0.04-3.28-0.06-4.92
		c0-0.08-0.04-0.16-0.06-0.24C50.41,46.69,43.6,46.69,36.73,46.69z M57.32,17.58c0-0.76,0.01-1.48,0-2.21
		c-0.01-1.03-0.32-1.34-1.35-1.34c-2.54,0-5.09,0-7.63,0c-3.45,0-6.9,0-10.35,0c-0.63,0-1.16,0.22-1.22,0.86
		c-0.09,0.89-0.02,1.79-0.02,2.69C43.65,17.58,50.48,17.58,57.32,17.58z"/>
	<path class="st1" d="M15.98,26.79c-0.83,0.01-1.3-0.62-1.12-1.33c0.66-2.65,1.32-5.3,1.98-7.95c0.27-1.07,0.52-2.14,0.81-3.2
		c0.23-0.83,0.91-1.16,1.55-0.78c0.46,0.28,0.6,0.71,0.48,1.2c-0.92,3.74-1.86,7.48-2.8,11.22C16.75,26.47,16.37,26.76,15.98,26.79z
		"/>
	<path d="M10,20.13c0.84,0.76,1.53,1.35,2.19,1.98c0.5,0.48,0.53,1.1,0.13,1.53c-0.45,0.48-1.03,0.48-1.57-0.05
		c-0.9-0.88-1.79-1.77-2.67-2.67c-0.5-0.52-0.5-1.12,0-1.64c0.88-0.9,1.77-1.79,2.67-2.67c0.47-0.46,1.14-0.48,1.54-0.08
		c0.41,0.4,0.41,1.06-0.06,1.54C11.56,18.72,10.86,19.33,10,20.13z"/>
	<path d="M24.54,20.08c-0.84-0.76-1.52-1.33-2.15-1.95c-0.55-0.53-0.57-1.11-0.11-1.57c0.43-0.44,1.06-0.4,1.58,0.11
		c0.87,0.85,1.73,1.71,2.58,2.58c0.57,0.59,0.58,1.09,0.01,1.67c-0.88,0.9-1.77,1.79-2.68,2.68c-0.51,0.5-1.08,0.52-1.53,0.08
		c-0.42-0.41-0.42-1.06,0.06-1.53C22.97,21.49,23.67,20.88,24.54,20.08z"/>
	<path class="st1" d="M45.57,38.1c-0.64,0-1.13-0.58-0.97-1.2c0.93-3.76,1.87-7.51,2.83-11.26c0.18-0.72,0.7-1.02,1.33-0.85
		c0.55,0.15,0.84,0.71,0.68,1.38c-0.91,3.67-1.83,7.34-2.75,11.01C46.54,37.75,46.21,38.12,45.57,38.1z"/>
	<path d="M54.28,31.42c-0.82-0.75-1.5-1.32-2.12-1.94c-0.54-0.54-0.56-1.13-0.11-1.58c0.45-0.45,1.03-0.42,1.58,0.11
		c0.87,0.85,1.73,1.71,2.58,2.58c0.6,0.61,0.59,1.1-0.01,1.72c-0.85,0.87-1.71,1.73-2.58,2.58c-0.54,0.53-1.13,0.56-1.58,0.12
		c-0.45-0.44-0.44-1.05,0.09-1.58C52.77,32.8,53.44,32.2,54.28,31.42z"/>
	<path d="M39.98,31.31c0.76,0.78,1.38,1.43,2.01,2.08c0.56,0.58,0.61,1.16,0.15,1.62c-0.46,0.45-1.05,0.4-1.62-0.16
		c-0.85-0.84-1.7-1.68-2.53-2.53c-0.63-0.64-0.62-1.12,0.01-1.77c0.8-0.82,1.62-1.63,2.44-2.44c0.52-0.51,1.05-0.52,1.5-0.05
		c0.39,0.41,0.38,1.03-0.07,1.48C41.25,30.14,40.61,30.72,39.98,31.31z"/>
	<path d="M47.06,48.84c0.91,0,1.81-0.01,2.72,0c0.68,0.01,1.15,0.43,1.16,1.02c0.01,0.55-0.44,1.02-1.08,1.03
		c-1.88,0.02-3.76,0.02-5.64,0c-0.68-0.01-1.04-0.43-1.03-1.04c0.02-0.6,0.42-0.99,1.08-1C45.2,48.84,46.13,48.85,47.06,48.84z"/>
</g>
</svg>
