<?xml version="1.0" encoding="utf-8"?>
<!-- Generator: Adobe Illustrator 24.1.1, SVG Export Plug-In . SVG Version: 6.00 Build 0)  -->
<svg version="1.1" id="Layer_1" xmlns="http://www.w3.org/2000/svg" xmlns:xlink="http://www.w3.org/1999/xlink" x="0px" y="0px"
	 viewBox="0 0 60 60" style="enable-background:new 0 0 60 60;" xml:space="preserve">
<style type="text/css">
	.st0{opacity:0.2;}
	.st1{opacity:0.25;}
	.st2{fill:#FFFFFF;}
	.st3{fill:none;stroke:#000000;stroke-width:0.5;stroke-linecap:round;stroke-linejoin:round;stroke-miterlimit:10;}
	.st4{stroke:#000000;stroke-width:0.25;stroke-miterlimit:10;}
	.st5{fill:#4D4D4D;}
	.st6{fill:none;stroke:#000000;stroke-width:1.25;stroke-linecap:round;stroke-miterlimit:10;}
	.st7{font-family:'Montserrat-Medium';}
	.st8{font-size:4.2969px;}
</style>
<path class="st6" d="M8.42,17.88c0,0,5.92,1.41,10.71,16.21c0.28-0.28,9.73-36.18,21.15-0.68c0.14,0.11,1.97-4.18,1.97-4.18"/>
<circle class="st6" cx="46.09" cy="21.58" r="5.53"/>
<path d="M32.6,43.13c0,1.44,0,2.76,0,4.13c0.26,0.01,0.49,0.03,0.72,0.04c0.96,0.01,1.93-0.04,2.88,0.03
	c1.58,0.11,2.65,1.32,2.59,2.82c-0.06,1.5-1.23,2.6-2.81,2.6c-3.7,0.01-7.4,0-11.11,0c-0.55,0-1.11,0.01-1.66,0
	c-1.54-0.03-2.7-1.12-2.76-2.58c-0.06-1.51,0.99-2.71,2.57-2.83c0.93-0.07,1.87-0.02,2.81-0.03c0.31,0,0.62,0,1,0
	c0-1.39,0-2.72,0-4.12c-0.3-0.02-0.6-0.05-0.9-0.05c-6.95,0-13.89-0.01-20.84,0c-1.65,0-2.9-0.63-3.61-2.13
	c-0.22-0.46-0.34-1.02-0.34-1.53c-0.02-9.54-0.02-19.09-0.01-28.63c0-1.96,1.55-3.51,3.51-3.59c0.34-0.01,0.67-0.01,1.01-0.01
	c16.39,0,32.79,0,49.18-0.01c1.19,0,2.23,0.3,3.05,1.2c0.63,0.68,0.96,1.49,0.96,2.42c0,0.84,0.01,1.68,0,2.52
	c-0.01,0.62-0.33,0.98-0.82,0.98c-0.48,0-0.8-0.37-0.81-0.99c-0.01-0.74,0-1.49-0.01-2.24C57.21,9.72,56.4,8.9,54.98,8.9
	c-3.87-0.01-7.74,0-11.61,0c-12.72,0-25.43,0-38.15,0C4.41,8.89,3.64,9,3.21,9.74c-0.25,0.43-0.41,0.98-0.41,1.48
	C2.76,14.61,2.77,18,2.77,21.39c0,5.87-0.01,11.73,0.01,17.6c0,0.47,0.06,0.98,0.25,1.4c0.37,0.79,1.08,1.11,1.95,1.11
	c3.46-0.01,6.92,0,10.38,0c6.22,0,12.45,0,18.67,0c6.99,0,13.99,0,20.98-0.01c1.42,0,2.21-0.84,2.21-2.34c0.01-5.6,0-11.2,0-16.8
	c0-0.22-0.01-0.43,0.01-0.65c0.05-0.46,0.39-0.78,0.8-0.78c0.4,0,0.75,0.32,0.81,0.77c0.02,0.12,0.01,0.24,0.01,0.36
	c0,5.79,0.01,11.59-0.01,17.38c0,1.63-0.89,2.95-2.35,3.46c-0.55,0.19-1.18,0.24-1.77,0.24c-7.02,0.02-14.04,0.01-21.06,0.01
	C33.35,43.13,33.02,43.13,32.6,43.13z M28.56,43.19c0,0.32,0,0.58,0,0.84c0,1.3,0.01,2.59,0,3.89c-0.01,0.76-0.28,1.05-1.04,1.06
	c-1.25,0.02-2.5,0.01-3.75,0.01c-0.19,0-0.38-0.01-0.58,0c-0.62,0.04-1.07,0.47-1.08,1.03c-0.01,0.52,0.4,0.99,0.97,1.07
	c0.19,0.03,0.38,0.02,0.58,0.02c3.99,0,7.97,0,11.96,0c0.26,0,0.53-0.01,0.78-0.09c0.5-0.15,0.81-0.63,0.74-1.09
	c-0.07-0.5-0.44-0.87-0.95-0.94c-0.17-0.02-0.34-0.01-0.5-0.01c-1.2,0-2.4,0.01-3.6,0c-0.92-0.01-1.19-0.29-1.2-1.22
	c-0.01-1.27,0-2.55,0-3.82c0-0.23,0-0.47,0-0.76C30.08,43.19,29.35,43.19,28.56,43.19z"/>
<path d="M58.85,17.65c-0.01,0.46-0.37,0.81-0.84,0.79c-0.44-0.01-0.77-0.34-0.78-0.78c-0.01-0.46,0.35-0.84,0.8-0.84
	C58.51,16.83,58.86,17.19,58.85,17.65z"/>
<text transform="matrix(1 0 0 1 42.5693 23.2355)" class="st7 st8">GIF</text>
</svg>
