<?xml version="1.0" encoding="utf-8"?>
<!-- Generator: Adobe Illustrator 24.1.1, SVG Export Plug-In . SVG Version: 6.00 Build 0)  -->
<svg version="1.1" id="Layer_1" xmlns="http://www.w3.org/2000/svg" xmlns:xlink="http://www.w3.org/1999/xlink" x="0px" y="0px"
	 viewBox="0 0 60 60" style="enable-background:new 0 0 60 60;" xml:space="preserve">
<style type="text/css">
	.st0{opacity:0.2;}
	.st1{opacity:0.25;}
	.st2{fill:#FFFFFF;}
	.st3{fill:none;stroke:#000000;stroke-width:0.5;stroke-linecap:round;stroke-linejoin:round;stroke-miterlimit:10;}
	.st4{stroke:#000000;stroke-width:0.25;stroke-miterlimit:10;}
	.st5{fill:#4D4D4D;}
	.st6{fill:none;stroke:#000000;stroke-width:1.25;stroke-linecap:round;stroke-miterlimit:10;}
</style>
<g>
	<g>
		<path d="M50.55,46.18H20.47c-0.1,0-0.2-0.04-0.27-0.11L9.14,35.01c-0.07-0.07-0.11-0.17-0.11-0.27V14.69
			c0-0.16,0.09-0.3,0.24-0.36c0.14-0.06,0.31-0.03,0.42,0.08l7.28,7.28l4.97,2.43l-2.37-4.84c-0.06-0.02-0.11-0.05-0.15-0.09
			l-6.17-6.17c-0.11-0.11-0.14-0.28-0.08-0.42c0.06-0.14,0.2-0.24,0.36-0.24h37.03c0.21,0,0.39,0.17,0.39,0.39V45.8
			C50.94,46.01,50.77,46.18,50.55,46.18z M20.63,45.41h29.54V13.14H14.46l5.4,5.4c0.13,0.01,0.25,0.09,0.31,0.21l2.96,6.04
			c0.07,0.15,0.04,0.33-0.07,0.44c-0.12,0.12-0.29,0.15-0.44,0.07l-5.96-2.92h-0.04c-0.2,0-0.37-0.16-0.38-0.35L9.8,15.62v18.96
			L20.63,45.41z"/>
	</g>
	<g>
		<path d="M27.8,53.51c-0.01,0-0.01,0-0.02,0L3.61,52.48c-0.2-0.01-0.36-0.17-0.37-0.37l-1.16-24.3c-0.01-0.16,0.08-0.31,0.23-0.37
			c0.15-0.06,0.32-0.03,0.43,0.08l25.3,25.3c0.09,0.07,0.14,0.18,0.14,0.3C28.19,53.34,28.02,53.51,27.8,53.51
			C27.8,53.51,27.8,53.51,27.8,53.51z M4,51.73l22.83,0.97L2.91,28.78L4,51.73z"/>
	</g>
	<g>
		<path d="M17.13,47.85c-0.01,0-0.01,0-0.02,0l-8.49-0.39c-0.2-0.01-0.36-0.17-0.37-0.37l-0.39-8.49c-0.01-0.16,0.08-0.31,0.23-0.37
			c0.15-0.06,0.32-0.03,0.43,0.08l8.85,8.85c0.09,0.07,0.14,0.18,0.14,0.3C17.52,47.68,17.34,47.85,17.13,47.85
			C17.13,47.85,17.13,47.85,17.13,47.85z M9.01,46.71l7.14,0.32l-7.46-7.46L9.01,46.71z"/>
	</g>
	<g>
		<path d="M59.55,51.07h-6.94c-0.21,0-0.39-0.17-0.39-0.39V22.91c0-0.21,0.17-0.39,0.39-0.39h6.94c0.21,0,0.39,0.17,0.39,0.39v27.77
			C59.94,50.9,59.77,51.07,59.55,51.07z M53,50.3h6.17v-27H53V50.3z"/>
	</g>
	<g>
		<path d="M59.55,25.61h-4.24c-0.21,0-0.39-0.17-0.39-0.39s0.17-0.39,0.39-0.39h4.24c0.21,0,0.39,0.17,0.39,0.39
			S59.77,25.61,59.55,25.61z"/>
	</g>
	<g>
		<path d="M59.55,27.93H56.6c-0.21,0-0.39-0.17-0.39-0.39c0-0.21,0.17-0.39,0.39-0.39h2.96c0.21,0,0.39,0.17,0.39,0.39
			C59.94,27.75,59.77,27.93,59.55,27.93z"/>
	</g>
	<g>
		<path d="M59.55,30.24h-4.24c-0.21,0-0.39-0.17-0.39-0.39c0-0.21,0.17-0.39,0.39-0.39h4.24c0.21,0,0.39,0.17,0.39,0.39
			C59.94,30.07,59.77,30.24,59.55,30.24z"/>
	</g>
	<g>
		<path d="M59.55,32.43H56.6c-0.21,0-0.39-0.17-0.39-0.39c0-0.21,0.17-0.39,0.39-0.39h2.96c0.21,0,0.39,0.17,0.39,0.39
			C59.94,32.25,59.77,32.43,59.55,32.43z"/>
	</g>
	<g>
		<path d="M59.55,34.74h-4.24c-0.21,0-0.39-0.17-0.39-0.39c0-0.21,0.17-0.39,0.39-0.39h4.24c0.21,0,0.39,0.17,0.39,0.39
			C59.94,34.57,59.77,34.74,59.55,34.74z"/>
	</g>
	<g>
		<path d="M59.55,37.05H56.6c-0.21,0-0.39-0.17-0.39-0.39c0-0.21,0.17-0.39,0.39-0.39h2.96c0.21,0,0.39,0.17,0.39,0.39
			C59.94,36.88,59.77,37.05,59.55,37.05z"/>
	</g>
	<g>
		<path d="M59.55,39.37h-4.24c-0.21,0-0.39-0.17-0.39-0.39s0.17-0.39,0.39-0.39h4.24c0.21,0,0.39,0.17,0.39,0.39
			S59.77,39.37,59.55,39.37z"/>
	</g>
	<g>
		<path d="M59.55,41.68H56.6c-0.21,0-0.39-0.17-0.39-0.39c0-0.21,0.17-0.39,0.39-0.39h2.96c0.21,0,0.39,0.17,0.39,0.39
			C59.94,41.51,59.77,41.68,59.55,41.68z"/>
	</g>
	<g>
		<path d="M59.55,44h-4.24c-0.21,0-0.39-0.17-0.39-0.39c0-0.21,0.17-0.39,0.39-0.39h4.24c0.21,0,0.39,0.17,0.39,0.39
			C59.94,43.82,59.77,44,59.55,44z"/>
	</g>
	<g>
		<path d="M59.55,46.18H56.6c-0.21,0-0.39-0.17-0.39-0.39c0-0.21,0.17-0.39,0.39-0.39h2.96c0.21,0,0.39,0.17,0.39,0.39
			C59.94,46.01,59.77,46.18,59.55,46.18z"/>
	</g>
	<g>
		<path d="M59.55,48.5h-4.24c-0.21,0-0.39-0.17-0.39-0.39s0.17-0.39,0.39-0.39h4.24c0.21,0,0.39,0.17,0.39,0.39
			S59.77,48.5,59.55,48.5z"/>
	</g>
	<g>
		<path d="M51.71,55.57H16.87c-0.21,0-0.39-0.17-0.39-0.39c0-0.21,0.17-0.39,0.39-0.39h34.84c0.21,0,0.39,0.17,0.39,0.39
			C52.1,55.39,51.92,55.57,51.71,55.57z"/>
	</g>
	<g>
		<path d="M31.27,57.75H7.23c-0.21,0-0.39-0.17-0.39-0.39c0-0.21,0.17-0.39,0.39-0.39h24.04c0.21,0,0.39,0.17,0.39,0.39
			C31.66,57.58,31.48,57.75,31.27,57.75z"/>
	</g>
	<g>
		<path d="M4.79,57.75H1.7c-0.21,0-0.39-0.17-0.39-0.39c0-0.21,0.17-0.39,0.39-0.39h3.09c0.21,0,0.39,0.17,0.39,0.39
			C5.17,57.58,5,57.75,4.79,57.75z"/>
	</g>
	<g>
		<path d="M53.13,57.62H41.68c-0.21,0-0.39-0.17-0.39-0.39s0.17-0.39,0.39-0.39h11.44c0.21,0,0.39,0.17,0.39,0.39
			S53.34,57.62,53.13,57.62z"/>
	</g>
	<g>
		<path d="M22.79,25.36c-0.06,0-0.12-0.01-0.17-0.04l-6.04-2.96c-0.04-0.02-0.07-0.04-0.1-0.07L2.84,8.66
			c-0.15-0.15-0.15-0.39,0-0.55l3.09-3.09c0.15-0.15,0.39-0.15,0.55,0L20.1,18.66c0.03,0.03,0.06,0.06,0.07,0.1l2.94,6.01
			c0.04,0.06,0.06,0.13,0.06,0.21C23.17,25.18,23,25.36,22.79,25.36z M16.97,21.69l4.97,2.43l-2.43-4.97L6.2,5.85L3.66,8.39
			L16.97,21.69z"/>
	</g>
	<g>
		<path d="M3.12,8.77c-0.09,0-0.18-0.03-0.25-0.1l-1.03-0.9C1.75,7.71,1.71,7.61,1.7,7.5c0-0.11,0.04-0.21,0.11-0.29L4.9,4.13
			c0.14-0.14,0.37-0.15,0.53-0.02l1.03,0.9c0.08,0.07,0.13,0.17,0.13,0.28c0,0.11-0.04,0.21-0.11,0.29L3.39,8.66
			C3.31,8.73,3.21,8.77,3.12,8.77z M2.65,7.47L3.1,7.86l2.54-2.54L5.19,4.93L2.65,7.47z"/>
	</g>
	<g>
		<path d="M2.09,7.87c0,0-0.01,0-0.01,0c-0.11,0-0.21-0.05-0.28-0.13L0.65,6.47c-0.79-0.8-0.79-2.19,0.01-2.98L1.3,2.84
			c0.38-0.38,0.92-0.6,1.49-0.6s1.12,0.22,1.49,0.6c0,0,0.01,0.01,0.01,0.01l1.16,1.29C5.6,4.29,5.59,4.53,5.45,4.67L2.36,7.76
			C2.29,7.83,2.19,7.87,2.09,7.87z M2.79,3.02c-0.37,0-0.71,0.13-0.95,0.37L1.2,4.03c-0.5,0.5-0.5,1.4,0,1.9
			c0,0,0.01,0.01,0.01,0.01L2.1,6.93l2.54-2.54L3.74,3.38C3.5,3.15,3.16,3.02,2.79,3.02z"/>
	</g>
	<g>
		<path d="M16.74,22.4c-0.1,0-0.19-0.04-0.27-0.11c-0.15-0.15-0.16-0.39-0.01-0.55l2.96-3.09c0.15-0.15,0.39-0.16,0.55-0.01
			c0.15,0.15,0.16,0.39,0.01,0.55l-2.96,3.09C16.95,22.36,16.84,22.4,16.74,22.4z"/>
	</g>
	<g>
		<path d="M18.67,20.34c-0.1,0-0.2-0.04-0.27-0.11L4.9,6.73c-0.15-0.15-0.15-0.39,0-0.55c0.15-0.15,0.39-0.15,0.55,0l13.5,13.5
			c0.15,0.15,0.15,0.39,0,0.55C18.87,20.3,18.77,20.34,18.67,20.34z"/>
	</g>
	<g>
		<path d="M17.77,21.37c-0.1,0-0.2-0.04-0.27-0.11L3.87,7.63c-0.15-0.15-0.15-0.39,0-0.55c0.15-0.15,0.39-0.15,0.55,0l13.63,13.63
			c0.15,0.15,0.15,0.39,0,0.55C17.97,21.33,17.87,21.37,17.77,21.37z"/>
	</g>
	<g>
		<path d="M52.87,19.06c-0.21,0-0.39-0.17-0.39-0.39v-7.84H35c-0.21,0-0.39-0.17-0.39-0.39c0-0.21,0.17-0.39,0.39-0.39h17.87
			c0.21,0,0.39,0.17,0.39,0.39v8.23C53.25,18.88,53.08,19.06,52.87,19.06z"/>
	</g>
	<g>
		<path d="M34.36,37.83c-2.41,0-4.67-0.94-6.36-2.65c-1.7-1.72-2.63-4.02-2.63-6.47c0-4.96,4.04-9,9-9s9,4.04,9,9
			c0,2.46-0.94,4.76-2.63,6.47C39.03,36.88,36.77,37.83,34.36,37.83z M34.36,20.47c-4.54,0-8.23,3.69-8.23,8.23
			c0,4.61,3.69,8.36,8.23,8.36s8.23-3.75,8.23-8.36C42.58,24.16,38.89,20.47,34.36,20.47z"/>
	</g>
	<g>
		<path d="M38.6,34.1c-4.96,0-9-4.04-9-9c0-1.78,0.65-3.45,1.2-4.54c0.04-0.09,0.12-0.15,0.21-0.19c1.23-0.46,2.26-0.67,3.35-0.67
			c4.96,0,9,4.04,9,9c0,1.75-0.42,3.38-1.21,4.7c-0.04,0.07-0.11,0.13-0.2,0.16C40.95,33.93,39.92,34.1,38.6,34.1z M31.42,21.04
			c-0.49,1.02-1.05,2.51-1.05,4.06c0,4.54,3.69,8.23,8.23,8.23c1.17,0,2.09-0.14,2.95-0.44c0.68-1.18,1.03-2.62,1.03-4.18
			c0-4.54-3.69-8.23-8.23-8.23C33.41,20.47,32.5,20.65,31.42,21.04z"/>
	</g>
	<g>
		<path d="M38.6,34.1c-1.16,0-2.09-0.16-3.09-0.54c-0.15-0.06-0.25-0.2-0.25-0.36v-1.29c0-4,2.37-7.37,6.05-8.59
			c0.16-0.05,0.34,0,0.43,0.14c1.04,1.43,1.62,3.29,1.62,5.24c0,1.75-0.42,3.38-1.21,4.7c-0.04,0.07-0.11,0.13-0.2,0.16
			C40.95,33.93,39.92,34.1,38.6,34.1z M36.03,32.93c0.82,0.28,1.61,0.4,2.57,0.4c1.17,0,2.09-0.14,2.95-0.44
			c0.68-1.18,1.03-2.62,1.03-4.18c0-1.68-0.46-3.28-1.31-4.55c-3.2,1.19-5.25,4.21-5.25,7.77V32.93z"/>
	</g>
	<g>
		<path d="M35.9,28.57c-2.21,0-4.4-0.81-6.16-2.27c-0.09-0.07-0.14-0.18-0.14-0.3v-0.9c0-1.78,0.65-3.45,1.2-4.54
			c0.04-0.09,0.12-0.15,0.21-0.19c1.23-0.46,2.26-0.67,3.35-0.67c3.58,0,6.77,2.11,8.32,5.5c0.07,0.15,0.04,0.32-0.08,0.43
			C40.73,27.5,38.29,28.57,35.9,28.57z M30.37,25.82c1.6,1.28,3.55,1.98,5.53,1.98c2.11,0,4.26-0.92,5.96-2.53
			c-1.46-2.97-4.32-4.8-7.5-4.8c-0.95,0-1.86,0.17-2.94,0.57c-0.49,1.02-1.05,2.51-1.05,4.06V25.82z"/>
	</g>
</g>
</svg>
