<?xml version="1.0" encoding="utf-8"?>
<!-- Generator: Adobe Illustrator 24.1.1, SVG Export Plug-In . SVG Version: 6.00 Build 0)  -->
<svg version="1.1" id="Layer_1" xmlns="http://www.w3.org/2000/svg" xmlns:xlink="http://www.w3.org/1999/xlink" x="0px" y="0px"
	 viewBox="0 0 60 60" style="enable-background:new 0 0 60 60;" xml:space="preserve">
<style type="text/css">
	.st0{opacity:0.2;}
	.st1{opacity:0.25;}
	.st2{fill:#FFFFFF;}
	.st3{fill:none;stroke:#000000;stroke-width:0.5;stroke-linecap:round;stroke-linejoin:round;stroke-miterlimit:10;}
	.st4{stroke:#000000;stroke-width:0.25;stroke-miterlimit:10;}
	.st5{fill:#4D4D4D;}
	.st6{fill:none;stroke:#000000;stroke-width:1.25;stroke-linecap:round;stroke-miterlimit:10;}
</style>
<g>
	<g>
		<path d="M47.59,17.01L37.32,5.09l0.39-3.91c0.03-0.3-0.11-0.6-0.36-0.77c-0.25-0.17-0.57-0.2-0.85-0.07L22.29,7.21
			C22,7.36,21.81,7.65,21.81,7.97v4.48l-9.27,6.95c-0.21,0.16-0.34,0.41-0.34,0.67v32.65c0,0.35,0.22,0.67,0.55,0.79l16.95,6.17
			c0.09,0.04,0.19,0.05,0.29,0.05c0.14,0,0.28-0.04,0.4-0.11l16.96-9.25c0.27-0.14,0.44-0.43,0.44-0.74V17.56
			C47.8,17.36,47.72,17.16,47.59,17.01z M23.49,8.5l12.39-5.98l-0.23,2.32l-12.16,6.43L23.49,8.5L23.49,8.5z M29.16,27.29v30.41
			l-15.27-5.55V20.5l8.49-6.37l5.77,10.7c0.15,0.28,0.44,0.44,0.74,0.44c0.13,0,0.27-0.03,0.4-0.1c0.41-0.22,0.56-0.73,0.34-1.14
			l-5.89-10.92l0.36-0.27l12.16-6.41l9.42,10.93L29.16,27.29z M46.11,49.15l-15.27,8.33V28.24l15.27-9.19V49.15z M35.32,34.64
			C35.32,34.64,35.32,34.64,35.32,34.64c0.99,0,2.23-0.35,3.59-1.01c2.56-1.24,5.39-3.62,5.62-5.57c0.08-0.69-0.18-1.14-0.4-1.4
			c-0.27-0.3-0.79-0.66-1.77-0.66c-0.99,0-2.23,0.35-3.59,1.01c-2.56,1.24-5.4,3.62-5.63,5.57c-0.08,0.69,0.18,1.14,0.4,1.4
			C33.82,34.28,34.34,34.64,35.32,34.64z M39.51,28.52c1.1-0.54,2.14-0.84,2.85-0.84c0.34,0,0.49,0.07,0.5,0.18
			c-0.1,0.87-1.94,2.92-4.69,4.26c-1.1,0.54-2.14,0.84-2.85,0.84h0c-0.34,0-0.49-0.07-0.5-0.17C34.92,31.9,36.76,29.86,39.51,28.52z
			 M32.72,44.79c-0.21-0.41-0.05-0.92,0.36-1.13l10.4-5.33c0.41-0.21,0.92-0.05,1.13,0.36c0.21,0.41,0.05,0.92-0.36,1.13
			l-10.41,5.33c-0.12,0.06-0.25,0.09-0.38,0.09C33.16,45.24,32.87,45.08,32.72,44.79z M32.72,49.78c-0.21-0.41-0.05-0.92,0.36-1.13
			l10.4-5.33c0.41-0.21,0.92-0.05,1.13,0.36c0.21,0.41,0.05,0.92-0.36,1.13l-10.41,5.33c-0.12,0.06-0.25,0.09-0.38,0.09
			C33.16,50.24,32.87,50.07,32.72,49.78z M16.21,33.66l0.18,8.82l-0.62-0.22l-0.18-8.82L16.21,33.66z M23.37,36.21l0.18,8.82
			l-0.62-0.22l-0.18-8.81L23.37,36.21z M17.37,34.07l0.18,8.82l-0.31-0.11l-0.18-8.82L17.37,34.07z M23.93,36.41l0.18,8.82
			l-0.31-0.11l-0.18-8.82L23.93,36.41z M22.09,35.75l0.18,8.81l-0.31-0.11l-0.18-8.82L22.09,35.75z M20.57,35.21l0.18,8.82
			l-0.31-0.11l-0.18-8.82L20.57,35.21z M18.75,34.57l0.18,8.82l-0.62-0.22l-0.18-8.82L18.75,34.57z M21.44,35.52l0.18,8.82
			l-0.62-0.22l-0.18-8.82L21.44,35.52z M19.26,34.74l0.18,8.82l-0.31-0.11l-0.18-8.82L19.26,34.74z M24.75,36.7l0.18,8.82
			l-0.31-0.11l-0.18-8.82L24.75,36.7z M26.14,37.2l0.18,8.81L25.7,45.8l-0.18-8.82L26.14,37.2z M26.65,37.38l0.18,8.82l-0.31-0.11
			l-0.18-8.81L26.65,37.38z"/>
	</g>
</g>
</svg>
