<?xml version="1.0" encoding="utf-8"?>
<!-- Generator: Adobe Illustrator 24.1.1, SVG Export Plug-In . SVG Version: 6.00 Build 0)  -->
<svg version="1.1" id="Layer_1" xmlns="http://www.w3.org/2000/svg" xmlns:xlink="http://www.w3.org/1999/xlink" x="0px" y="0px"
	 viewBox="0 0 60 60" style="enable-background:new 0 0 60 60;" xml:space="preserve">
<style type="text/css">
	.st0{opacity:0.2;}
	.st1{opacity:0.25;}
	.st2{fill:#FFFFFF;}
	.st3{fill:none;stroke:#000000;stroke-width:0.5;stroke-linecap:round;stroke-linejoin:round;stroke-miterlimit:10;}
	.st4{stroke:#000000;stroke-width:0.25;stroke-miterlimit:10;}
	.st5{fill:#4D4D4D;}
	.st6{fill:none;stroke:#000000;stroke-width:1.25;stroke-linecap:round;stroke-miterlimit:10;}
</style>
<g>
	<g>
		<g>
			<g>
				<path d="M38.88,58.9C38.88,58.9,38.87,58.9,38.88,58.9H19.97c-0.16,0-0.3-0.07-0.4-0.2c-0.09-0.13-0.12-0.29-0.08-0.44
					l3.54-11.81c0.06-0.21,0.25-0.35,0.47-0.35h11.81c0.22,0,0.41,0.14,0.47,0.35l3.53,11.77c0.02,0.06,0.04,0.12,0.04,0.19
					C39.37,58.68,39.15,58.9,38.88,58.9z M20.63,57.92h17.58l-3.25-10.83H23.88L20.63,57.92z"/>
			</g>
			<circle cx="29.37" cy="41.98" r="1.29"/>
			<g>
				<path d="M44.78,58.9H14.06c-0.27,0-0.49-0.22-0.49-0.49c0-0.27,0.22-0.49,0.49-0.49h30.72c0.27,0,0.49,0.22,0.49,0.49
					C45.27,58.68,45.05,58.9,44.78,58.9z"/>
			</g>
			<g>
				<path d="M11.7,38.82H3.43c-0.27,0-0.49-0.22-0.49-0.49s0.22-0.49,0.49-0.49h8.27c0.27,0,0.49,0.22,0.49,0.49
					S11.97,38.82,11.7,38.82z"/>
			</g>
			<g>
				<path d="M56.6,38.82H16.95c-0.27,0-0.49-0.22-0.49-0.49s0.22-0.49,0.49-0.49H56.6c0.27,0,0.49,0.22,0.49,0.49
					S56.87,38.82,56.6,38.82z"/>
			</g>
			<g>
				<path d="M51.44,37.96c-0.27,0-0.49-0.22-0.49-0.49V12.09h-8.13c-0.27,0-0.49-0.22-0.49-0.49c0-0.27,0.22-0.49,0.49-0.49h8.62
					c0.27,0,0.49,0.22,0.49,0.49v25.87C51.94,37.74,51.71,37.96,51.44,37.96z"/>
			</g>
			<g>
				<path d="M8.33,37.96c-0.27,0-0.49-0.22-0.49-0.49V11.6c0-0.27,0.22-0.49,0.49-0.49h7.39c0.27,0,0.49,0.22,0.49,0.49
					c0,0.27-0.22,0.49-0.49,0.49h-6.9v25.37C8.82,37.74,8.6,37.96,8.33,37.96z"/>
			</g>
			<g>
				<path d="M14.49,55.21H3.4c-0.27,0-0.49-0.22-0.49-0.49s0.22-0.49,0.49-0.49h11.09c0.27,0,0.49,0.22,0.49,0.49
					S14.76,55.21,14.49,55.21z"/>
			</g>
			<g>
				<path d="M8.33,51.51H3.4c-0.27,0-0.49-0.22-0.49-0.49s0.22-0.49,0.49-0.49h4.93c0.27,0,0.49,0.22,0.49,0.49
					S8.6,51.51,8.33,51.51z"/>
			</g>
			<g>
				<path d="M56.37,55.21H45.28c-0.27,0-0.49-0.22-0.49-0.49s0.22-0.49,0.49-0.49h11.09c0.27,0,0.49,0.22,0.49,0.49
					S56.64,55.21,56.37,55.21z"/>
			</g>
			<g>
				<path d="M56.37,51.51h-3.7c-0.27,0-0.49-0.22-0.49-0.49s0.22-0.49,0.49-0.49h3.7c0.27,0,0.49,0.22,0.49,0.49
					S56.64,51.51,56.37,51.51z"/>
			</g>
			<g>
				<path d="M53.68,47.09H6.34c-1.88,0-3.41-1.53-3.41-3.41V9.34c0-1.88,1.53-3.41,3.41-3.41h6.91c0.27,0,0.49,0.22,0.49,0.49
					s-0.22,0.49-0.49,0.49H6.34C5.01,6.92,3.92,8,3.92,9.34v34.34c0,1.34,1.09,2.42,2.42,2.42h47.34c1.34,0,2.42-1.09,2.42-2.42
					V9.34c0-1.34-1.09-2.42-2.42-2.42h-5.93c-0.27,0-0.49-0.22-0.49-0.49s0.22-0.49,0.49-0.49h5.93c1.88,0,3.41,1.53,3.41,3.41
					v34.34C57.09,45.56,55.56,47.09,53.68,47.09z"/>
			</g>
			<rect x="12.03" y="32.54" width="2.46" height="2.46"/>
			<rect x="15.72" y="32.54" width="2.46" height="2.46"/>
			<rect x="19.42" y="32.54" width="2.46" height="2.46"/>
			<rect x="23.11" y="32.54" width="2.46" height="2.46"/>
			<rect x="26.81" y="32.54" width="2.46" height="2.46"/>
			<g>
				<path d="M25.55,25.64c-0.07,0-0.14-0.02-0.21-0.05l-11.06-5.23c-0.22-0.1-0.33-0.35-0.26-0.58L17.31,8
					c0.04-0.14,0.14-0.26,0.27-0.32l14.35-6.55c0.13-0.06,0.28-0.06,0.42,0L43.4,6.38c0.22,0.1,0.33,0.35,0.26,0.58l-3.3,11.78
					c-0.04,0.14-0.14,0.26-0.27,0.32L25.75,25.6C25.69,25.63,25.62,25.64,25.55,25.64z M15.08,19.65l10.47,4.96l13.94-6.36
					l3.12-11.16L32.13,2.13L18.2,8.49L15.08,19.65z"/>
			</g>
			<g>
				<path d="M25.55,25.64c-0.07,0-0.14-0.01-0.2-0.04c-0.25-0.11-0.36-0.4-0.25-0.65l4.93-11.02l1.63-12.4
					c0.04-0.27,0.28-0.46,0.55-0.42c0.27,0.04,0.46,0.28,0.42,0.55l-1.64,12.47c-0.01,0.05-0.02,0.09-0.04,0.14L26,25.35
					C25.91,25.54,25.73,25.64,25.55,25.64z"/>
			</g>
			<g>
				<path d="M39.13,19.48c-0.05,0-0.1-0.01-0.14-0.02l-13.55-4.12c-0.07-0.02-0.14-0.06-0.19-0.11l-7.39-6.96
					c-0.2-0.19-0.21-0.5-0.02-0.7c0.19-0.2,0.5-0.21,0.7-0.02l7.31,6.88l13.44,4.09c0.26,0.08,0.41,0.35,0.33,0.61
					C39.53,19.35,39.34,19.48,39.13,19.48z"/>
			</g>
			<g>
				<path d="M14.49,20.41c-0.15,0-0.29-0.07-0.39-0.19c-0.17-0.22-0.13-0.52,0.09-0.69l12.32-9.55c0.06-0.05,0.13-0.08,0.2-0.09
					l16.39-3.54c0.27-0.06,0.53,0.11,0.59,0.38c0.06,0.27-0.11,0.53-0.38,0.59l-16.28,3.52l-12.23,9.48
					C14.7,20.38,14.6,20.41,14.49,20.41z"/>
			</g>
			<g>
				<path d="M40,34.19c-0.24-0.04-0.41-0.25-0.41-0.48l0,0c0-0.03,0-0.05,0.01-0.08l0,0c0.04-0.27,0.3-0.45,0.57-0.41l0,0
					c0.24,0.04,0.41,0.25,0.41,0.48l0,0c0,0.03,0,0.05-0.01,0.08l0,0c-0.04,0.24-0.25,0.41-0.49,0.41l0,0
					C40.05,34.19,40.03,34.19,40,34.19z M42.76,33.5c-0.03-0.06-0.04-0.13-0.04-0.2l0,0c0-0.19,0.11-0.37,0.29-0.45l0,0
					c0.25-0.11,0.54,0,0.65,0.25l0,0c0.03,0.06,0.04,0.13,0.04,0.2l0,0c0,0.19-0.11,0.37-0.29,0.45l0,0
					c-0.06,0.03-0.13,0.04-0.2,0.04l0,0C43.02,33.8,42.84,33.69,42.76,33.5z M36.91,32.69c-0.11-0.1-0.16-0.23-0.16-0.36l0,0
					c0-0.12,0.04-0.24,0.13-0.33l0,0c0.18-0.2,0.5-0.21,0.7-0.03l0,0c0.11,0.1,0.16,0.23,0.16,0.37l0,0c0,0.12-0.04,0.24-0.13,0.33
					l0,0c-0.1,0.11-0.23,0.16-0.36,0.16l0,0C37.12,32.82,37,32.78,36.91,32.69z M45.35,31.67c-0.14-0.09-0.22-0.25-0.22-0.41l0,0
					c0-0.09,0.03-0.19,0.08-0.27l0,0c0.15-0.23,0.45-0.29,0.68-0.14l0,0c0.14,0.09,0.22,0.25,0.22,0.41l0,0
					c0,0.09-0.03,0.19-0.08,0.27l0,0l0,0l0,0c-0.09,0.14-0.25,0.22-0.41,0.22l0,0C45.52,31.75,45.43,31.72,45.35,31.67z
					 M35.13,29.75L35.13,29.75L35.13,29.75c-0.01-0.04-0.02-0.08-0.02-0.12l0,0c0-0.22,0.15-0.42,0.37-0.48l0,0
					c0.26-0.07,0.53,0.09,0.6,0.35h0c0.01,0.04,0.01,0.08,0.01,0.12l0,0c0,0.22-0.15,0.42-0.37,0.48l0,0
					c-0.04,0.01-0.08,0.02-0.12,0.02l0,0C35.39,30.11,35.19,29.97,35.13,29.75z M46.02,28.23L46.02,28.23
					c0-0.27,0.22-0.49,0.49-0.49l0,0c0.27,0,0.49,0.22,0.49,0.49l0,0l0,0l0,0c0,0.27-0.22,0.49-0.49,0.49l0,0
					C46.24,28.72,46.02,28.5,46.02,28.23z M35.56,26.93c-0.21-0.07-0.34-0.26-0.34-0.47l0,0c0-0.05,0.01-0.11,0.03-0.16l0,0
					c0.09-0.26,0.36-0.4,0.62-0.31l0,0c0.21,0.07,0.34,0.26,0.34,0.47l0,0c0,0.05-0.01,0.1-0.03,0.16l0,0
					c-0.07,0.21-0.26,0.34-0.47,0.34l0,0C35.66,26.96,35.61,26.95,35.56,26.93z M45.39,25.78L45.39,25.78
					c-0.04-0.08-0.06-0.16-0.06-0.24l0,0c0-0.17,0.09-0.34,0.25-0.43l0,0c0.24-0.13,0.54-0.05,0.67,0.19l0,0
					c0.04,0.08,0.06,0.16,0.06,0.24l0,0c0,0.17-0.09,0.34-0.25,0.43l0,0c-0.08,0.04-0.16,0.06-0.24,0.06l0,0
					C45.65,26.03,45.48,25.94,45.39,25.78z M37.15,24.19c-0.07-0.09-0.11-0.2-0.11-0.3l0,0c0-0.15,0.06-0.29,0.19-0.39l0,0
					c0.21-0.17,0.52-0.13,0.69,0.08l0,0c0.07,0.09,0.11,0.2,0.11,0.3l0,0c0,0.15-0.06,0.29-0.19,0.39l0,0
					c-0.09,0.07-0.2,0.11-0.31,0.11l0,0C37.39,24.38,37.24,24.31,37.15,24.19z M43.33,23.76c-0.17-0.09-0.26-0.26-0.26-0.44l0,0
					c0-0.08,0.02-0.16,0.06-0.23l0,0c0.13-0.24,0.43-0.33,0.67-0.2l0,0c0.17,0.09,0.26,0.26,0.26,0.44l0,0
					c0,0.08-0.02,0.16-0.06,0.23l0,0c-0.09,0.17-0.26,0.26-0.44,0.26l0,0C43.48,23.82,43.4,23.8,43.33,23.76z M39.97,22.76
					c0-0.01,0-0.03,0-0.04l0,0c0-0.25,0.19-0.47,0.45-0.49l0,0l0,0l0,0c0.27-0.02,0.51,0.17,0.54,0.45l0,0c0,0.01,0,0.03,0,0.04l0,0
					c0,0.25-0.19,0.47-0.45,0.49l0,0c-0.01,0-0.03,0-0.04,0l0,0C40.21,23.2,40,23.01,39.97,22.76z"/>
			</g>
		</g>
	</g>
</g>
</svg>
