<?xml version="1.0" encoding="utf-8"?>
<!-- Generator: Adobe Illustrator 24.1.1, SVG Export Plug-In . SVG Version: 6.00 Build 0)  -->
<svg version="1.1" id="Layer_1" xmlns="http://www.w3.org/2000/svg" xmlns:xlink="http://www.w3.org/1999/xlink" x="0px" y="0px"
	 viewBox="0 0 60 60" style="enable-background:new 0 0 60 60;" xml:space="preserve">
<style type="text/css">
	.st0{opacity:0.2;}
	.st1{opacity:0.25;}
	.st2{fill:#FFFFFF;}
	.st3{fill:none;stroke:#000000;stroke-width:0.5;stroke-linecap:round;stroke-linejoin:round;stroke-miterlimit:10;}
	.st4{stroke:#000000;stroke-width:0.25;stroke-miterlimit:10;}
	.st5{fill:#4D4D4D;}
	.st6{fill:none;stroke:#000000;stroke-width:1.25;stroke-linecap:round;stroke-miterlimit:10;}
</style>
<g>
	<g>
		<g>
			<path d="M18.86,42.32c-2.95-1.04-5.89-2.08-8.84-3.11c-0.33-0.12,0.24,0.95,0.27,0.19c0.01-0.44,0.02-0.88,0.04-1.32
				c0.04-1.62,0.09-3.24,0.13-4.86c0.18-6.74,0.36-13.48,0.53-20.21c-0.27,0.2-0.54,0.41-0.8,0.61c2.91,1.01,5.82,2.03,8.73,3.04
				c-0.55-0.19-0.4-0.92-0.42-0.06c-0.01,0.49-0.02,0.98-0.02,1.46c-0.03,1.66-0.05,3.32-0.08,4.98
				c-0.11,6.64-0.22,13.27-0.33,19.91c-0.01,0.82,1.26,0.82,1.27,0c0.15-8.96,0.29-17.92,0.44-26.87c0.01-0.3-0.2-0.52-0.47-0.61
				c-2.93-1.02-5.86-2.04-8.79-3.06c-0.4-0.14-0.79,0.22-0.8,0.61C9.47,21.91,9.24,30.83,9,39.74c-0.01,0.3,0.2,0.52,0.47,0.61
				c3.02,1.06,6.03,2.13,9.05,3.19C19.29,43.82,19.62,42.59,18.86,42.32z"/>
		</g>
	</g>
	<g>
		<g>
			<path d="M50.54,28.24c-5.67,1.95-11.33,3.9-17,5.85c0.27,0.2,0.54,0.41,0.8,0.61c0-2.76,0-5.51,0-8.27c0-1.83,0-3.66,0-5.48
				c0-0.51,0-1.02,0-1.53c0-0.95-0.13-0.08-0.34-0.01c5.55-1.93,11.09-3.87,16.64-5.8c-0.27-0.2-0.54-0.41-0.8-0.61
				c0.08,5.29,0.15,10.57,0.23,15.86c0.01,0.82,1.28,0.82,1.27,0c-0.08-5.29-0.15-10.57-0.23-15.86c-0.01-0.39-0.41-0.75-0.8-0.61
				c-5.59,1.95-11.18,3.9-16.77,5.85c-0.27,0.09-0.47,0.32-0.47,0.61c0,5.29,0,10.57,0,15.86c0,0.39,0.41,0.75,0.8,0.61
				c5.67-1.95,11.33-3.9,17-5.85C51.65,29.2,51.32,27.97,50.54,28.24z"/>
		</g>
	</g>
	<g>
		<g>
			<path d="M26.54,25.17c-1.58-0.58-3.15-1.17-4.73-1.75c0.16,0.2,0.31,0.41,0.47,0.61c0-2.35,0-4.7,0-7.05
				c-0.27,0.2-0.54,0.41-0.8,0.61c1.65,0.58,3.3,1.17,4.96,1.75c-0.16-0.2-0.31-0.41-0.47-0.61c-0.08,2.35-0.15,4.7-0.23,7.05
				c-0.03,0.82,1.24,0.82,1.27,0c0.08-2.35,0.15-4.7,0.23-7.05c0.01-0.3-0.2-0.52-0.47-0.61c-1.65-0.58-3.3-1.17-4.96-1.75
				c-0.39-0.14-0.8,0.22-0.8,0.61c0,2.35,0,4.7,0,7.05c0,0.3,0.2,0.51,0.47,0.61c1.58,0.58,3.15,1.17,4.73,1.75
				C26.97,26.68,27.3,25.45,26.54,25.17z"/>
		</g>
	</g>
	<g>
		<g>
			<path d="M26.54,35.01c-1.58-0.58-3.15-1.17-4.73-1.75c0.16,0.2,0.31,0.41,0.47,0.61c0-2.35,0-4.7,0-7.05
				c-0.27,0.2-0.54,0.41-0.8,0.61c1.58,0.58,3.15,1.17,4.73,1.75c-0.16-0.2-0.31-0.41-0.47-0.61c0,2.35,0,4.7,0,7.05
				c0,0.82,1.27,0.82,1.27,0c0-2.35,0-4.7,0-7.05c0-0.3-0.2-0.51-0.47-0.61c-1.58-0.58-3.15-1.17-4.73-1.75
				c-0.39-0.15-0.8,0.23-0.8,0.61c0,2.35,0,4.7,0,7.05c0,0.3,0.2,0.51,0.47,0.61c1.58,0.58,3.15,1.17,4.73,1.75
				C26.97,36.52,27.3,35.29,26.54,35.01z"/>
		</g>
	</g>
	<g>
		<g>
			<path d="M26.54,45.09c-1.63-0.59-3.26-1.18-4.89-1.77c0.16,0.2,0.31,0.41,0.47,0.61c0.06-2.34,0.11-4.68,0.17-7.03
				c-0.27,0.2-0.54,0.41-0.8,0.61c1.58,0.58,3.15,1.17,4.73,1.75c-0.16-0.2-0.31-0.41-0.47-0.61c0,2.35,0,4.7,0,7.05
				c0,0.82,1.27,0.82,1.27,0c0-2.35,0-4.7,0-7.05c0-0.3-0.2-0.51-0.47-0.61c-1.58-0.58-3.15-1.17-4.73-1.75
				c-0.4-0.15-0.8,0.23-0.8,0.61c-0.06,2.34-0.11,4.68-0.17,7.03c-0.01,0.3,0.2,0.52,0.47,0.61c1.63,0.59,3.26,1.18,4.89,1.77
				C26.97,46.59,27.3,45.36,26.54,45.09z"/>
		</g>
	</g>
	<g>
		<g>
			<path d="M33.88,39.44c5.59-1.95,11.18-3.9,16.77-5.85c0.77-0.27,0.44-1.5-0.34-1.23c-5.59,1.95-11.18,3.9-16.77,5.85
				C32.77,38.48,33.1,39.71,33.88,39.44L33.88,39.44z"/>
		</g>
	</g>
	<g>
		<g>
			<path d="M33.88,41.72c3.51-1.22,7.02-2.45,10.53-3.67c0.77-0.27,0.44-1.5-0.34-1.23c-3.51,1.22-7.02,2.45-10.53,3.67
				C32.77,40.76,33.1,41.99,33.88,41.72L33.88,41.72z"/>
		</g>
	</g>
	<g>
		<g>
			<path d="M33.88,44.96c5.59-1.95,11.18-3.9,16.77-5.85c0.77-0.27,0.44-1.5-0.34-1.23c-5.59,1.95-11.18,3.9-16.77,5.85
				C32.77,44.01,33.1,45.23,33.88,44.96L33.88,44.96z"/>
		</g>
	</g>
	<g>
		<g>
			<path d="M33.88,47.24c5.2-1.8,10.4-3.61,15.6-5.41c0.77-0.27,0.44-1.5-0.34-1.23c-5.2,1.8-10.4,3.61-15.6,5.41
				C32.77,46.28,33.1,47.51,33.88,47.24L33.88,47.24z"/>
		</g>
	</g>
	<g>
		<g>
			<path d="M54.16,42.77c-7.45,2.47-14.89,4.95-22.34,7.42c-0.55,0.18-1.09,0.36-1.64,0.55c-0.59,0.2,0.15,0.16-0.2,0.05
				c-1.32-0.43-2.65-0.85-3.97-1.28c-4.8-1.55-9.61-3.1-14.41-4.65c-1.58-0.51-3.16-1.02-4.74-1.53c-1.48-0.48-0.55,0.57-0.53-0.3
				c0.1-3.67,0.19-7.34,0.29-11.01c0.21-7.85,0.41-15.7,0.62-23.56c-0.27,0.2-0.54,0.41-0.8,0.61c3.99,1.34,7.98,2.69,11.98,4.03
				c2.68,0.9,5.37,1.81,8.05,2.71c0.99,0.33,2.39,1.13,3.46,1.13c1.08,0,2.49-0.82,3.49-1.16c2.7-0.93,5.4-1.86,8.11-2.79
				c4.02-1.38,8.04-2.77,12.06-4.15c-0.27-0.2-0.54-0.41-0.8-0.61c0.31,11.72,0.61,23.44,0.92,35.16c0.02,0.82,1.29,0.82,1.27,0
				c-0.31-11.72-0.61-23.44-0.92-35.16c-0.01-0.39-0.4-0.75-0.8-0.61c-7.82,2.69-15.64,5.38-23.46,8.07
				c0.45-0.16-0.04-0.11-0.46-0.25c-0.84-0.28-1.68-0.57-2.52-0.85c-2.68-0.9-5.37-1.81-8.05-2.71c-3.99-1.34-7.98-2.69-11.98-4.03
				c-0.4-0.14-0.79,0.22-0.8,0.61C5.65,20.17,5.35,31.89,5.04,43.61c-0.01,0.29,0.2,0.53,0.47,0.61c4.16,1.34,8.32,2.69,12.48,4.03
				c2.72,0.88,5.44,1.76,8.16,2.63c1.11,0.36,2.66,1.21,3.85,1.21c1.05,0,2.41-0.77,3.39-1.09c2.87-0.95,5.75-1.91,8.62-2.86
				c4.16-1.38,8.32-2.76,12.48-4.15C55.27,43.73,54.94,42.51,54.16,42.77z"/>
		</g>
	</g>
	<g>
		<g>
			<path d="M53.96,11.24c0.64-0.22,1.28-0.43,1.92-0.65c-0.27-0.2-0.54-0.41-0.8-0.61c0.3,11.29,0.59,22.58,0.89,33.86
				c0.01,0.43,0.02,0.85,0.03,1.28c-0.01-0.56,0.8-0.67,0.14-0.52c-0.41,0.1-0.83,0.2-1.24,0.29c-2.94,0.7-5.88,1.4-8.82,2.09
				c-5.41,1.28-10.83,2.57-16.24,3.85c-0.8,0.19-0.46,1.41,0.34,1.23c8.88-2.11,17.75-4.21,26.63-6.32
				c0.27-0.06,0.47-0.34,0.47-0.61c-0.31-11.72-0.61-23.44-0.92-35.16c-0.01-0.39-0.4-0.75-0.8-0.61c-0.64,0.22-1.28,0.43-1.92,0.65
				C52.85,10.28,53.18,11.5,53.96,11.24L53.96,11.24z"/>
		</g>
	</g>
	<g>
		<g>
			<path d="M30.17,50.85c-5.32-1.22-10.64-2.43-15.96-3.65c-3.02-0.69-6.03-1.38-9.05-2.07c-0.53-0.12-1.06-0.24-1.6-0.36
				c0.72,0.16,0.44,0.77,0.48-0.69c0.3-11.29,0.59-22.58,0.89-33.86c-0.27,0.2-0.54,0.41-0.8,0.61c0.67,0.22,1.35,0.45,2.02,0.67
				c0.78,0.26,1.11-0.97,0.34-1.23C5.81,10.04,5.13,9.82,4.46,9.6c-0.4-0.13-0.79,0.22-0.8,0.61C3.35,21.93,3.04,33.65,2.73,45.37
				c-0.01,0.27,0.2,0.55,0.47,0.61c8.88,2.03,17.75,4.06,26.63,6.09C30.63,52.26,30.97,51.03,30.17,50.85L30.17,50.85z"/>
		</g>
	</g>
	<g>
		<g>
			<path d="M56.36,14.04c0.64-0.21,1.27-0.43,1.91-0.64c-0.4-0.31-0.8-0.61-1.21-0.92c0.31,11.72,0.62,23.44,0.92,35.16
				c0.32-0.32,0.64-0.64,0.95-0.95c-9.6,1.28-19.2,2.55-28.81,3.83c-1.2,0.16-1.22,2.07,0,1.91c9.6-1.28,19.2-2.55,28.81-3.83
				c0.5-0.07,0.97-0.38,0.95-0.95c-0.31-11.72-0.62-23.44-0.92-35.16c-0.02-0.59-0.6-1.12-1.21-0.92c-0.64,0.21-1.27,0.43-1.91,0.64
				C54.7,12.59,55.19,14.43,56.36,14.04L56.36,14.04z"/>
		</g>
	</g>
	<g>
		<g>
			<path d="M30,50.51c-9.65-1.2-19.29-2.4-28.94-3.6c0.32,0.32,0.64,0.64,0.95,0.95C2.32,36.14,2.63,24.42,2.94,12.7
				c-0.4,0.31-0.8,0.61-1.21,0.92c0.62,0.2,1.24,0.41,1.86,0.61c1.17,0.39,1.67-1.46,0.51-1.84c-0.62-0.2-1.24-0.41-1.86-0.61
				c-0.61-0.2-1.19,0.33-1.21,0.92C0.72,24.42,0.42,36.14,0.11,47.86c-0.01,0.57,0.45,0.89,0.95,0.95c9.65,1.2,19.29,2.4,28.94,3.6
				C31.22,52.57,31.2,50.66,30,50.51L30,50.51z"/>
		</g>
	</g>
	<g>
		<g>
			<path d="M29.36,16.47c0,11.51,0,23.02,0,34.53c0,0.82,1.27,0.82,1.27,0c0-11.51,0-23.02,0-34.53
				C30.64,15.65,29.36,15.65,29.36,16.47L29.36,16.47z"/>
		</g>
	</g>
	<g>
		<g>
			<path d="M11.97,17.08c1.56,0.54,3.12,1.09,4.69,1.63c0.78,0.27,1.11-0.96,0.34-1.23c-1.56-0.54-3.12-1.09-4.69-1.63
				C11.53,15.58,11.2,16.81,11.97,17.08L11.97,17.08z"/>
		</g>
	</g>
	<g>
		<g>
			<path d="M11.97,19.51c0.6,0.21,1.21,0.42,1.81,0.63c0.78,0.27,1.11-0.96,0.34-1.23c-0.6-0.21-1.21-0.42-1.81-0.63
				C11.53,18.01,11.2,19.24,11.97,19.51L11.97,19.51z"/>
		</g>
	</g>
	<g>
		<g>
			<path d="M11.97,23.38c1.56,0.54,3.12,1.09,4.69,1.63c0.78,0.27,1.11-0.96,0.34-1.23c-1.56-0.54-3.12-1.09-4.69-1.63
				C11.53,21.88,11.2,23.11,11.97,23.38L11.97,23.38z"/>
		</g>
	</g>
	<g>
		<g>
			<path d="M11.97,25.81c0.98,0.34,1.97,0.69,2.95,1.03c0.78,0.27,1.11-0.96,0.34-1.23c-0.98-0.34-1.97-0.69-2.95-1.03
				C11.53,24.31,11.2,25.54,11.97,25.81L11.97,25.81z"/>
		</g>
	</g>
	<g>
		<g>
			<path d="M11.97,29.68c1.56,0.54,3.12,1.09,4.69,1.63c0.78,0.27,1.11-0.96,0.34-1.23c-1.56-0.54-3.12-1.09-4.69-1.63
				C11.53,28.18,11.2,29.41,11.97,29.68L11.97,29.68z"/>
		</g>
	</g>
	<g>
		<g>
			<path d="M11.97,32.11c1.21,0.42,2.41,0.84,3.62,1.26c0.78,0.27,1.11-0.96,0.34-1.23c-1.21-0.42-2.41-0.84-3.62-1.26
				C11.53,30.61,11.2,31.84,11.97,32.11L11.97,32.11z"/>
		</g>
	</g>
	<g>
		<g>
			<path d="M11.97,35.98c1.56,0.54,3.12,1.09,4.69,1.63c0.78,0.27,1.11-0.96,0.34-1.23c-1.56-0.54-3.12-1.09-4.69-1.63
				C11.53,34.48,11.2,35.71,11.97,35.98L11.97,35.98z"/>
		</g>
	</g>
	<g>
		<g>
			<path d="M11.97,38.4c0.78,0.27,1.56,0.54,2.34,0.82c0.78,0.27,1.11-0.96,0.34-1.23c-0.78-0.27-1.56-0.54-2.34-0.82
				C11.53,36.91,11.2,38.14,11.97,38.4L11.97,38.4z"/>
		</g>
	</g>
</g>
</svg>
