<?xml version="1.0" encoding="utf-8"?>
<!-- Generator: Adobe Illustrator 24.1.1, SVG Export Plug-In . SVG Version: 6.00 Build 0)  -->
<svg version="1.1" id="Layer_1" xmlns="http://www.w3.org/2000/svg" xmlns:xlink="http://www.w3.org/1999/xlink" x="0px" y="0px"
	 viewBox="0 0 60 60" style="enable-background:new 0 0 60 60;" xml:space="preserve">
<style type="text/css">
	.st0{opacity:0.2;}
	.st1{opacity:0.25;}
	.st2{fill:#FFFFFF;}
	.st3{fill:none;stroke:#000000;stroke-width:0.5;stroke-linecap:round;stroke-linejoin:round;stroke-miterlimit:10;}
	.st4{stroke:#000000;stroke-width:0.25;stroke-miterlimit:10;}
	.st5{fill:#4D4D4D;}
	.st6{fill:none;stroke:#000000;stroke-width:1.25;stroke-linecap:round;stroke-miterlimit:10;}
</style>
<g>
	<path d="M58.68,50.96h-2.71V25.74c0-2.39-1.87-4.44-4.3-4.63h-3.7v0.94h3.7c1.92,0.14,3.42,1.78,3.42,3.7v25.22h-1.87V25.74
		c0-0.94-0.7-1.73-1.59-1.82h-0.05h-3.56v0.94h3.56c0.42,0.09,0.75,0.47,0.75,0.94v25.22H7.78V25.74c0-0.47,0.33-0.84,0.75-0.94
		h3.51v-0.94H8.48H8.43c-0.89,0.14-1.59,0.94-1.59,1.82v25.22H4.97V25.74c0-1.92,1.5-3.56,3.37-3.7h3.7v-0.94H8.29
		c-2.39,0.19-4.26,2.25-4.26,4.63v25.22c-1.97,0.14-3.18-0.33-3.18,0.47c0,3.51,2.85,6.41,6.41,6.41h45.48
		c3.51,0,6.41-2.85,6.41-6.41C59.15,51.15,58.91,50.96,58.68,50.96z M52.74,56.9H7.26c-2.85,0-5.19-2.2-5.43-5.01
		c13.01,0,47.25,0,56.38,0C57.93,54.66,55.59,56.9,52.74,56.9z"/>
	<path d="M9.41,52.78c-0.89,0-1.64,0.7-1.64,1.64c0,0.89,0.7,1.64,1.64,1.64c0.89,0,1.64-0.7,1.64-1.64
		C11.05,53.49,10.3,52.78,9.41,52.78z M9.41,55.08c-0.37,0-0.7-0.33-0.7-0.7c0-0.37,0.33-0.7,0.7-0.7s0.7,0.33,0.7,0.7
		C10.12,54.75,9.79,55.08,9.41,55.08z"/>
	<path d="M14.05,52.78c-0.89,0-1.64,0.7-1.64,1.64c0,0.89,0.7,1.64,1.64,1.64c0.94,0,1.64-0.7,1.64-1.64
		C15.68,53.49,14.93,52.78,14.05,52.78z M14.05,55.08c-0.37,0-0.7-0.33-0.7-0.7c0-0.37,0.33-0.7,0.7-0.7s0.7,0.33,0.7,0.7
		C14.75,54.75,14.42,55.08,14.05,55.08z"/>
	<path d="M18.68,52.78c-0.89,0-1.64,0.7-1.64,1.64c0,0.89,0.7,1.64,1.64,1.64s1.64-0.7,1.64-1.64
		C20.32,53.49,19.57,52.78,18.68,52.78z M18.68,55.08c-0.37,0-0.7-0.33-0.7-0.7c0-0.37,0.33-0.7,0.7-0.7s0.7,0.33,0.7,0.7
		C19.38,54.75,19.05,55.08,18.68,55.08z"/>
	<path d="M14.84,37.35h19.37h10.9c0.8,0,1.4-0.61,1.4-1.4c0-6.78,0-25.73,0-32.38c0-0.8-0.61-1.4-1.4-1.4H14.84
		c-0.8,0-1.4,0.61-1.4,1.4c0,6.64,0,25.59,0,32.38C13.44,36.74,14.09,37.35,14.84,37.35z M14.37,35.94V9.04h19.37v27.37h-18.9
		C14.61,36.41,14.37,36.22,14.37,35.94z M45.63,35.94c0,0.28-0.19,0.47-0.47,0.47H34.68V9.04h10.9v26.9H45.63z M14.37,3.57
		c0-0.28,0.19-0.47,0.47-0.47h30.27c0.28,0,0.47,0.19,0.47,0.47V8.1c-4.87,0-29.05,0-31.21,0V3.57z"/>
	<path d="M17.55,3.75c-1.03,0-1.87,0.84-1.87,1.87s0.84,1.87,1.87,1.87s1.87-0.84,1.87-1.87S18.58,3.75,17.55,3.75z M17.55,6.56
		c-0.51,0-0.94-0.42-0.94-0.94s0.42-0.94,0.94-0.94s0.94,0.42,0.94,0.94S18.07,6.56,17.55,6.56z"/>
	<path d="M22.61,3.75c-1.03,0-1.87,0.84-1.87,1.87s0.84,1.87,1.87,1.87s1.87-0.84,1.87-1.87S23.64,3.75,22.61,3.75z M22.61,6.56
		c-0.51,0-0.94-0.42-0.94-0.94s0.42-0.94,0.94-0.94c0.51,0,0.94,0.42,0.94,0.94S23.12,6.56,22.61,6.56z"/>
	<path d="M27.61,3.75c-1.03,0-1.87,0.84-1.87,1.87s0.84,1.87,1.87,1.87s1.87-0.84,1.87-1.87S28.64,3.75,27.61,3.75z M27.61,6.56
		c-0.51,0-0.94-0.42-0.94-0.94s0.42-0.94,0.94-0.94c0.51,0,0.94,0.42,0.94,0.94S28.13,6.56,27.61,6.56z"/>
	<path d="M32.06,17.23h-1.08c-0.23-3.32-3.04-5.99-6.41-5.99c-3.42,0-6.18,2.62-6.41,5.99h-1.08c-0.89,0-0.28,0.75-0.47,16.14
		c0,0.28,0.19,0.47,0.47,0.47h14.97c0.28,0,0.47-0.19,0.47-0.47V17.7C32.53,17.46,32.34,17.23,32.06,17.23z M24.57,12.17
		c3.04,0,5.52,2.48,5.52,5.52s-2.48,5.52-5.52,5.52s-5.52-2.48-5.52-5.52S21.53,12.17,24.57,12.17z M18.16,18.16
		c0.23,3.28,2.99,5.99,6.41,5.99c3.37,0,6.18-2.62,6.41-5.99h0.61v8.61H17.55v-8.61H18.16z M17.55,32.9v-5.19h14.04v5.19H17.55z"/>
	<path d="M22.33,20.64c0.09,0.05,0.14,0.05,0.23,0.05c0.09,0,0.14,0,0.19-0.05l5.1-2.57c0.14-0.09,0.28-0.23,0.28-0.42
		c0-0.19-0.09-0.33-0.28-0.42l-5.1-2.57c-0.14-0.09-0.33-0.05-0.47,0c-0.14,0.09-0.23,0.23-0.23,0.42v5.1
		C22.14,20.41,22.19,20.55,22.33,20.64z M23.08,15.92l3.6,1.78l-3.6,1.78V15.92z"/>
	<path d="M24.57,28.69c-0.84,0-1.5,0.56-1.73,1.31h-3.51v0.94h3.51c0.19,0.75,0.89,1.31,1.73,1.31c0.84,0,1.5-0.56,1.73-1.31h3.51
		V30H26.3C26.12,29.25,25.41,28.69,24.57,28.69z M24.57,31.36c-0.47,0-0.84-0.37-0.84-0.84c0-0.47,0.37-0.84,0.84-0.84
		c0.47,0,0.84,0.37,0.84,0.84C25.41,30.98,25.04,31.36,24.57,31.36z"/>
	<path d="M36.69,17.13h6.92c0.28,0,0.47-0.19,0.47-0.47v-6.22c0-0.28-0.19-0.47-0.47-0.47h-6.92c-0.28,0-0.47,0.19-0.47,0.47v6.22
		C36.22,16.9,36.46,17.13,36.69,17.13z M37.16,10.91h5.99v5.29h-5.99V10.91z"/>
	<path d="M36.69,26.3h6.92c0.28,0,0.47-0.19,0.47-0.47v-6.22c0-0.28-0.19-0.47-0.47-0.47h-6.92c-0.28,0-0.47,0.19-0.47,0.47v6.22
		C36.22,26.12,36.46,26.3,36.69,26.3z M37.16,20.08h5.99v5.29h-5.99V20.08z"/>
	<path d="M36.69,35.47h6.92c0.28,0,0.47-0.19,0.47-0.47v-6.22c0-0.28-0.19-0.47-0.47-0.47h-6.92c-0.28,0-0.47,0.19-0.47,0.47v6.22
		C36.22,35.29,36.46,35.47,36.69,35.47z M37.16,29.25h5.99v5.29h-5.99V29.25z"/>
</g>
</svg>
