<?xml version="1.0" encoding="utf-8"?>
<!-- Generator: Adobe Illustrator 24.1.1, SVG Export Plug-In . SVG Version: 6.00 Build 0)  -->
<svg version="1.1" id="Layer_1" xmlns="http://www.w3.org/2000/svg" xmlns:xlink="http://www.w3.org/1999/xlink" x="0px" y="0px"
	 viewBox="0 0 60 60" style="enable-background:new 0 0 60 60;" xml:space="preserve">
<style type="text/css">
	.st0{opacity:0.2;}
	.st1{opacity:0.25;}
	.st2{fill:#FFFFFF;}
	.st3{fill:none;stroke:#000000;stroke-width:0.5;stroke-linecap:round;stroke-linejoin:round;stroke-miterlimit:10;}
	.st4{stroke:#000000;stroke-width:0.25;stroke-miterlimit:10;}
	.st5{fill:#4D4D4D;}
	.st6{fill:none;stroke:#000000;stroke-width:1.25;stroke-linecap:round;stroke-miterlimit:10;}
</style>
<g>
	<path d="M30.03,14.29l14.44,6.12c-5.66,2.43-9.24,3.93-14.44,6.12c-4.74-2.08-9.7-4.16-14.44-6.12L30.03,14.29z M13.86,22.15
		c2.31,1.04,11.09,4.74,15.01,6.47c0,6.12,0,14.67,0,16.63l-15.01-6.47V22.15z M31.18,45.25c0-1.62,0-15.13,0-16.63l15.01-6.47
		v16.63L31.18,45.25z"/>
	<path d="M57.17,44.55l-1.73-1.04V16.49l1.73-1.04c0.58-0.35,0.69-1.04,0.35-1.62s-1.04-0.69-1.62-0.35l-1.85,1.15L31.18,4.82V2.28
		c0-0.69-0.46-1.15-1.15-1.15s-1.15,0.46-1.15,1.15v2.54l-22.98,9.7l-1.85-1.15c-0.58-0.35-1.27-0.12-1.62,0.46
		s-0.12,1.27,0.35,1.62l1.85,1.04v27.03l-1.85,1.04c-0.46,0.35-0.58,1.04-0.35,1.62c0.35,0.58,1.04,0.69,1.62,0.35l1.85-1.15
		l22.98,9.82v2.54c0,0.69,0.46,1.15,1.15,1.15s1.15-0.46,1.15-1.15v-2.54l22.98-9.7l1.85,1.15c0.58,0.35,1.27,0.12,1.62-0.35
		C57.86,45.59,57.75,44.9,57.17,44.55z M31.18,52.64v-1.62c0-0.69-0.46-1.15-1.15-1.15s-1.15,0.46-1.15,1.15v1.62L8.31,43.97
		l1.5-0.92c1.27-0.81,0.12-2.77-1.15-1.96l-1.73,1.04V17.87l1.62,1.04c0.81,0.35,1.85-0.12,1.85-1.04c0-0.46-0.23-0.81-0.58-1.04
		l-1.39-0.81l20.44-8.66v1.62c0,0.69,0.46,1.15,1.15,1.15s1.15-0.46,1.15-1.15V7.36l20.56,8.66l-1.39,0.81
		c-0.58,0.35-0.69,1.04-0.35,1.62s1.04,0.69,1.62,0.35l1.62-1.04v24.37l-1.62-1.04c-0.58-0.35-1.27-0.12-1.62,0.35
		c-0.35,0.58-0.12,1.27,0.35,1.62l1.39,0.81L31.18,52.64z"/>
</g>
</svg>
