<?xml version="1.0" encoding="utf-8"?>
<!-- Generator: Adobe Illustrator 24.1.1, SVG Export Plug-In . SVG Version: 6.00 Build 0)  -->
<svg version="1.1" id="Layer_1" xmlns="http://www.w3.org/2000/svg" xmlns:xlink="http://www.w3.org/1999/xlink" x="0px" y="0px"
	 viewBox="0 0 60 60" style="enable-background:new 0 0 60 60;" xml:space="preserve">
<style type="text/css">
	.st0{opacity:0.2;}
	.st1{opacity:0.25;}
	.st2{fill:#FFFFFF;}
	.st3{fill:none;stroke:#000000;stroke-width:0.5;stroke-linecap:round;stroke-linejoin:round;stroke-miterlimit:10;}
	.st4{stroke:#000000;stroke-width:0.25;stroke-miterlimit:10;}
	.st5{fill:#4D4D4D;}
	.st6{fill:none;stroke:#000000;stroke-width:1.25;stroke-linecap:round;stroke-miterlimit:10;}
</style>
<g>
	<path d="M13.38,20.35l-0.93-0.05c-0.01,0.16-0.01,0.33-0.01,0.49h-1.82v4.55h4.55v-4.55h-1.8C13.37,20.65,13.37,20.5,13.38,20.35z
		 M14.24,21.72v2.69h-2.69v-2.69H14.24z"/>
	<path d="M12.64,18.55l0.92,0.14c0.09-0.55,0.2-1.1,0.34-1.63l-0.9-0.23C12.85,17.39,12.73,17.97,12.64,18.55z"/>
	<path d="M21.35,5.96c-0.51,0.29-1.01,0.6-1.49,0.94l0.54,0.76c0.45-0.32,0.93-0.62,1.41-0.89L21.35,5.96z"/>
	<path d="M17.22,9.21l0.68,0.64c0.38-0.4,0.79-0.79,1.2-1.15l-0.61-0.7C18.04,8.37,17.62,8.78,17.22,9.21z"/>
	<path d="M24.57,4.54c-0.56,0.18-1.11,0.39-1.64,0.63l0.37,0.85c0.5-0.22,1.03-0.42,1.56-0.59L24.57,4.54z"/>
	<path d="M15.07,11.99l0.79,0.49c0.29-0.47,0.61-0.93,0.95-1.37l-0.74-0.57C15.72,11.01,15.38,11.49,15.07,11.99z"/>
	<path d="M15.05,13.94l-0.83-0.41c-0.26,0.53-0.49,1.07-0.7,1.62l0.87,0.32C14.58,14.95,14.81,14.44,15.05,13.94z"/>
	<path d="M51.45,1.46c-1.13,0-2.08,0.81-2.29,1.88H33.18V0.63h-6.35v2.71H10.84c-0.22-1.07-1.16-1.88-2.3-1.88
		c-1.29,0-2.34,1.05-2.34,2.34s1.05,2.34,2.34,2.34c1.13,0,2.08-0.81,2.3-1.88h15.47l0.16,0.72c0.12-0.03,0.23-0.04,0.35-0.07v2.06
		h2.71v0.43l-8.18,18.08l5.38,4.02l-0.68,12.57v17.29h7.88l0-17.32l-0.68-12.55l5.38-4.02L30.46,7.41V6.98h2.71V4.93
		c0.12,0.02,0.24,0.04,0.35,0.07l0.16-0.72h15.48c0.22,1.07,1.16,1.88,2.29,1.88c1.29,0,2.34-1.05,2.34-2.34S52.74,1.46,51.45,1.46z
		 M8.55,5.22c-0.78,0-1.41-0.63-1.41-1.41s0.63-1.41,1.41-1.41s1.41,0.63,1.41,1.41S9.33,5.22,8.55,5.22z M30,19.54
		c0.48,0,0.87,0.39,0.87,0.87c0,0.48-0.39,0.87-0.87,0.87c-0.48,0-0.87-0.39-0.87-0.87C29.13,19.93,29.52,19.54,30,19.54z
		 M37.49,25.2l-5.19,3.87l0.71,13.02v16.36h-6.03l0-16.34l0.71-13.04l-5.19-3.87l7.02-15.53v9.01c-0.77,0.21-1.34,0.9-1.34,1.73
		c0,0.99,0.81,1.8,1.8,1.8s1.8-0.81,1.8-1.8c0-0.83-0.57-1.53-1.34-1.73V9.67L37.49,25.2z M32.25,6.05h-4.5V1.56h4.5V6.05z
		 M51.45,5.22c-0.78,0-1.41-0.63-1.41-1.41s0.63-1.41,1.41-1.41s1.41,0.63,1.41,1.41S52.23,5.22,51.45,5.22z"/>
	<path d="M47.54,20.3l-0.93,0.05c0.01,0.15,0.01,0.29,0.01,0.44h-1.79v4.55h4.54v-4.54h-1.82C47.55,20.63,47.55,20.47,47.54,20.3z
		 M48.45,24.41h-2.69v-2.69h2.69V24.41z"/>
	<path d="M43.93,10.54l-0.74,0.57c0.34,0.44,0.66,0.9,0.95,1.37l0.79-0.49C44.62,11.49,44.28,11.01,43.93,10.54z"/>
	<path d="M44.95,13.94c0.24,0.5,0.47,1.01,0.66,1.53l0.87-0.32c-0.2-0.55-0.44-1.09-0.7-1.62L44.95,13.94z"/>
	<path d="M47.36,18.55c-0.09-0.58-0.21-1.16-0.36-1.72l-0.9,0.23c0.14,0.53,0.25,1.08,0.34,1.63L47.36,18.55z"/>
	<path d="M36.7,6.02l0.37-0.85c-0.53-0.23-1.09-0.45-1.64-0.63l-0.29,0.88C35.67,5.6,36.19,5.8,36.7,6.02z"/>
	<path d="M41.51,7.99l-0.61,0.7c0.42,0.36,0.82,0.75,1.2,1.15l0.68-0.64C42.38,8.78,41.96,8.37,41.51,7.99z"/>
	<path d="M38.19,6.77c0.48,0.27,0.95,0.57,1.41,0.89l0.54-0.76c-0.48-0.34-0.98-0.66-1.49-0.94L38.19,6.77z"/>
</g>
</svg>
