<svg width="105" height="98" viewBox="0 0 105 98" fill="none" xmlns="http://www.w3.org/2000/svg">
<path d="M87.7046 77.3286H35.4547C35.281 77.3286 35.1073 77.2582 34.9857 77.135L15.7741 57.6709C15.6525 57.5477 15.583 57.3718 15.583 57.1958V21.9105C15.583 21.629 15.7393 21.3826 15.9999 21.277C16.2431 21.1714 16.5384 21.2242 16.7294 21.4178L29.375 34.2296L38.0081 38.506L33.8913 29.9883C33.7871 29.9531 33.7003 29.9003 33.6308 29.8299L22.9133 18.9716C22.7222 18.778 22.6701 18.4788 22.7743 18.2324C22.8785 17.986 23.1217 17.8101 23.3997 17.8101H87.722C88.0868 17.8101 88.3994 18.1092 88.3994 18.4964V76.6598C88.3821 77.0294 88.0868 77.3286 87.7046 77.3286ZM35.7326 75.9735H87.0445V19.1828H25.0151L34.3951 28.686C34.6209 28.7036 34.8293 28.8444 34.9336 29.0556L40.0752 39.6851C40.1968 39.9491 40.1447 40.2659 39.9536 40.4595C39.7451 40.6707 39.4498 40.7235 39.1893 40.5827L28.8366 35.4439H28.7671C28.4197 35.4439 28.1244 35.1623 28.107 34.8279L16.9205 23.5472V56.9142L35.7326 75.9735Z" fill="#8A8A8A"/>
<path d="M48.1876 90.2285C48.1702 90.2285 48.1702 90.2285 48.1528 90.2285L6.16874 88.4158C5.82133 88.3982 5.54341 88.1166 5.52604 87.7647L3.51108 45C3.49371 44.7184 3.65004 44.4545 3.91059 44.3489C4.17115 44.2433 4.46645 44.2961 4.65752 44.4897L48.6044 89.0142C48.7608 89.1373 48.8476 89.3309 48.8476 89.5421C48.865 89.9293 48.5697 90.2285 48.1876 90.2285ZM6.84618 87.0959L46.5026 88.803L4.95281 46.7071L6.84618 87.0959Z" fill="#8A8A8A"/>
<path d="M29.6524 80.268C29.6351 80.268 29.6351 80.268 29.6177 80.268L14.8703 79.5816C14.5229 79.564 14.245 79.2825 14.2276 78.9305L13.5501 63.9893C13.5328 63.7077 13.6891 63.4437 13.9497 63.3381C14.2102 63.2325 14.5055 63.2853 14.6966 63.4789L30.0693 79.0537C30.2256 79.1769 30.3125 79.3705 30.3125 79.5816C30.3299 79.9688 30.0172 80.268 29.6524 80.268ZM15.5477 78.2618L27.9501 78.8249L14.9919 65.6963L15.5477 78.2618Z" fill="#8A8A8A"/>
<path d="M103.338 85.9335H91.2829C90.9181 85.9335 90.6055 85.6343 90.6055 85.2471V36.3758C90.6055 36.0062 90.9008 35.6895 91.2829 35.6895H103.338C103.703 35.6895 104.015 35.9886 104.015 36.3758V85.2471C104.015 85.6343 103.72 85.9335 103.338 85.9335ZM91.9604 84.5784H102.678V37.0621H91.9604V84.5784Z" fill="#8A8A8A"/>
<path d="M103.338 41.1286H95.9733C95.6086 41.1286 95.2959 40.8294 95.2959 40.4422C95.2959 40.055 95.5912 39.7559 95.9733 39.7559H103.338C103.703 39.7559 104.016 40.055 104.016 40.4422C104.016 40.8294 103.72 41.1286 103.338 41.1286Z" fill="#8A8A8A"/>
<path d="M103.339 45.2111H98.2146C97.8498 45.2111 97.5371 44.9119 97.5371 44.5247C97.5371 44.1552 97.8324 43.8384 98.2146 43.8384H103.356C103.721 43.8384 104.034 44.1376 104.034 44.5247C104.016 44.8943 103.721 45.2111 103.339 45.2111Z" fill="#8A8A8A"/>
<path d="M103.338 49.2765H95.9733C95.6086 49.2765 95.2959 48.9773 95.2959 48.5902C95.2959 48.2206 95.5912 47.9038 95.9733 47.9038H103.338C103.703 47.9038 104.016 48.203 104.016 48.5902C104.016 48.9773 103.72 49.2765 103.338 49.2765Z" fill="#8A8A8A"/>
<path d="M103.339 53.1295H98.2146C97.8498 53.1295 97.5371 52.8304 97.5371 52.4432C97.5371 52.0736 97.8324 51.7568 98.2146 51.7568H103.356C103.721 51.7568 104.034 52.056 104.034 52.4432C104.016 52.8128 103.721 53.1295 103.339 53.1295Z" fill="#8A8A8A"/>
<path d="M103.338 57.196H95.9733C95.6086 57.196 95.2959 56.8968 95.2959 56.5096C95.2959 56.14 95.5912 55.8232 95.9733 55.8232H103.338C103.703 55.8232 104.016 56.1224 104.016 56.5096C104.016 56.8968 103.72 57.196 103.338 57.196Z" fill="#8A8A8A"/>
<path d="M103.339 61.2599H98.2146C97.8498 61.2599 97.5371 60.9607 97.5371 60.5736C97.5371 60.204 97.8324 59.8872 98.2146 59.8872H103.356C103.721 59.8872 104.034 60.1864 104.034 60.5736C104.016 60.9607 103.721 61.2599 103.339 61.2599Z" fill="#8A8A8A"/>
<path d="M103.338 65.3439H95.9733C95.6086 65.3439 95.2959 65.0447 95.2959 64.6575C95.2959 64.2704 95.5912 63.9712 95.9733 63.9712H103.338C103.703 63.9712 104.016 64.2704 104.016 64.6575C104.016 65.0447 103.72 65.3439 103.338 65.3439Z" fill="#8A8A8A"/>
<path d="M103.339 69.4093H98.2146C97.8498 69.4093 97.5371 69.1101 97.5371 68.723C97.5371 68.3534 97.8324 68.0366 98.2146 68.0366H103.356C103.721 68.0366 104.034 68.3358 104.034 68.723C104.016 69.1101 103.721 69.4093 103.339 69.4093Z" fill="#8A8A8A"/>
<path d="M103.338 73.4919H95.9733C95.6086 73.4919 95.2959 73.1927 95.2959 72.8055C95.2959 72.4359 95.5912 72.1191 95.9733 72.1191H103.338C103.703 72.1191 104.016 72.4183 104.016 72.8055C104.016 73.1751 103.72 73.4919 103.338 73.4919Z" fill="#8A8A8A"/>
<path d="M103.339 77.3278H98.2146C97.8498 77.3278 97.5371 77.0286 97.5371 76.6414C97.5371 76.2719 97.8324 75.9551 98.2146 75.9551H103.356C103.721 75.9551 104.034 76.2543 104.034 76.6414C104.016 77.0286 103.721 77.3278 103.339 77.3278Z" fill="#8A8A8A"/>
<path d="M103.338 81.4103H95.9733C95.6086 81.4103 95.2959 81.1111 95.2959 80.7239C95.2959 80.3368 95.5912 80.0376 95.9733 80.0376H103.338C103.703 80.0376 104.016 80.3368 104.016 80.7239C104.016 81.1111 103.72 81.4103 103.338 81.4103Z" fill="#8A8A8A"/>
<path d="M89.7191 93.8537H29.2009C28.8361 93.8537 28.5234 93.5545 28.5234 93.1673C28.5234 92.7977 28.8187 92.481 29.2009 92.481H89.7191C90.0839 92.481 90.3965 92.7801 90.3965 93.1673C90.3965 93.5369 90.0839 93.8537 89.7191 93.8537Z" fill="#8A8A8A"/>
<path d="M54.215 97.6901H12.4567C12.092 97.6901 11.7793 97.3909 11.7793 97.0037C11.7793 96.6342 12.0746 96.3174 12.4567 96.3174H54.215C54.5798 96.3174 54.8925 96.6166 54.8925 97.0037C54.8925 97.3909 54.5798 97.6901 54.215 97.6901Z" fill="#8A8A8A"/>
<path d="M8.21871 97.6901H2.85127C2.48649 97.6901 2.17383 97.3909 2.17383 97.0037C2.17383 96.6342 2.46912 96.3174 2.85127 96.3174H8.21871C8.58348 96.3174 8.89615 96.6166 8.89615 97.0037C8.87878 97.3909 8.58348 97.6901 8.21871 97.6901Z" fill="#8A8A8A"/>
<path d="M92.1866 97.4611H72.2976C71.9328 97.4611 71.6201 97.1619 71.6201 96.7747C71.6201 96.3876 71.9154 96.0884 72.2976 96.0884H92.1692C92.534 96.0884 92.8466 96.3876 92.8466 96.7747C92.8466 97.1619 92.5514 97.4611 92.1866 97.4611Z" fill="#8A8A8A"/>
<path d="M39.485 40.6874C39.3808 40.6874 39.2765 40.6698 39.1897 40.617L28.698 35.4078C28.6285 35.3726 28.5764 35.3374 28.5243 35.2846L4.83116 11.2977C4.5706 11.0337 4.5706 10.6114 4.83116 10.3298L10.1986 4.89183C10.4591 4.62785 10.876 4.62785 11.154 4.89183L34.8124 28.8963C34.8645 28.9491 34.9166 29.0019 34.934 29.0723L40.0408 39.6491C40.1103 39.7547 40.1451 39.8779 40.1451 40.0187C40.1451 40.3706 39.8498 40.6874 39.485 40.6874ZM29.3754 34.2287L38.0085 38.5052L33.7875 29.7587L10.6676 6.35252L6.25553 10.8226L29.3754 34.2287Z" fill="#8A8A8A"/>
<path d="M5.31815 11.4915C5.16182 11.4915 5.00548 11.4387 4.88389 11.3155L3.09475 9.73163C2.93841 9.62604 2.86893 9.45005 2.85156 9.25647C2.85156 9.06288 2.92104 8.8869 3.04264 8.74611L8.41007 3.32573C8.65325 3.07935 9.05277 3.06175 9.3307 3.29053L11.1198 4.87441C11.2588 4.9976 11.3457 5.17358 11.3457 5.36717C11.3457 5.56075 11.2762 5.73674 11.1546 5.87753L5.78715 11.2979C5.64819 11.4211 5.47448 11.4915 5.31815 11.4915ZM4.50174 9.20367L5.28341 9.89002L9.69547 5.41997L8.91381 4.73362L4.50174 9.20367Z" fill="#8A8A8A"/>
<path d="M3.52836 9.90802H3.51099C3.31991 9.90802 3.14621 9.82003 3.02462 9.67924L1.02703 7.44421C-0.345225 6.03632 -0.345225 3.59012 1.0444 2.19983L2.1561 1.05592C2.81617 0.387169 3.75417 0 4.74428 0C5.73439 0 6.68975 0.387169 7.33246 1.05592L7.34983 1.07352L9.36478 3.34374C9.62534 3.60772 9.60797 4.03008 9.36478 4.27646L3.99735 9.71444C3.87576 9.83763 3.70206 9.90802 3.52836 9.90802ZM4.74428 1.37269C4.10158 1.37269 3.51099 1.60147 3.0941 2.02384L1.9824 3.15015C1.11388 4.03008 1.11388 5.61396 1.9824 6.49389L1.99977 6.51149L3.54573 8.25375L7.95779 3.7837L6.39446 2.00624C5.97757 1.60147 5.38698 1.37269 4.74428 1.37269Z" fill="#8A8A8A"/>
<path d="M28.9761 35.4793C28.8023 35.4793 28.646 35.4089 28.5071 35.2857C28.2465 35.0218 28.2291 34.5994 28.4897 34.3178L33.6313 28.8799C33.8919 28.6159 34.3087 28.5983 34.5867 28.8623C34.8472 29.1262 34.8646 29.5486 34.604 29.8302L29.4624 35.2681C29.3408 35.4089 29.1498 35.4793 28.9761 35.4793Z" fill="#8A8A8A"/>
<path d="M32.3282 31.853C32.1545 31.853 31.9808 31.7826 31.8592 31.6594L8.40928 7.90126C8.14873 7.63728 8.14873 7.21491 8.40928 6.93334C8.66984 6.66936 9.08673 6.66936 9.36465 6.93334L32.8146 30.6915C33.0751 30.9555 33.0751 31.3778 32.8146 31.6594C32.6756 31.7826 32.5019 31.853 32.3282 31.853Z" fill="#8A8A8A"/>
<path d="M30.765 33.6657C30.5913 33.6657 30.4176 33.5953 30.296 33.4721L6.62022 9.48524C6.35967 9.22126 6.35967 8.7989 6.62022 8.51732C6.88078 8.25334 7.29766 8.25334 7.57559 8.51732L31.2513 32.5042C31.5119 32.7682 31.5119 33.1906 31.2513 33.4721C31.1124 33.5953 30.9387 33.6657 30.765 33.6657Z" fill="#8A8A8A"/>
<path d="M91.7348 29.6C91.37 29.6 91.0574 29.3008 91.0574 28.9136V15.1163H60.694C60.3293 15.1163 60.0166 14.8172 60.0166 14.43C60.0166 14.0604 60.3119 13.7437 60.694 13.7437H91.7348C92.0996 13.7437 92.4123 14.0428 92.4123 14.43V28.9136C92.3949 29.2832 92.0996 29.6 91.7348 29.6Z" fill="#8A8A8A"/>
<path d="M59.5817 62.6328C55.3955 62.6328 51.4698 60.9786 48.5342 57.9692C45.5813 54.9422 43.9658 50.8946 43.9658 46.5829C43.9658 37.854 50.9834 30.7441 59.5991 30.7441C68.2148 30.7441 75.2324 37.854 75.2324 46.5829C75.2324 50.9121 73.5996 54.9598 70.664 57.9692C67.6937 60.961 63.768 62.6328 59.5817 62.6328ZM59.5817 32.0816C51.6956 32.0816 45.286 38.5755 45.286 46.5653C45.286 54.6783 51.6956 61.2777 59.5817 61.2777C67.4679 61.2777 73.8775 54.6783 73.8775 46.5653C73.8602 38.5755 67.4505 32.0816 59.5817 32.0816Z" fill="#8A8A8A"/>
<path d="M66.9468 56.0686C58.3311 56.0686 51.3135 48.9587 51.3135 40.2298C51.3135 37.0973 52.4425 34.1583 53.3979 32.24C53.4674 32.0817 53.6064 31.9761 53.7627 31.9057C55.8992 31.0961 57.6884 30.7266 59.5818 30.7266C68.1974 30.7266 75.2151 37.8364 75.2151 46.5653C75.2151 49.6451 74.4855 52.5137 73.1132 54.8367C73.0438 54.9599 72.9222 55.0655 72.7658 55.1183C71.0288 55.7694 69.2397 56.0686 66.9468 56.0686ZM54.4749 33.0848C53.6237 34.8798 52.651 37.502 52.651 40.2298C52.651 48.2196 59.0606 54.7135 66.9468 54.7135C68.9791 54.7135 70.5772 54.4671 72.071 53.9391C73.2522 51.8625 73.8602 49.3283 73.8602 46.5829C73.8602 38.5931 67.4505 32.0993 59.5644 32.0993C57.9316 32.0817 56.3509 32.3984 54.4749 33.0848Z" fill="#8A8A8A"/>
<path d="M66.9472 56.069C64.9322 56.069 63.3168 55.7874 61.5798 55.1187C61.3192 55.0131 61.1455 54.7667 61.1455 54.4851V52.2149C61.1455 45.1755 65.2623 39.2448 71.6546 37.0977C71.9325 37.0097 72.2452 37.0977 72.4015 37.3441C74.208 39.8607 75.2155 43.134 75.2155 46.5658C75.2155 49.6455 74.4859 52.5141 73.1137 54.8371C73.0442 54.9603 72.9226 55.0659 72.7663 55.1187C71.0292 55.7698 69.2401 56.069 66.9472 56.069ZM62.483 54.01C63.9074 54.5027 65.2796 54.7139 66.9472 54.7139C68.9795 54.7139 70.5776 54.4675 72.0715 53.9396C73.2526 51.8629 73.8606 49.3287 73.8606 46.5834C73.8606 43.6268 73.0616 40.811 71.5851 38.576C66.0266 40.6702 62.4657 45.985 62.4657 52.2501V54.01H62.483Z" fill="#8A8A8A"/>
<path d="M62.2568 46.3365C58.4179 46.3365 54.6138 44.911 51.5567 42.3416C51.4003 42.2185 51.3135 42.0249 51.3135 41.8137V40.2298C51.3135 37.0973 52.4425 34.1583 53.3979 32.24C53.4674 32.0817 53.6064 31.9761 53.7627 31.9057C55.8992 31.0961 57.6884 30.7266 59.5818 30.7266C65.8003 30.7266 71.3415 34.4399 74.0339 40.4058C74.1555 40.6698 74.1034 40.969 73.8949 41.1625C70.6467 44.4535 66.4083 46.3365 62.2568 46.3365ZM52.651 41.4969C55.4302 43.7495 58.8175 44.9814 62.2568 44.9814C65.9219 44.9814 69.6566 43.3624 72.6095 40.529C70.0734 35.3022 65.1055 32.0817 59.5818 32.0817C57.9316 32.0817 56.3509 32.3808 54.4749 33.0848C53.6237 34.8798 52.651 37.502 52.651 40.2298V41.4969V41.4969Z" fill="#8A8A8A"/>
</svg>
