<svg width="19" height="18" viewBox="0 0 19 18" fill="none" xmlns="http://www.w3.org/2000/svg">
<path d="M17.6996 13.8854L14.0563 11.4558C13.5939 11.1499 12.9742 11.2505 12.6324 11.687L11.5711 13.0515C11.4348 13.2313 11.1868 13.2835 10.9895 13.1739L10.7877 13.0626C10.1185 12.6979 9.2858 12.2437 7.60814 10.5655C5.93049 8.88724 5.47546 8.05395 5.11069 7.38597L5 7.1841C4.88889 6.98683 4.94007 6.73786 5.11997 6.60038L6.48355 5.53945C6.91985 5.19761 7.02063 4.57804 6.71513 4.11555L4.28549 0.472291C3.9724 0.00133782 3.34425 -0.14004 2.85955 0.151327L1.33607 1.06648C0.85738 1.3479 0.506186 1.80367 0.356126 2.33828C-0.192477 4.33718 0.220231 7.78697 5.30209 12.8694C9.3446 16.9116 12.3541 17.9987 14.4226 17.9987C14.8986 18.0007 15.3728 17.9388 15.8324 17.8145C16.3671 17.6646 16.8229 17.3134 17.1042 16.8346L18.0202 15.312C18.312 14.8272 18.1707 14.1987 17.6996 13.8854ZM17.5034 15.0042L16.5894 16.5277C16.3875 16.8733 16.0596 17.1274 15.6745 17.2368C13.8292 17.7434 10.6053 17.3238 5.72651 12.445C0.847713 7.56623 0.428115 4.3426 0.934747 2.49699C1.04428 2.11145 1.2987 1.78318 1.64473 1.58092L3.16821 0.666958C3.37852 0.540414 3.65115 0.601753 3.78701 0.806121L5.10683 2.78762L6.21458 4.44907C6.34724 4.64967 6.30365 4.91855 6.1144 5.06699L4.7505 6.12792C4.33544 6.44529 4.21691 7.01956 4.47246 7.47533L4.58076 7.6721C4.96411 8.37519 5.44073 9.24985 7.18077 10.9896C8.92082 12.7293 9.79521 13.206 10.498 13.5893L10.695 13.6979C11.1508 13.9534 11.7251 13.8349 12.0424 13.4199L13.1034 12.056C13.2519 11.8668 13.5206 11.8233 13.7213 11.9558L17.3643 14.3854C17.5688 14.5212 17.6301 14.7939 17.5034 15.0042Z" fill="#3C3B6E"/>
<path d="M10.3722 3.00052C13.1871 3.00365 15.4683 5.28485 15.4715 8.09978C15.4715 8.26544 15.6057 8.39972 15.7714 8.39972C15.9371 8.39972 16.0714 8.26544 16.0714 8.09978C16.0679 4.95365 13.5183 2.40408 10.3722 2.40063C10.2065 2.40063 10.0723 2.53491 10.0723 2.70058C10.0723 2.86625 10.2065 3.00052 10.3722 3.00052Z" fill="#CECDFF"/>
<path d="M10.3722 4.8002C12.1936 4.80235 13.6696 6.27834 13.6717 8.09973C13.6717 8.26539 13.806 8.39967 13.9717 8.39967C14.1373 8.39967 14.2716 8.26539 14.2716 8.09973C14.2691 5.94715 12.5248 4.20278 10.3722 4.20032C10.2065 4.20032 10.0723 4.33459 10.0723 4.50026C10.0723 4.66593 10.2065 4.8002 10.3722 4.8002Z" fill="#CECDFF"/>
<path d="M10.3722 6.60001C11.2001 6.60099 11.871 7.27189 11.872 8.0998C11.872 8.26546 12.0063 8.39974 12.1719 8.39974C12.3376 8.39974 12.4719 8.26546 12.4719 8.0998C12.4706 6.94073 11.5313 6.00142 10.3722 6.00012C10.2065 6.00012 10.0723 6.1344 10.0723 6.30007C10.0723 6.46573 10.2065 6.60001 10.3722 6.60001Z" fill="#CECDFF"/>
</svg>
