<svg width="17" height="18" viewBox="0 0 17 18" fill="none" xmlns="http://www.w3.org/2000/svg">
<path d="M12.8187 12.785L11.1478 12.2282L10.5479 11.0284C11.0883 10.4783 11.4635 9.75052 11.5901 8.99139L11.6649 8.54297H12.3047C12.8862 8.54297 13.3594 8.06984 13.3594 7.48828V5.27344C13.3594 2.36566 10.9937 0 8.08594 0C5.17071 0 2.8125 2.35888 2.8125 5.27344V7.48828C2.8125 7.94658 3.10644 8.33737 3.51562 8.4825V8.89453C3.51562 9.47609 3.98876 9.94922 4.57031 9.94922H4.87905C5.03146 10.2803 5.22872 10.5869 5.46877 10.8624C5.51855 10.9196 5.57047 10.9751 5.62366 11.029L5.02411 12.2282L3.3531 12.7851C1.41019 13.4329 0 15.4783 0 17.6484C0 17.8426 0.157395 18 0.351562 18H15.8203C16.0144 18 16.1719 17.8426 16.1719 17.6484C16.1719 15.4783 14.7617 13.4329 12.8187 12.785ZM12.6562 7.48828C12.6562 7.68213 12.4985 7.83984 12.3047 7.83984H11.7681C11.8575 7.14762 11.9171 6.41099 11.941 5.68547C11.9417 5.66501 11.9423 5.64511 11.9429 5.625H12.6562V7.48828ZM3.86719 7.83984C3.67334 7.83984 3.51562 7.68213 3.51562 7.48828V5.625H4.22923C4.23039 5.66167 4.23162 5.69851 4.23299 5.7356C4.23302 5.73687 4.23309 5.7381 4.23313 5.73936C4.23313 5.73947 4.23313 5.73957 4.23313 5.73968C4.25774 6.44534 4.31652 7.16284 4.40385 7.83981H3.86719V7.83984ZM4.57031 9.24609C4.37646 9.24609 4.21875 9.08838 4.21875 8.89453V8.54297H4.50696L4.58177 8.99153C4.59605 9.07678 4.61359 9.16172 4.63387 9.24609H4.57031ZM4.21935 4.92188H3.52898C3.70705 2.56567 5.67341 0.703125 8.08594 0.703125C10.4877 0.703125 12.4627 2.56542 12.6429 4.92188H11.9526C11.9273 2.9803 10.3462 1.40625 8.40062 1.40625H7.77132C5.82581 1.40625 4.24462 2.9803 4.21935 4.92188ZM7.77129 2.10938H8.40059C9.9759 2.10938 11.2509 3.39789 11.25 4.97145C11.25 5.08208 11.2491 5.17841 11.2473 5.26605C11.2473 5.26718 11.2472 5.26834 11.2472 5.2695L10.8075 5.20668C9.61288 5.0361 8.48493 4.47212 7.6314 3.6186C7.56545 3.55268 7.47605 3.51562 7.38281 3.51562C6.43866 3.51562 5.53486 3.9458 4.93741 4.67255C5.08465 3.24102 6.29483 2.10938 7.77129 2.10938ZM5.36273 9.24609C5.18674 8.66064 4.98537 6.93798 4.94086 5.83407L5.41403 5.20316C5.84859 4.62393 6.52468 4.26403 7.24388 4.22272C8.19018 5.12329 9.41439 5.71799 10.7081 5.9027L11.2256 5.97667C11.191 6.71091 11.1203 7.44771 11.0191 8.12535C11.019 8.12556 11.019 8.1258 11.019 8.12605C10.9868 8.34391 10.9614 8.48412 10.8965 8.87572C10.7104 9.99246 9.87708 11.0023 8.77707 11.2774C8.32437 11.3904 7.84744 11.3903 7.39498 11.2774C6.70813 11.1056 6.07834 10.6304 5.6719 9.94922H6.38859C6.53372 10.3584 6.92448 10.6523 7.38281 10.6523H8.08594C8.66865 10.6523 9.14062 10.1804 9.14062 9.59766C9.14062 9.0161 8.66749 8.54297 8.08594 8.54297H7.38281C6.91429 8.54297 6.52929 8.84559 6.388 9.24609H5.36273ZM7.35325 11.9888C7.59438 12.0396 7.84023 12.0656 8.08594 12.0656C8.27828 12.0656 8.47065 12.0495 8.66085 12.0183L8.03964 12.6753L7.35325 11.9888ZM7.55631 13.1864L6.44122 14.3656C6.13424 13.778 5.87046 13.1664 5.65411 12.5404L6.07286 11.7029L7.55631 13.1864ZM10.0394 11.5838L10.5177 12.5403C10.301 13.1675 10.0371 13.7792 9.73048 14.3661L8.53699 13.1726L10.0394 11.5838ZM7.03125 9.59766C7.03125 9.40356 7.18868 9.24609 7.38281 9.24609H8.08594C8.27979 9.24609 8.4375 9.4038 8.4375 9.59766C8.4375 9.79179 8.28004 9.94922 8.08594 9.94922H7.38281C7.18896 9.94922 7.03125 9.79151 7.03125 9.59766ZM0.717188 17.2969C0.856512 15.5553 2.01558 13.9723 3.57546 13.4521L5.05533 12.9589C5.32645 13.7086 5.66234 14.4373 6.05598 15.1295C6.05665 15.1307 6.05728 15.1318 6.05795 15.133C6.05795 15.133 6.05798 15.133 6.05798 15.1331C6.3456 15.6389 6.66932 16.1333 7.02028 16.6026L7.45277 17.2969H0.717188ZM8.08594 16.9835L7.60915 16.218C7.6038 16.2095 7.59811 16.2011 7.59206 16.193C7.30737 15.8133 7.0418 15.4161 6.79992 15.0096L8.0537 13.6837L9.3748 15.0048C9.13131 15.4143 8.86482 15.8131 8.57988 16.193C8.56266 16.2159 8.58709 16.1797 8.08594 16.9835ZM8.7191 17.2969L9.15156 16.6026C9.50407 16.1315 9.83011 15.6332 10.1206 15.1214C10.1224 15.1183 10.124 15.1151 10.1258 15.1121C10.126 15.1117 10.1262 15.1113 10.1264 15.1109C10.5151 14.4254 10.8474 13.703 11.1165 12.9589L12.5964 13.4521C14.1563 13.9723 15.3154 15.5553 15.4547 17.2969H8.7191Z" fill="#3C3B6E"/>
</svg>
