<svg width="19" height="20" viewBox="0 0 19 20" fill="none" xmlns="http://www.w3.org/2000/svg">
<path d="M13.1211 14.0314H14.1946V16.8813H13.1211V14.0314Z" fill="#CECDFF"/>
<path d="M13.6564 13.292C13.9371 13.292 14.2061 13.036 14.1931 12.7354C14.1801 12.4338 13.9573 12.1787 13.6564 12.1787C13.3756 12.1787 13.1066 12.4347 13.1196 12.7354C13.1326 13.0369 13.3554 13.292 13.6564 13.292Z" fill="#CECDFF"/>
<path d="M14.6034 9.96883V0.5H2.35906C1.05828 0.5 0 1.56519 0 2.91415V17.1256H0.0113435C0.130576 18.4554 1.21218 19.5 2.5251 19.5H13.6627C16.2315 19.5 18.3214 17.365 18.3214 14.7011C18.3214 12.3712 16.7228 10.4213 14.6034 9.96883V9.96883ZM13.5282 9.87197C11.1629 9.94192 9.23375 11.8491 9.02341 14.2627H4.3172V1.58274H13.5282V9.87197ZM2.35906 1.58274H3.24196V14.2627H2.5251C1.9858 14.2627 1.48586 14.4395 1.0752 14.7394V2.91415C1.0752 2.17998 1.65115 1.58274 2.35906 1.58274V1.58274ZM2.5251 18.385C1.72561 18.385 1.0752 17.7104 1.0752 16.8814C1.0752 16.0523 1.72561 15.3778 2.5251 15.3778H9.04993C9.09466 15.7072 9.17141 16.026 9.27705 16.3307H2.72467V17.4458H9.83113C10.0644 17.7949 10.3408 18.1108 10.6524 18.385H2.5251V18.385ZM13.6627 18.4173C11.6868 18.4173 10.0793 16.7502 10.0793 14.7011C10.0793 12.6519 11.6868 10.9848 13.6627 10.9848C15.6387 10.9848 17.2462 12.6519 17.2462 14.7011C17.2462 16.7502 15.6387 18.4173 13.6627 18.4173Z" fill="#3C3B6E"/>
<path d="M7.18555 3.75073H10.784V4.86576H7.18555V3.75073Z" fill="#CECDFF"/>
<path d="M5.9707 6.17151H12.0002V7.28653H5.9707V6.17151Z" fill="#CECDFF"/>
</svg>
