<svg width="19" height="18" viewBox="0 0 19 18" fill="none" xmlns="http://www.w3.org/2000/svg">
<g clip-path="url(#clip0)">
<path d="M18.2145 9.25432C18.1021 9.09478 17.9191 8.99993 17.7239 9H15.9242V6.59999C15.9239 6.26878 15.6555 6.00036 15.3242 5.99998H14.7242V3.6C14.7238 3.26879 14.4554 3.00038 14.1242 2.99999H13.2242V2.09999C13.2238 1.76878 12.9554 1.50036 12.6242 1.49998H11.7242V0.599977C11.7238 0.26877 11.4554 0.000386719 11.1242 0H3.92422C3.59301 0.000386719 3.32459 0.26877 3.32421 0.600012V6.00001H0.624207C0.606031 6.00188 0.588102 6.0055 0.570629 6.0108C0.554141 6.01182 0.537758 6.01429 0.521656 6.01815C0.519301 6.01903 0.517824 6.021 0.515504 6.02188C0.49434 6.03155 0.474441 6.04368 0.45616 6.05805C0.442309 6.06589 0.42909 6.07479 0.41668 6.0847C0.403777 6.09915 0.392352 6.11487 0.382578 6.13157C0.370625 6.14612 0.360078 6.16177 0.351078 6.17829C0.345805 6.1939 0.341797 6.20993 0.339125 6.22617C0.332094 6.24769 0.327629 6.26998 0.32573 6.29255C0.32566 6.29515 0.324219 6.29729 0.324219 6.29997V17.7C0.324219 17.7038 0.326293 17.7071 0.326434 17.711C0.327207 17.7462 0.334238 17.781 0.347176 17.8137C0.348723 17.8175 0.351219 17.8207 0.352906 17.8244C0.360078 17.8413 0.368832 17.8575 0.378992 17.8728C0.386973 17.883 0.395621 17.8925 0.404867 17.9015C0.409473 17.9066 0.41341 17.9117 0.418332 17.9164C0.442379 17.9393 0.470117 17.958 0.500352 17.9717C0.506609 17.9745 0.512973 17.9764 0.519477 17.9789C0.552805 17.9922 0.588277 17.9994 0.624172 18H14.9382C15.1918 17.9996 15.4178 17.8402 15.5034 17.6016L18.2891 9.80188C18.3548 9.61808 18.327 9.41382 18.2145 9.25432ZM14.7242 6.59999H15.3242V9H14.7242V6.59999ZM14.1242 3.6V9H12.2175C13.1095 8.28186 13.4513 7.0792 13.0706 5.99924C12.6899 4.91931 11.6693 4.19699 10.5242 4.19699C9.37917 4.19699 8.35858 4.91931 7.97787 5.99924C7.59713 7.07917 7.93903 8.28183 8.83094 9H6.92428V3.6H14.1242ZM10.5242 7.80001C10.7632 7.79565 10.9955 7.87855 11.1777 8.0332C11.3297 8.15207 11.4203 8.33302 11.4242 8.52599V8.79448C10.8555 9.06848 10.1929 9.06848 9.6242 8.79448V8.52599C9.67768 8.07996 10.077 7.75786 10.5242 7.80001ZM9.92423 6.59999C9.92423 6.26861 10.1929 5.99998 10.5242 5.99998C10.8556 5.99998 11.1243 6.26861 11.1243 6.59999C11.1243 6.93137 10.8556 7.2 10.5242 7.2C10.193 7.19961 9.92458 6.93123 9.92423 6.59999ZM11.3784 7.44089C11.8424 6.97085 11.8394 6.21415 11.3716 5.7478C10.9038 5.28145 10.1471 5.28079 9.67852 5.74632C9.20992 6.21186 9.20556 6.96853 9.66882 7.43938C9.32594 7.64188 9.09447 7.99003 9.04037 8.38452C8.43912 7.78416 8.25888 6.88064 8.58376 6.09553C8.90864 5.31042 9.67462 4.79844 10.5243 4.79851C11.3739 4.79858 12.1399 5.3106 12.4647 6.09574C12.7895 6.88089 12.6092 7.78437 12.0079 8.3847C11.969 8.06938 11.8117 7.78064 11.5678 7.57705C11.5084 7.52667 11.4451 7.48114 11.3784 7.44089ZM12.6242 2.09999V2.99999H6.92421C6.593 3.00038 6.32458 3.26879 6.32419 3.6V9H5.42419V2.09999H12.6242ZM3.92422 0.600012H11.1242V1.50001H5.42423C5.09302 1.5004 4.8246 1.76878 4.82422 2.10002V9H3.92422V0.600012V0.600012ZM3.32421 6.59999V9.04584L2.02093 9.26311L1.05255 6.60002H3.32421V6.59999ZM0.92423 8.00304L1.45699 9.46818C1.55581 9.73997 1.83446 9.90257 2.11968 9.85489L3.17001 9.67985L0.92423 15.9681V8.00304V8.00304ZM14.9382 17.4H1.04991L3.83559 9.59998H17.7239L14.9382 17.4Z" fill="#3C3B6E"/>
<path d="M6.92349 12.5574V13.2C6.92402 13.6969 7.32667 14.0995 7.82349 14.1H12.0235C12.5203 14.0995 12.923 13.6969 12.9235 13.2V12.5574C13.5084 12.4074 13.8902 11.8454 13.8139 11.2463C13.7377 10.6473 13.2274 10.1988 12.6235 10.2001C12.0196 10.1988 11.5093 10.6473 11.4331 11.2463C11.3569 11.8454 11.7386 12.4074 12.3235 12.5574V13.2C12.3234 13.3657 12.1891 13.4999 12.0235 13.5H7.82349C7.65787 13.4999 7.52365 13.3657 7.52351 13.2V12.5574C8.10861 12.4064 8.49009 11.8438 8.41394 11.2443C8.3378 10.6449 7.82778 10.1956 7.22352 10.1956C6.61925 10.1956 6.10924 10.6449 6.03309 11.2443C5.95694 11.8438 6.33842 12.4063 6.92349 12.5574ZM12.044 11.2417C12.1142 10.9794 12.352 10.797 12.6235 10.797C12.8951 10.797 13.1328 10.9794 13.2031 11.2417C13.2733 11.504 13.1587 11.7808 12.9235 11.9166V11.7C12.9235 11.5343 12.7892 11.4 12.6235 11.4C12.4578 11.4 12.3235 11.5344 12.3235 11.7V11.9166C12.0883 11.7808 11.9737 11.504 12.044 11.2417ZM7.11728 10.8064C7.40422 10.7548 7.68677 10.917 7.78693 11.1908C7.88709 11.4646 7.77596 11.7708 7.52347 11.9166V11.7C7.52347 11.5343 7.38917 11.4 7.22348 11.4C7.05779 11.4 6.92349 11.5344 6.92349 11.7V11.9166C6.7385 11.8102 6.62421 11.6134 6.62351 11.4C6.62203 11.1085 6.83033 10.858 7.11728 10.8064Z" fill="#CECDFF"/>
</g>
<defs>
<clipPath id="clip0">
<rect width="18" height="18" fill="white" transform="translate(0.322266)"/>
</clipPath>
</defs>
</svg>
