<svg width="23" height="22" viewBox="0 0 23 22" fill="none" xmlns="http://www.w3.org/2000/svg">
<path d="M11.1719 0C5.10648 0 0.171875 4.9346 0.171875 11C0.171875 13.6565 1.11861 16.0959 2.69234 17.9989C2.69638 18.0044 2.69674 18.0114 2.70114 18.0165C3.83744 19.3868 5.26451 20.4373 6.85474 21.116C6.87308 21.1237 6.89104 21.1321 6.90938 21.1398C7.03808 21.1941 7.16824 21.2443 7.29878 21.2934C7.35011 21.3129 7.40144 21.3327 7.45351 21.3514C7.56607 21.3917 7.67937 21.4298 7.79341 21.4665C7.86637 21.49 7.93934 21.5131 8.01304 21.5351C8.11388 21.5651 8.21508 21.5941 8.31701 21.6216C8.40648 21.6458 8.49668 21.6682 8.58688 21.6898C8.67818 21.7118 8.76984 21.7338 8.86188 21.7532C8.96454 21.7752 9.06831 21.7947 9.17244 21.8137C9.25604 21.8291 9.33928 21.8453 9.42361 21.8588C9.53911 21.8775 9.65534 21.8922 9.77194 21.9072C9.84711 21.9168 9.92191 21.9278 9.99744 21.9358C10.1294 21.9498 10.2625 21.9597 10.396 21.9688C10.458 21.9732 10.5196 21.9798 10.5819 21.9831C10.7766 21.9941 10.9735 22 11.1719 22C11.3702 22 11.5671 21.9941 11.7626 21.9839C11.8249 21.9806 11.8865 21.974 11.9485 21.9696C12.0819 21.96 12.215 21.9505 12.347 21.9366C12.4226 21.9285 12.4974 21.9175 12.5725 21.908C12.6891 21.8929 12.8054 21.8783 12.9209 21.8596C13.0048 21.846 13.0884 21.8299 13.172 21.8145C13.2758 21.7954 13.3796 21.776 13.4826 21.754C13.5746 21.7342 13.6659 21.7125 13.7576 21.6905C13.8478 21.6685 13.938 21.6462 14.0275 21.6223C14.1294 21.5952 14.2306 21.5659 14.3314 21.5358C14.4051 21.5138 14.4781 21.4907 14.5511 21.4672C14.6651 21.4306 14.7784 21.3924 14.891 21.3521C14.9427 21.3334 14.994 21.3136 15.0457 21.2942C15.1766 21.245 15.3064 21.1944 15.4351 21.1405C15.4534 21.1328 15.4714 21.1244 15.4897 21.1167C17.0796 20.438 18.507 19.3875 19.6433 18.0173C19.6477 18.0121 19.6481 18.0048 19.6521 17.9997C21.2251 16.0959 22.1719 13.6565 22.1719 11C22.1719 4.9346 17.2373 0 11.1719 0ZM15.6294 20.2473C15.6239 20.2499 15.6188 20.2528 15.6133 20.2554C15.4824 20.3185 15.3493 20.3779 15.2151 20.4358C15.1847 20.4486 15.1546 20.4618 15.1242 20.4747C15.0068 20.5238 14.888 20.5704 14.7685 20.6151C14.7186 20.6338 14.6688 20.6521 14.6185 20.6697C14.5126 20.7075 14.4062 20.7438 14.2988 20.7783C14.2321 20.7995 14.165 20.8197 14.0979 20.8395C14.0025 20.8681 13.9068 20.8956 13.81 20.9213C13.7286 20.9429 13.6465 20.9627 13.5644 20.9821C13.4782 21.0027 13.3924 21.0236 13.3055 21.0419C13.2105 21.0621 13.1148 21.0793 13.0195 21.0965C12.9421 21.1108 12.8651 21.1259 12.787 21.1383C12.6796 21.1552 12.5711 21.1688 12.4629 21.1823C12.3943 21.1911 12.3261 21.2014 12.2568 21.2087C12.1333 21.2219 12.0086 21.2304 11.8843 21.2392C11.8289 21.2428 11.7739 21.2491 11.7178 21.252C11.5363 21.2615 11.3545 21.2667 11.1719 21.2667C10.9893 21.2667 10.8074 21.2615 10.6263 21.252C10.5705 21.2491 10.5155 21.2432 10.4598 21.2392C10.3351 21.2307 10.2108 21.2219 10.0873 21.2087C10.018 21.2014 9.94978 21.1911 9.88121 21.1823C9.77304 21.1688 9.66451 21.1552 9.55708 21.1383C9.47898 21.1259 9.40198 21.1108 9.32461 21.0965C9.22891 21.0793 9.13321 21.0617 9.03861 21.0419C8.95171 21.0236 8.86554 21.0027 8.77974 20.9821C8.69761 20.9623 8.61548 20.9429 8.53408 20.9213C8.43764 20.8956 8.34158 20.8677 8.24624 20.8395C8.17914 20.8197 8.11204 20.7995 8.04531 20.7783C7.93788 20.7438 7.83118 20.7075 7.72558 20.6697C7.67534 20.6518 7.62547 20.6334 7.57561 20.6151C7.45607 20.5704 7.33728 20.5238 7.21994 20.4747C7.18951 20.4622 7.15981 20.449 7.12938 20.4362C6.99518 20.3786 6.86208 20.3188 6.73081 20.2558C6.72531 20.2532 6.72018 20.2506 6.71468 20.2477C5.43538 19.6288 4.30531 18.7502 3.38828 17.6832C4.09704 15.0733 6.10344 12.9694 8.68477 12.1323C8.73574 12.1634 8.78891 12.1913 8.84134 12.2206C8.87214 12.2379 8.90258 12.2562 8.93374 12.2727C9.04301 12.3306 9.15374 12.3849 9.26704 12.4337C9.35394 12.4718 9.44378 12.5041 9.53324 12.5371C9.55084 12.5433 9.56844 12.5503 9.58604 12.5565C10.0832 12.7325 10.6153 12.8333 11.1719 12.8333C11.7285 12.8333 12.2605 12.7325 12.7573 12.5565C12.7749 12.5503 12.7925 12.5433 12.8101 12.5371C12.8996 12.5041 12.9894 12.4718 13.0763 12.4337C13.1896 12.3849 13.3004 12.3306 13.4096 12.2727C13.4408 12.2558 13.4712 12.2379 13.502 12.2206C13.5545 12.1913 13.608 12.1634 13.6593 12.1319C16.2407 12.9694 18.2467 15.0733 18.9558 17.6829C18.0388 18.7495 16.9087 19.628 15.6294 20.2473ZM7.13854 8.06667C7.13854 5.84283 8.94804 4.03333 11.1719 4.03333C13.3957 4.03333 15.2052 5.84283 15.2052 8.06667C15.2052 9.48127 14.4715 10.7261 13.366 11.4462C13.2215 11.5401 13.0712 11.6241 12.9168 11.6974C12.8985 11.7062 12.8805 11.7154 12.8622 11.7238C11.8003 12.2067 10.5434 12.2067 9.48154 11.7238C9.46321 11.7154 9.44487 11.7062 9.42691 11.6974C9.27217 11.6241 9.12221 11.5401 8.97774 11.4462C7.87224 10.7261 7.13854 9.48127 7.13854 8.06667ZM19.5058 16.9851C18.6746 14.5306 16.7782 12.547 14.3553 11.6046C15.3244 10.7316 15.9385 9.471 15.9385 8.06667C15.9385 5.4384 13.8001 3.3 11.1719 3.3C8.54361 3.3 6.40521 5.4384 6.40521 8.06667C6.40521 9.471 7.01938 10.7316 7.98884 11.6046C5.56591 12.5473 3.66951 14.5306 2.83827 16.9851C1.62351 15.2988 0.905208 13.2323 0.905208 11C0.905208 5.33903 5.51091 0.733333 11.1719 0.733333C16.8328 0.733333 21.4385 5.33903 21.4385 11C21.4385 13.2323 20.7202 15.2988 19.5058 16.9851Z" fill="#3C3B6E"/>
</svg>
