<svg width="105" height="98" viewBox="0 0 105 98" fill="none" xmlns="http://www.w3.org/2000/svg">
<path d="M87.7056 77.3286H35.4556C35.2819 77.3286 35.1082 77.2582 34.9866 77.135L15.7751 57.6709C15.6535 57.5477 15.584 57.3718 15.584 57.1958V21.9105C15.584 21.629 15.7403 21.3826 16.0009 21.277C16.2441 21.1714 16.5394 21.2242 16.7304 21.4178L29.376 34.2296L38.0091 38.506L33.8923 29.9883C33.7881 29.9531 33.7012 29.9003 33.6318 29.8299L22.9143 18.9716C22.7232 18.778 22.6711 18.4788 22.7753 18.2324C22.8795 17.986 23.1227 17.8101 23.4006 17.8101H87.723C88.0877 17.8101 88.4004 18.1092 88.4004 18.4964V76.6598C88.383 77.0294 88.0877 77.3286 87.7056 77.3286ZM35.7336 75.9735H87.0455V19.1828H25.0161L34.3961 28.686C34.6219 28.7036 34.8303 28.8444 34.9345 29.0556L40.0761 39.6851C40.1977 39.9491 40.1456 40.2659 39.9546 40.4595C39.7461 40.6707 39.4508 40.7235 39.1903 40.5827L28.8375 35.4439H28.7681C28.4207 35.4439 28.1254 35.1623 28.108 34.8279L16.9215 23.5472V56.9142L35.7336 75.9735Z" fill="#590B08"/>
<path d="M48.1876 90.2285C48.1702 90.2285 48.1702 90.2285 48.1528 90.2285L6.16874 88.4158C5.82133 88.3982 5.54341 88.1166 5.52604 87.7647L3.51108 45C3.49371 44.7184 3.65004 44.4545 3.91059 44.3489C4.17115 44.2433 4.46645 44.2961 4.65752 44.4897L48.6044 89.0142C48.7608 89.1373 48.8476 89.3309 48.8476 89.5421C48.865 89.9293 48.5697 90.2285 48.1876 90.2285ZM6.84618 87.0959L46.5026 88.803L4.95281 46.7071L6.84618 87.0959Z" fill="#590B08"/>
<path d="M29.6524 80.268C29.6351 80.268 29.6351 80.268 29.6177 80.268L14.8703 79.5816C14.5229 79.564 14.245 79.2825 14.2276 78.9305L13.5501 63.9893C13.5328 63.7077 13.6891 63.4437 13.9497 63.3381C14.2102 63.2325 14.5055 63.2853 14.6966 63.4789L30.0693 79.0537C30.2256 79.1769 30.3125 79.3705 30.3125 79.5816C30.3299 79.9688 30.0172 80.268 29.6524 80.268ZM15.5477 78.2618L27.9501 78.8249L14.9919 65.6963L15.5477 78.2618Z" fill="#590B08"/>
<path d="M103.338 85.9335H91.2829C90.9181 85.9335 90.6055 85.6343 90.6055 85.2471V36.3758C90.6055 36.0062 90.9008 35.6895 91.2829 35.6895H103.338C103.703 35.6895 104.015 35.9886 104.015 36.3758V85.2471C104.015 85.6343 103.72 85.9335 103.338 85.9335ZM91.9604 84.5784H102.678V37.0621H91.9604V84.5784Z" fill="#590B08"/>
<path d="M103.339 41.1286H95.9743C95.6095 41.1286 95.2969 40.8294 95.2969 40.4422C95.2969 40.055 95.5922 39.7559 95.9743 39.7559H103.339C103.704 39.7559 104.017 40.055 104.017 40.4422C104.017 40.8294 103.721 41.1286 103.339 41.1286Z" fill="#590B08"/>
<path d="M103.339 45.2111H98.2146C97.8498 45.2111 97.5371 44.9119 97.5371 44.5247C97.5371 44.1552 97.8324 43.8384 98.2146 43.8384H103.356C103.721 43.8384 104.034 44.1376 104.034 44.5247C104.016 44.8943 103.721 45.2111 103.339 45.2111Z" fill="#590B08"/>
<path d="M103.339 49.2765H95.9743C95.6095 49.2765 95.2969 48.9773 95.2969 48.5902C95.2969 48.2206 95.5922 47.9038 95.9743 47.9038H103.339C103.704 47.9038 104.017 48.203 104.017 48.5902C104.017 48.9773 103.721 49.2765 103.339 49.2765Z" fill="#590B08"/>
<path d="M103.339 53.1295H98.2146C97.8498 53.1295 97.5371 52.8304 97.5371 52.4432C97.5371 52.0736 97.8324 51.7568 98.2146 51.7568H103.356C103.721 51.7568 104.034 52.056 104.034 52.4432C104.016 52.8128 103.721 53.1295 103.339 53.1295Z" fill="#590B08"/>
<path d="M103.339 57.196H95.9743C95.6095 57.196 95.2969 56.8968 95.2969 56.5096C95.2969 56.14 95.5922 55.8232 95.9743 55.8232H103.339C103.704 55.8232 104.017 56.1224 104.017 56.5096C104.017 56.8968 103.721 57.196 103.339 57.196Z" fill="#590B08"/>
<path d="M103.339 61.2599H98.2146C97.8498 61.2599 97.5371 60.9607 97.5371 60.5736C97.5371 60.204 97.8324 59.8872 98.2146 59.8872H103.356C103.721 59.8872 104.034 60.1864 104.034 60.5736C104.016 60.9607 103.721 61.2599 103.339 61.2599Z" fill="#590B08"/>
<path d="M103.339 65.3439H95.9743C95.6095 65.3439 95.2969 65.0447 95.2969 64.6575C95.2969 64.2704 95.5922 63.9712 95.9743 63.9712H103.339C103.704 63.9712 104.017 64.2704 104.017 64.6575C104.017 65.0447 103.721 65.3439 103.339 65.3439Z" fill="#590B08"/>
<path d="M103.339 69.4093H98.2146C97.8498 69.4093 97.5371 69.1101 97.5371 68.723C97.5371 68.3534 97.8324 68.0366 98.2146 68.0366H103.356C103.721 68.0366 104.034 68.3358 104.034 68.723C104.016 69.1101 103.721 69.4093 103.339 69.4093Z" fill="#590B08"/>
<path d="M103.339 73.4919H95.9743C95.6095 73.4919 95.2969 73.1927 95.2969 72.8055C95.2969 72.4359 95.5922 72.1191 95.9743 72.1191H103.339C103.704 72.1191 104.017 72.4183 104.017 72.8055C104.017 73.1751 103.721 73.4919 103.339 73.4919Z" fill="#590B08"/>
<path d="M103.339 77.3278H98.2146C97.8498 77.3278 97.5371 77.0286 97.5371 76.6414C97.5371 76.2719 97.8324 75.9551 98.2146 75.9551H103.356C103.721 75.9551 104.034 76.2543 104.034 76.6414C104.016 77.0286 103.721 77.3278 103.339 77.3278Z" fill="#590B08"/>
<path d="M103.339 81.4103H95.9743C95.6095 81.4103 95.2969 81.1111 95.2969 80.7239C95.2969 80.3368 95.5922 80.0376 95.9743 80.0376H103.339C103.704 80.0376 104.017 80.3368 104.017 80.7239C104.017 81.1111 103.721 81.4103 103.339 81.4103Z" fill="#590B08"/>
<path d="M89.7191 93.8537H29.2009C28.8361 93.8537 28.5234 93.5545 28.5234 93.1673C28.5234 92.7977 28.8187 92.481 29.2009 92.481H89.7191C90.0839 92.481 90.3965 92.7801 90.3965 93.1673C90.3965 93.5369 90.0839 93.8537 89.7191 93.8537Z" fill="#590B08"/>
<path d="M54.215 97.6901H12.4567C12.092 97.6901 11.7793 97.3909 11.7793 97.0037C11.7793 96.6342 12.0746 96.3174 12.4567 96.3174H54.215C54.5798 96.3174 54.8925 96.6166 54.8925 97.0037C54.8925 97.3909 54.5798 97.6901 54.215 97.6901Z" fill="#590B08"/>
<path d="M8.21871 97.6901H2.85127C2.48649 97.6901 2.17383 97.3909 2.17383 97.0037C2.17383 96.6342 2.46912 96.3174 2.85127 96.3174H8.21871C8.58348 96.3174 8.89615 96.6166 8.89615 97.0037C8.87878 97.3909 8.58348 97.6901 8.21871 97.6901Z" fill="#590B08"/>
<path d="M92.1876 97.4611H72.2985C71.9338 97.4611 71.6211 97.1619 71.6211 96.7747C71.6211 96.3876 71.9164 96.0884 72.2985 96.0884H92.1702C92.535 96.0884 92.8476 96.3876 92.8476 96.7747C92.8476 97.1619 92.5523 97.4611 92.1876 97.4611Z" fill="#590B08"/>
<path d="M39.484 40.6874C39.3798 40.6874 39.2756 40.6698 39.1887 40.617L28.697 35.4078C28.6275 35.3726 28.5754 35.3374 28.5233 35.2846L4.83018 11.2977C4.56963 11.0337 4.56963 10.6114 4.83018 10.3298L10.1976 4.89183C10.4582 4.62785 10.8751 4.62785 11.153 4.89183L34.8114 28.8963C34.8635 28.9491 34.9156 29.0019 34.933 29.0723L40.0399 39.6491C40.1093 39.7547 40.1441 39.8779 40.1441 40.0187C40.1441 40.3706 39.8488 40.6874 39.484 40.6874ZM29.3745 34.2287L38.0075 38.5052L33.7865 29.7587L10.6666 6.35252L6.25455 10.8226L29.3745 34.2287Z" fill="#590B08"/>
<path d="M5.31815 11.4915C5.16182 11.4915 5.00548 11.4387 4.88389 11.3155L3.09475 9.73163C2.93841 9.62604 2.86893 9.45005 2.85156 9.25647C2.85156 9.06288 2.92104 8.8869 3.04264 8.74611L8.41007 3.32573C8.65325 3.07935 9.05277 3.06175 9.3307 3.29053L11.1198 4.87441C11.2588 4.9976 11.3457 5.17358 11.3457 5.36717C11.3457 5.56075 11.2762 5.73674 11.1546 5.87753L5.78715 11.2979C5.64819 11.4211 5.47448 11.4915 5.31815 11.4915ZM4.50174 9.20367L5.28341 9.89002L9.69547 5.41997L8.91381 4.73362L4.50174 9.20367Z" fill="#590B08"/>
<path d="M3.52836 9.90802H3.51099C3.31991 9.90802 3.14621 9.82003 3.02462 9.67924L1.02703 7.44421C-0.345225 6.03632 -0.345225 3.59012 1.0444 2.19983L2.1561 1.05592C2.81617 0.387169 3.75417 0 4.74428 0C5.73439 0 6.68975 0.387169 7.33246 1.05592L7.34983 1.07352L9.36478 3.34374C9.62534 3.60772 9.60797 4.03008 9.36478 4.27646L3.99735 9.71444C3.87576 9.83763 3.70206 9.90802 3.52836 9.90802ZM4.74428 1.37269C4.10158 1.37269 3.51099 1.60147 3.0941 2.02384L1.9824 3.15015C1.11388 4.03008 1.11388 5.61396 1.9824 6.49389L1.99977 6.51149L3.54573 8.25375L7.95779 3.7837L6.39446 2.00624C5.97757 1.60147 5.38698 1.37269 4.74428 1.37269Z" fill="#590B08"/>
<path d="M28.9761 35.4793C28.8023 35.4793 28.646 35.4089 28.5071 35.2857C28.2465 35.0218 28.2291 34.5994 28.4897 34.3178L33.6313 28.8799C33.8919 28.6159 34.3087 28.5983 34.5867 28.8623C34.8472 29.1262 34.8646 29.5486 34.604 29.8302L29.4624 35.2681C29.3408 35.4089 29.1498 35.4793 28.9761 35.4793Z" fill="#590B08"/>
<path d="M32.3272 31.853C32.1535 31.853 31.9798 31.7826 31.8582 31.6594L8.40831 7.90126C8.14775 7.63728 8.14775 7.21491 8.40831 6.93334C8.66886 6.66936 9.08575 6.66936 9.36367 6.93334L32.8136 30.6915C33.0742 30.9555 33.0742 31.3778 32.8136 31.6594C32.6746 31.7826 32.5009 31.853 32.3272 31.853Z" fill="#590B08"/>
<path d="M30.764 33.6657C30.5903 33.6657 30.4166 33.5953 30.295 33.4721L6.61924 9.48524C6.35869 9.22126 6.35869 8.7989 6.61924 8.51732C6.8798 8.25334 7.29669 8.25334 7.57461 8.51732L31.2504 32.5042C31.5109 32.7682 31.5109 33.1906 31.2504 33.4721C31.1114 33.5953 30.9377 33.6657 30.764 33.6657Z" fill="#590B08"/>
<path d="M91.7338 29.6C91.3691 29.6 91.0564 29.3008 91.0564 28.9136V15.1163H60.6931C60.3283 15.1163 60.0156 14.8172 60.0156 14.43C60.0156 14.0604 60.3109 13.7437 60.6931 13.7437H91.7338C92.0986 13.7437 92.4113 14.0428 92.4113 14.43V28.9136C92.3939 29.2832 92.0986 29.6 91.7338 29.6Z" fill="#590B08"/>
<path d="M59.5827 62.6328C55.3965 62.6328 51.4708 60.9786 48.5352 57.9692C45.5822 54.9422 43.9668 50.8946 43.9668 46.5829C43.9668 37.854 50.9844 30.7441 59.6001 30.7441C68.2158 30.7441 75.2334 37.854 75.2334 46.5829C75.2334 50.9121 73.6006 54.9598 70.665 57.9692C67.6947 60.961 63.769 62.6328 59.5827 62.6328ZM59.5827 32.0816C51.6966 32.0816 45.2869 38.5755 45.2869 46.5653C45.2869 54.6783 51.6966 61.2777 59.5827 61.2777C67.4688 61.2777 73.8785 54.6783 73.8785 46.5653C73.8611 38.5755 67.4515 32.0816 59.5827 32.0816Z" fill="#590B08"/>
<path d="M66.9478 56.0686C58.3321 56.0686 51.3145 48.9587 51.3145 40.2298C51.3145 37.0973 52.4435 34.1583 53.3989 32.24C53.4684 32.0817 53.6073 31.9761 53.7637 31.9057C55.9002 31.0961 57.6894 30.7266 59.5827 30.7266C68.1984 30.7266 75.216 37.8364 75.216 46.5653C75.216 49.6451 74.4865 52.5137 73.1142 54.8367C73.0447 54.9599 72.9232 55.0655 72.7668 55.1183C71.0298 55.7694 69.2406 56.0686 66.9478 56.0686ZM54.4759 33.0848C53.6247 34.8798 52.652 37.502 52.652 40.2298C52.652 48.2196 59.0616 54.7135 66.9478 54.7135C68.9801 54.7135 70.5782 54.4671 72.072 53.9391C73.2532 51.8625 73.8612 49.3283 73.8612 46.5829C73.8612 38.5931 67.4515 32.0993 59.5654 32.0993C57.9325 32.0817 56.3518 32.3984 54.4759 33.0848Z" fill="#590B08"/>
<path d="M66.9482 56.069C64.9332 56.069 63.3178 55.7874 61.5807 55.1187C61.3202 55.0131 61.1465 54.7667 61.1465 54.4851V52.2149C61.1465 45.1755 65.2633 39.2448 71.6555 37.0977C71.9335 37.0097 72.2461 37.0977 72.4025 37.3441C74.209 39.8607 75.2165 43.134 75.2165 46.5658C75.2165 49.6455 74.4869 52.5141 73.1147 54.8371C73.0452 54.9603 72.9236 55.0659 72.7672 55.1187C71.0302 55.7698 69.2411 56.069 66.9482 56.069ZM62.484 54.01C63.9084 54.5027 65.2806 54.7139 66.9482 54.7139C68.9805 54.7139 70.5786 54.4675 72.0724 53.9396C73.2536 51.8629 73.8616 49.3287 73.8616 46.5834C73.8616 43.6268 73.0625 40.811 71.5861 38.576C66.0276 40.6702 62.4666 45.985 62.4666 52.2501V54.01H62.484Z" fill="#590B08"/>
<path d="M62.2578 46.3365C58.4189 46.3365 54.6148 44.911 51.5576 42.3416C51.4013 42.2185 51.3145 42.0249 51.3145 41.8137V40.2298C51.3145 37.0973 52.4435 34.1583 53.3989 32.24C53.4684 32.0817 53.6073 31.9761 53.7637 31.9057C55.9002 31.0961 57.6894 30.7266 59.5827 30.7266C65.8013 30.7266 71.3425 34.4399 74.0349 40.4058C74.1564 40.6698 74.1043 40.969 73.8959 41.1625C70.6476 44.4535 66.4093 46.3365 62.2578 46.3365ZM52.652 41.4969C55.4312 43.7495 58.8184 44.9814 62.2578 44.9814C65.9229 44.9814 69.6575 43.3624 72.6105 40.529C70.0744 35.3022 65.1065 32.0817 59.5827 32.0817C57.9326 32.0817 56.3519 32.3808 54.4759 33.0848C53.6247 34.8798 52.652 37.502 52.652 40.2298V41.4969V41.4969Z" fill="#590B08"/>
</svg>
