<svg width="18" height="18" viewBox="0 0 18 18" fill="none" xmlns="http://www.w3.org/2000/svg">
<path d="M16.5 0H1.5C1.10232 0.000476357 0.721067 0.158665 0.439866 0.439866C0.158665 0.721067 0.000476357 1.10232 0 1.5V16.5C0.000476357 16.8977 0.158665 17.2789 0.439866 17.5601C0.721067 17.8413 1.10232 17.9995 1.5 18H16.5C16.8977 17.9995 17.2789 17.8413 17.5601 17.5601C17.8413 17.2789 17.9995 16.8977 18 16.5V1.5C17.9995 1.10232 17.8413 0.721067 17.5601 0.439866C17.2789 0.158665 16.8977 0.000476357 16.5 0ZM1.5 0.6H16.5C16.7387 0.6 16.9676 0.694821 17.1364 0.863604C17.3052 1.03239 17.4 1.26131 17.4 1.5V2.4H0.6V1.5C0.6 1.26131 0.694821 1.03239 0.863604 0.863604C1.03239 0.694821 1.26131 0.6 1.5 0.6ZM14.7165 13.707C14.0639 13.071 13.2086 12.6846 12.3 12.6153V11.7564C12.697 11.5265 12.9916 11.1542 13.1241 10.7151C13.2372 10.7684 13.3602 10.7973 13.4852 10.7999C13.6102 10.8024 13.7343 10.7786 13.8494 10.73C13.9646 10.6814 14.0682 10.6091 14.1536 10.5178C14.2389 10.4265 14.3041 10.3182 14.3448 10.2H14.7V11.7H14.6448C14.574 11.4998 14.4348 11.3311 14.2517 11.2237C14.0685 11.1163 13.8533 11.0771 13.6441 11.113C13.4348 11.1489 13.245 11.2576 13.1082 11.4199C12.9713 11.5822 12.8963 11.7877 12.8963 12C12.8963 12.2123 12.9713 12.4178 13.1082 12.5801C13.245 12.7424 13.4348 12.8511 13.6441 12.887C13.8533 12.9229 14.0685 12.8837 14.2517 12.7763C14.4348 12.6689 14.574 12.5002 14.6448 12.3H14.7C14.8591 12.3 15.0117 12.2368 15.1243 12.1243C15.2368 12.0117 15.3 11.8591 15.3 11.7V10.92C15.5725 11.3725 15.6639 11.9112 15.5556 12.4282C15.4474 12.9452 15.1476 13.4019 14.7165 13.707ZM11.9736 13.7697L10.8 15.8823L9.6264 13.77L9.753 13.3899L10.62 14.04C10.6719 14.0789 10.7351 14.1 10.8 14.1C10.8649 14.1 10.9281 14.0789 10.98 14.04L11.847 13.3896L11.9736 13.7697ZM13.2 8.1C13.2 8.02044 13.2316 7.94413 13.2879 7.88787C13.3441 7.83161 13.4204 7.8 13.5 7.8C13.5796 7.8 13.6559 7.83161 13.7121 7.88787C13.7684 7.94413 13.8 8.02044 13.8 8.1V9.9C13.8 9.97957 13.7684 10.0559 13.7121 10.1121C13.6559 10.1684 13.5796 10.2 13.5 10.2C13.4204 10.2 13.3441 10.1684 13.2879 10.1121C13.2316 10.0559 13.2 9.97957 13.2 9.9V8.1ZM12.834 7.5H12V6.9H11.4V7.5H10.8V6.3H10.2V7.5H8.766C8.63134 7.34985 8.44996 7.24954 8.2512 7.2153C8.43546 6.68582 8.77997 6.22683 9.23691 5.90203C9.69386 5.57722 10.2406 5.40271 10.8012 5.40271C11.3618 5.40271 11.9085 5.57722 12.3655 5.90203C12.8224 6.22683 13.1669 6.68582 13.3512 7.2153C13.1516 7.24901 12.9693 7.34937 12.834 7.5ZM7.8 8.1C7.8 8.02044 7.83161 7.94413 7.88787 7.88787C7.94413 7.83161 8.02044 7.8 8.1 7.8C8.17957 7.8 8.25587 7.83161 8.31213 7.88787C8.36839 7.94413 8.4 8.02044 8.4 8.1V9.9C8.4 9.97957 8.36839 10.0559 8.31213 10.1121C8.25587 10.1684 8.17957 10.2 8.1 10.2C8.02044 10.2 7.94413 10.1684 7.88787 10.1121C7.83161 10.0559 7.8 9.97957 7.8 9.9V8.1ZM9 9.9V8.1H12.6V10.2C12.6 10.5183 12.4736 10.8235 12.2485 11.0485C12.0235 11.2736 11.7183 11.4 11.4 11.4H10.2C9.88174 11.4 9.57652 11.2736 9.35147 11.0485C9.12643 10.8235 9 10.5183 9 10.2V9.9ZM10.2 12H11.4C11.5006 11.9994 11.6009 11.9904 11.7 11.973V12.75L10.8 13.425L9.9 12.75V11.973C9.99907 11.9904 10.0994 11.9994 10.2 12ZM14.4 8.4H14.7C14.7796 8.4 14.8559 8.43161 14.9121 8.48787C14.9684 8.54413 15 8.62044 15 8.7V9.3C15 9.37957 14.9684 9.45587 14.9121 9.51213C14.8559 9.56839 14.7796 9.6 14.7 9.6H14.4V8.4ZM14.1 12C14.1 12.0593 14.0824 12.1173 14.0494 12.1667C14.0165 12.216 13.9696 12.2545 13.9148 12.2772C13.86 12.2999 13.7997 12.3058 13.7415 12.2942C13.6833 12.2827 13.6298 12.2541 13.5879 12.2121C13.5459 12.1702 13.5173 12.1167 13.5058 12.0585C13.4942 12.0003 13.5001 11.94 13.5228 11.8852C13.5455 11.8304 13.584 11.7835 13.6333 11.7506C13.6827 11.7176 13.7407 11.7 13.8 11.7C13.8796 11.7 13.9559 11.7316 14.0121 11.7879C14.0684 11.8441 14.1 11.9204 14.1 12ZM14.3448 7.8C14.2828 7.62352 14.1675 7.47067 14.0148 7.3626C13.8485 6.63485 13.4401 5.9851 12.8564 5.51972C12.2727 5.05435 11.5483 4.80092 10.8018 4.80092C10.0553 4.80092 9.33089 5.05435 8.7472 5.51972C8.1635 5.9851 7.75508 6.63485 7.5888 7.3626C7.43468 7.47001 7.31803 7.62296 7.2552 7.8H7.2C7.2 6.84522 7.57929 5.92955 8.25442 5.25442C8.92955 4.57929 9.84522 4.2 10.8 4.2C11.7548 4.2 12.6705 4.57929 13.3456 5.25442C14.0207 5.92955 14.4 6.84522 14.4 7.8H14.3448ZM6.9 8.4H7.2V9.6H6.9C6.82044 9.6 6.74413 9.56839 6.68787 9.51213C6.63161 9.45587 6.6 9.37957 6.6 9.3V8.7C6.6 8.62044 6.63161 8.54413 6.68787 8.48787C6.74413 8.43161 6.82044 8.4 6.9 8.4ZM7.0233 10.2H7.2552C7.29591 10.3182 7.36106 10.4265 7.44641 10.5178C7.53176 10.6091 7.6354 10.6814 7.75057 10.73C7.86573 10.7786 7.98985 10.8024 8.11483 10.7999C8.2398 10.7973 8.36283 10.7684 8.4759 10.7151C8.60842 11.1542 8.90305 11.5265 9.3 11.7564V12.6153C8.39142 12.6846 7.5361 13.071 6.8835 13.707C6.59889 13.5055 6.36914 13.2361 6.21513 12.9232C6.06111 12.6104 5.98771 12.264 6.0016 11.9156C6.01549 11.5671 6.11623 11.2277 6.29466 10.9281C6.47309 10.6285 6.72356 10.3782 7.0233 10.2ZM9.1737 13.23L9.0156 13.7043C9.00251 13.7437 8.99772 13.7853 9.00154 13.8266C9.00536 13.8679 9.01771 13.908 9.0378 13.9443L10.5378 16.6443C10.5638 16.691 10.6018 16.73 10.6479 16.7571C10.694 16.7842 10.7465 16.7985 10.8 16.7985C10.8535 16.7985 10.906 16.7842 10.9521 16.7571C10.9982 16.73 11.0362 16.691 11.0622 16.6443L12.5622 13.9443C12.5823 13.908 12.5946 13.8679 12.5985 13.8266C12.6023 13.7853 12.5975 13.7437 12.5844 13.7043L12.4263 13.23C13.2204 13.334 13.9496 13.7229 14.4782 14.3245C15.0069 14.926 15.2989 15.6992 15.3 16.5V17.4H6.3V16.5C6.30108 15.6992 6.59313 14.926 7.12177 14.3245C7.65042 13.7229 8.37965 13.334 9.1737 13.23ZM16.5 17.4H15.9V16.5C15.8996 15.6559 15.6238 14.8351 15.1143 14.1621C15.435 13.9236 15.6985 13.6167 15.8859 13.2637C16.0732 12.9107 16.1796 12.5204 16.1974 12.1212C16.2152 11.722 16.1439 11.3238 15.9887 10.9555C15.8334 10.5873 15.5982 10.2582 15.3 9.9921V9.966C15.394 9.8823 15.4693 9.77973 15.521 9.66498C15.5727 9.55022 15.5996 9.42586 15.6 9.3V8.7C15.5992 8.51452 15.5412 8.33381 15.4338 8.18259C15.3264 8.03137 15.1749 7.91703 15 7.8552V7.8C15 6.68609 14.5575 5.6178 13.7698 4.83015C12.9822 4.0425 11.9139 3.6 10.8 3.6C9.68609 3.6 8.6178 4.0425 7.83015 4.83015C7.0425 5.6178 6.6 6.68609 6.6 7.8V7.8552C6.42513 7.91703 6.27363 8.03137 6.16623 8.18259C6.05883 8.33381 6.00077 8.51452 6 8.7V9.3C6.00038 9.42953 6.02893 9.55743 6.08369 9.67482C6.13845 9.79221 6.21809 9.89628 6.3171 9.9798C6.01527 10.2443 5.77646 10.573 5.61816 10.9419C5.45987 11.3107 5.3861 11.7102 5.40227 12.1112C5.41843 12.5122 5.52412 12.9046 5.71159 13.2594C5.89906 13.6143 6.16356 13.9227 6.4857 14.1621C5.97625 14.8351 5.70038 15.6559 5.7 16.5V17.4H1.5C1.26131 17.4 1.03239 17.3052 0.863604 17.1364C0.694821 16.9676 0.6 16.7387 0.6 16.5V3H17.4V16.5C17.4 16.7387 17.3052 16.9676 17.1364 17.1364C16.9676 17.3052 16.7387 17.4 16.5 17.4Z" fill="#3C3B6E"/>
<path d="M1.80078 1.19995H2.40078V1.79995H1.80078V1.19995Z" fill="#CECDFF"/>
<path d="M3 1.19995H3.6V1.79995H3V1.19995Z" fill="#CECDFF"/>
<path d="M4.19922 1.19995H4.79922V1.79995H4.19922V1.19995Z" fill="#CECDFF"/>
<path d="M5.70078 4.20007H2.10078C2.02122 4.20007 1.94491 4.23168 1.88865 4.28794C1.83239 4.3442 1.80078 4.42051 1.80078 4.50007V6.90007C1.80078 6.97964 1.83239 7.05594 1.88865 7.11221C1.94491 7.16847 2.02122 7.20007 2.10078 7.20007H5.70078C5.78035 7.20007 5.85665 7.16847 5.91291 7.11221C5.96917 7.05594 6.00078 6.97964 6.00078 6.90007V4.50007C6.00078 4.42051 5.96917 4.3442 5.91291 4.28794C5.85665 4.23168 5.78035 4.20007 5.70078 4.20007ZM5.40078 6.60007H2.40078V4.80007H5.40078V6.60007Z" fill="#CECDFF"/>
<path d="M1.80078 8.40002H2.40078V9.00002H1.80078V8.40002Z" fill="#CECDFF"/>
<path d="M3 8.40002H3.6V9.00002H3V8.40002Z" fill="#CECDFF"/>
<path d="M4.19922 8.40002H4.79922V9.00002H4.19922V8.40002Z" fill="#CECDFF"/>
<path d="M1.80078 10.2H4.80078V10.8H1.80078V10.2Z" fill="#CECDFF"/>
<path d="M1.80078 12H4.80078V12.6H1.80078V12Z" fill="#CECDFF"/>
<path d="M1.80078 13.7999H2.40078V14.3999H1.80078V13.7999Z" fill="#CECDFF"/>
<path d="M3 13.7999H4.8V14.3999H3V13.7999Z" fill="#CECDFF"/>
</svg>
