<svg width="105" height="97" viewBox="0 0 105 97" fill="none" xmlns="http://www.w3.org/2000/svg">
<path d="M87.7046 76.3251H35.4547C35.281 76.3251 35.1073 76.2556 34.9857 76.134L15.7741 56.9224C15.6525 56.8008 15.583 56.6271 15.583 56.4534V21.6259C15.583 21.348 15.7393 21.1048 15.9999 21.0006C16.2431 20.8963 16.5384 20.9485 16.7294 21.1395L29.375 33.7851L38.0081 38.0061L33.8913 29.5989C33.7871 29.5641 33.7003 29.512 33.6308 29.4425L22.9133 18.7251C22.7222 18.534 22.6701 18.2387 22.7743 17.9955C22.8785 17.7523 23.1217 17.5786 23.3997 17.5786H87.722C88.0868 17.5786 88.3994 17.8739 88.3994 18.2561V75.665C88.382 76.0298 88.0868 76.3251 87.7046 76.3251ZM35.7326 74.9875H87.0445V18.9335H25.0151L34.3951 28.3135C34.6209 28.3308 34.8293 28.4698 34.9336 28.6783L40.0752 39.1699C40.1968 39.4305 40.1446 39.7432 39.9536 39.9342C39.7451 40.1427 39.4498 40.1948 39.1893 40.0558L28.8366 34.9837H28.7671C28.4197 34.9837 28.1244 34.7058 28.107 34.3757L16.9205 23.2413V56.1755L35.7326 74.9875Z" fill="#F3A33B"/>
<path d="M48.1876 89.0579C48.1702 89.0579 48.1702 89.0579 48.1528 89.0579L6.16874 87.2688C5.82133 87.2514 5.54341 86.9735 5.52604 86.6261L3.51108 44.4162C3.49371 44.1383 3.65004 43.8777 3.91059 43.7735C4.17115 43.6693 4.46645 43.7214 4.65752 43.9124L48.6044 87.8594C48.7608 87.981 48.8476 88.172 48.8476 88.3805C48.865 88.7626 48.5697 89.0579 48.1876 89.0579ZM6.84618 85.966L46.5026 87.6509L4.95281 46.1011L6.84618 85.966Z" fill="#F3A33B"/>
<path d="M29.6524 79.2269C29.6351 79.2269 29.6351 79.2269 29.6177 79.2269L14.8703 78.5494C14.5229 78.5321 14.245 78.2542 14.2276 77.9067L13.5501 63.1593C13.5328 62.8814 13.6891 62.6209 13.9497 62.5166C14.2102 62.4124 14.5055 62.4645 14.6966 62.6556L30.0693 78.0283C30.2257 78.1499 30.3125 78.341 30.3125 78.5494C30.3299 78.9316 30.0172 79.2269 29.6524 79.2269ZM15.5477 77.2467L27.9501 77.8025L14.9919 64.8443L15.5477 77.2467Z" fill="#F3A33B"/>
<path d="M103.338 84.8189H91.2829C90.9181 84.8189 90.6055 84.5236 90.6055 84.1414V35.904C90.6055 35.5392 90.9008 35.2266 91.2829 35.2266H103.338C103.703 35.2266 104.015 35.5219 104.015 35.904V84.1414C104.015 84.5236 103.72 84.8189 103.338 84.8189ZM91.9604 83.4813H102.678V36.5814H91.9604V83.4813Z" fill="#F3A33B"/>
<path d="M103.338 40.5951H95.9733C95.6086 40.5951 95.2959 40.2998 95.2959 39.9177C95.2959 39.5355 95.5912 39.2402 95.9733 39.2402H103.338C103.703 39.2402 104.016 39.5355 104.016 39.9177C104.016 40.2998 103.72 40.5951 103.338 40.5951Z" fill="#F3A33B"/>
<path d="M103.339 44.6249H98.2146C97.8498 44.6249 97.5371 44.3296 97.5371 43.9475C97.5371 43.5827 97.8324 43.27 98.2146 43.27H103.356C103.721 43.27 104.034 43.5653 104.034 43.9475C104.016 44.3122 103.721 44.6249 103.339 44.6249Z" fill="#F3A33B"/>
<path d="M103.338 48.6376H95.9733C95.6086 48.6376 95.2959 48.3423 95.2959 47.9602C95.2959 47.5954 95.5912 47.2827 95.9733 47.2827H103.338C103.703 47.2827 104.016 47.578 104.016 47.9602C104.016 48.3423 103.72 48.6376 103.338 48.6376Z" fill="#F3A33B"/>
<path d="M103.339 52.4403H98.2146C97.8498 52.4403 97.5371 52.145 97.5371 51.7629C97.5371 51.3981 97.8324 51.0854 98.2146 51.0854H103.356C103.721 51.0854 104.034 51.3807 104.034 51.7629C104.016 52.1277 103.721 52.4403 103.339 52.4403Z" fill="#F3A33B"/>
<path d="M103.338 56.454H95.9733C95.6086 56.454 95.2959 56.1587 95.2959 55.7766C95.2959 55.4118 95.5912 55.0991 95.9733 55.0991H103.338C103.703 55.0991 104.016 55.3944 104.016 55.7766C104.016 56.1587 103.72 56.454 103.338 56.454Z" fill="#F3A33B"/>
<path d="M103.339 60.4652H98.2146C97.8498 60.4652 97.5371 60.1699 97.5371 59.7878C97.5371 59.423 97.8324 59.1104 98.2146 59.1104H103.356C103.721 59.1104 104.034 59.4056 104.034 59.7878C104.016 60.1699 103.721 60.4652 103.339 60.4652Z" fill="#F3A33B"/>
<path d="M103.338 64.496H95.9733C95.6086 64.496 95.2959 64.2007 95.2959 63.8186C95.2959 63.4364 95.5912 63.1411 95.9733 63.1411H103.338C103.703 63.1411 104.016 63.4364 104.016 63.8186C104.016 64.2007 103.72 64.496 103.338 64.496Z" fill="#F3A33B"/>
<path d="M103.339 68.5092H98.2146C97.8498 68.5092 97.5371 68.2139 97.5371 67.8317C97.5371 67.467 97.8324 67.1543 98.2146 67.1543H103.356C103.721 67.1543 104.034 67.4496 104.034 67.8317C104.016 68.2139 103.721 68.5092 103.339 68.5092Z" fill="#F3A33B"/>
<path d="M103.338 72.5385H95.9733C95.6086 72.5385 95.2959 72.2432 95.2959 71.861C95.2959 71.4963 95.5912 71.1836 95.9733 71.1836H103.338C103.703 71.1836 104.016 71.4789 104.016 71.861C104.016 72.2258 103.72 72.5385 103.338 72.5385Z" fill="#F3A33B"/>
<path d="M103.339 76.3246H98.2146C97.8498 76.3246 97.5371 76.0293 97.5371 75.6472C97.5371 75.2824 97.8324 74.9697 98.2146 74.9697H103.356C103.721 74.9697 104.034 75.265 104.034 75.6472C104.016 76.0293 103.721 76.3246 103.339 76.3246Z" fill="#F3A33B"/>
<path d="M103.338 80.3544H95.9733C95.6086 80.3544 95.2959 80.0591 95.2959 79.677C95.2959 79.2948 95.5912 78.9995 95.9733 78.9995H103.338C103.703 78.9995 104.016 79.2948 104.016 79.677C104.016 80.0591 103.72 80.3544 103.338 80.3544Z" fill="#F3A33B"/>
<path d="M89.7191 92.6361H29.2009C28.8361 92.6361 28.5234 92.3408 28.5234 91.9587C28.5234 91.5939 28.8187 91.2812 29.2009 91.2812H89.7191C90.0839 91.2812 90.3965 91.5765 90.3965 91.9587C90.3965 92.3235 90.0839 92.6361 89.7191 92.6361Z" fill="#F3A33B"/>
<path d="M54.215 96.4227H12.4567C12.092 96.4227 11.7793 96.1275 11.7793 95.7453C11.7793 95.3805 12.0746 95.0679 12.4567 95.0679H54.215C54.5798 95.0679 54.8925 95.3632 54.8925 95.7453C54.8925 96.1275 54.5798 96.4227 54.215 96.4227Z" fill="#F3A33B"/>
<path d="M8.2187 96.4227H2.85127C2.48649 96.4227 2.17383 96.1275 2.17383 95.7453C2.17383 95.3805 2.46912 95.0679 2.85127 95.0679H8.2187C8.58348 95.0679 8.89615 95.3632 8.89615 95.7453C8.87877 96.1275 8.58348 96.4227 8.2187 96.4227Z" fill="#F3A33B"/>
<path d="M92.1866 96.1967H72.2976C71.9328 96.1967 71.6201 95.9014 71.6201 95.5192C71.6201 95.1371 71.9154 94.8418 72.2976 94.8418H92.1692C92.534 94.8418 92.8467 95.1371 92.8467 95.5192C92.8467 95.9014 92.5514 96.1967 92.1866 96.1967Z" fill="#F3A33B"/>
<path d="M39.485 40.1595C39.3807 40.1595 39.2765 40.1421 39.1897 40.09L28.698 34.9484C28.6285 34.9136 28.5764 34.8789 28.5243 34.8268L4.83116 11.151C4.5706 10.8905 4.5706 10.4736 4.83116 10.1957L10.1986 4.82823C10.4591 4.56767 10.876 4.56767 11.154 4.82823L34.8124 28.5214C34.8645 28.5735 34.9166 28.6256 34.9339 28.6951L40.0408 39.1346C40.1103 39.2388 40.145 39.3604 40.145 39.4994C40.145 39.8468 39.8497 40.1595 39.485 40.1595ZM29.3754 33.7846L38.0085 38.0056L33.7875 29.3725L10.6676 6.26997L6.25553 10.682L29.3754 33.7846Z" fill="#F3A33B"/>
<path d="M5.31815 11.3425C5.16182 11.3425 5.00548 11.2904 4.88389 11.1688L3.09475 9.60545C2.93841 9.50123 2.86893 9.32753 2.85156 9.13645C2.85156 8.94538 2.92104 8.77168 3.04264 8.63271L8.41007 3.28265C8.65325 3.03947 9.05277 3.0221 9.33069 3.24791L11.1198 4.81124C11.2588 4.93284 11.3457 5.10654 11.3457 5.29761C11.3457 5.48869 11.2762 5.66239 11.1546 5.80135L5.78715 11.1514C5.64819 11.273 5.47448 11.3425 5.31815 11.3425ZM4.50174 9.08434L5.28341 9.76179L9.69547 5.34972L8.91381 4.67228L4.50174 9.08434Z" fill="#F3A33B"/>
<path d="M3.52836 9.77949H3.51099C3.31991 9.77949 3.14621 9.69264 3.02462 9.55368L1.02703 7.34765C-0.345225 5.95802 -0.345225 3.54355 1.0444 2.17129L2.1561 1.04222C2.81617 0.382147 3.75417 0 4.74428 0C5.73439 0 6.68976 0.382147 7.33246 1.04222L7.34983 1.05959L9.36479 3.30036C9.62534 3.56092 9.60797 3.9778 9.36479 4.22099L3.99736 9.58842C3.87576 9.71001 3.70206 9.77949 3.52836 9.77949ZM4.74428 1.35489C4.10158 1.35489 3.51099 1.5807 3.0941 1.99759L1.9824 3.10929C1.11388 3.9778 1.11388 5.54113 1.9824 6.40965L1.99977 6.42702L3.54573 8.14668L7.95779 3.73462L6.39446 1.98022C5.97757 1.5807 5.38698 1.35489 4.74428 1.35489Z" fill="#F3A33B"/>
<path d="M28.9761 35.019C28.8023 35.019 28.646 34.9495 28.5071 34.8279C28.2465 34.5673 28.2291 34.1505 28.4897 33.8725L33.6313 28.5051C33.8919 28.2445 34.3087 28.2272 34.5867 28.4877C34.8472 28.7483 34.8646 29.1652 34.604 29.4431L29.4624 34.8105C29.3408 34.9495 29.1498 35.019 28.9761 35.019Z" fill="#F3A33B"/>
<path d="M32.3282 31.4397C32.1545 31.4397 31.9808 31.3703 31.8592 31.2487L8.40928 7.79873C8.14873 7.53818 8.14873 7.12129 8.40928 6.84337C8.66984 6.58281 9.08673 6.58281 9.36465 6.84337L32.8146 30.2933C33.0751 30.5539 33.0751 30.9707 32.8146 31.2487C32.6756 31.3703 32.5019 31.4397 32.3282 31.4397Z" fill="#F3A33B"/>
<path d="M30.765 33.2286C30.5913 33.2286 30.4176 33.1591 30.296 33.0375L6.62022 9.36172C6.35967 9.10117 6.35967 8.68428 6.62022 8.40635C6.88078 8.1458 7.29766 8.1458 7.57559 8.40635L31.2513 32.0821C31.5119 32.3427 31.5119 32.7596 31.2513 33.0375C31.1124 33.1591 30.9387 33.2286 30.765 33.2286Z" fill="#F3A33B"/>
<path d="M91.7348 29.2161C91.37 29.2161 91.0574 28.9208 91.0574 28.5386V14.9203H60.694C60.3293 14.9203 60.0166 14.625 60.0166 14.2429C60.0166 13.8781 60.3119 13.5654 60.694 13.5654H91.7348C92.0996 13.5654 92.4123 13.8607 92.4123 14.2429V28.5386C92.3949 28.9034 92.0996 29.2161 91.7348 29.2161Z" fill="#F3A33B"/>
<path d="M59.5817 61.8207C55.3955 61.8207 51.4698 60.1879 48.5342 57.2176C45.5813 54.2299 43.9658 50.2347 43.9658 45.979C43.9658 37.3633 50.9834 30.3457 59.5991 30.3457C68.2148 30.3457 75.2324 37.3633 75.2324 45.979C75.2324 50.2521 73.5996 54.2473 70.664 57.2176C67.6937 60.1706 63.768 61.8207 59.5817 61.8207ZM59.5817 31.6658C51.6956 31.6658 45.286 38.0755 45.286 45.9616C45.286 53.9694 51.6956 60.4832 59.5817 60.4832C67.4679 60.4832 73.8775 53.9694 73.8775 45.9616C73.8602 38.0755 67.4505 31.6658 59.5817 31.6658Z" fill="#F3A33B"/>
<path d="M66.9468 55.3409C58.3311 55.3409 51.3135 48.3233 51.3135 39.7076C51.3135 36.6157 52.4425 33.7148 53.3979 31.8215C53.4674 31.6651 53.6064 31.5609 53.7627 31.4914C55.8992 30.6924 57.6884 30.3276 59.5818 30.3276C68.1974 30.3276 75.2151 37.3452 75.2151 45.9609C75.2151 49.0007 74.4855 51.8321 73.1132 54.125C73.0438 54.2466 72.9222 54.3508 72.7658 54.4029C71.0288 55.0456 69.2397 55.3409 66.9468 55.3409ZM54.4749 32.6553C53.6237 34.427 52.651 37.0152 52.651 39.7076C52.651 47.5937 59.0606 54.0034 66.9468 54.0034C68.9791 54.0034 70.5772 53.7602 72.071 53.2391C73.2522 51.1894 73.8602 48.6881 73.8602 45.9783C73.8602 38.0922 67.4505 31.6825 59.5644 31.6825C57.9316 31.6651 56.3509 31.9778 54.4749 32.6553Z" fill="#F3A33B"/>
<path d="M66.9472 55.342C64.9322 55.342 63.3168 55.0641 61.5798 54.404C61.3192 54.2998 61.1455 54.0566 61.1455 53.7787V51.5379C61.1455 44.5898 65.2623 38.736 71.6546 36.6168C71.9325 36.53 72.2452 36.6168 72.4015 36.86C74.208 39.344 75.2155 42.5749 75.2155 45.9621C75.2155 49.0019 74.4859 51.8332 73.1137 54.1261C73.0442 54.2477 72.9226 54.3519 72.7663 54.404C71.0292 55.0467 69.2401 55.342 66.9472 55.342ZM62.483 53.3097C63.9074 53.7961 65.2796 54.0045 66.9472 54.0045C68.9795 54.0045 70.5776 53.7613 72.0715 53.2402C73.2526 51.1905 73.8606 48.6892 73.8606 45.9794C73.8606 43.0612 73.0616 40.282 71.5851 38.0759C66.0266 40.143 62.4657 45.3888 62.4657 51.5727V53.3097H62.483Z" fill="#F3A33B"/>
<path d="M62.2568 45.7351C58.4179 45.7351 54.6138 44.3281 51.5567 41.792C51.4003 41.6705 51.3135 41.4794 51.3135 41.2709V39.7076C51.3135 36.6157 52.4425 33.7148 53.3979 31.8215C53.4674 31.6651 53.6064 31.5609 53.7627 31.4914C55.8992 30.6924 57.6884 30.3276 59.5818 30.3276C65.8003 30.3276 71.3415 33.9928 74.0339 39.8813C74.1555 40.1419 74.1033 40.4372 73.8949 40.6282C70.6467 43.8765 66.4083 45.7351 62.2568 45.7351ZM52.651 40.9583C55.4302 43.1817 58.8175 44.3976 62.2568 44.3976C65.9219 44.3976 69.6565 42.7995 72.6095 40.0029C70.0734 34.8439 65.1055 31.6651 59.5818 31.6651C57.9316 31.6651 56.3509 31.9604 54.4749 32.6553C53.6237 34.427 52.651 37.0152 52.651 39.7076V40.9583V40.9583Z" fill="#F3A33B"/>
</svg>
