<svg width="78" height="74" viewBox="0 0 78 74" fill="none" xmlns="http://www.w3.org/2000/svg">
<path d="M65.7624 58.1287H26.6041C26.4739 58.1287 26.3437 58.0766 26.2526 57.9855L11.8546 43.5875C11.7635 43.4964 11.7114 43.3662 11.7114 43.236V17.1348C11.7114 16.9265 11.8286 16.7442 12.0239 16.6661C12.2061 16.588 12.4274 16.6271 12.5706 16.7703L22.0478 26.2474L28.5177 29.4108L25.4325 23.1101C25.3544 23.084 25.2893 23.045 25.2372 22.9929L17.205 14.9608C17.0619 14.8176 17.0228 14.5962 17.1009 14.414C17.179 14.2317 17.3613 14.1016 17.5696 14.1016H65.7755C66.0488 14.1016 66.2832 14.3229 66.2832 14.6093V57.634C66.2701 57.9074 66.0488 58.1287 65.7624 58.1287ZM26.8124 57.1263H65.2677V15.117H18.7802L25.81 22.1467C25.9792 22.1597 26.1354 22.2639 26.2136 22.4201L30.0669 30.283C30.158 30.4783 30.119 30.7126 29.9758 30.8558C29.8196 31.012 29.5982 31.0511 29.403 30.9469L21.6442 27.1457H21.5921C21.3318 27.1457 21.1105 26.9374 21.0975 26.69L12.7138 18.3455V43.0277L26.8124 57.1263Z" fill="black"/>
<path d="M36.1465 67.67C36.1335 67.67 36.1335 67.67 36.1205 67.67L4.65583 66.3292C4.39547 66.3162 4.18718 66.1079 4.17416 65.8475L2.66407 34.2136C2.65105 34.0053 2.76821 33.81 2.96348 33.7319C3.15876 33.6538 3.38006 33.6929 3.52326 33.8361L36.459 66.7718C36.5761 66.8629 36.6412 67.0061 36.6412 67.1623C36.6542 67.4487 36.4329 67.67 36.1465 67.67ZM5.16354 65.3528L34.8838 66.6156L3.74457 35.4764L5.16354 65.3528Z" fill="black"/>
<path d="M22.256 60.3032C22.243 60.3032 22.243 60.3032 22.2299 60.3032L11.1776 59.7955C10.9173 59.7824 10.709 59.5741 10.6959 59.3138L10.1882 48.2615C10.1752 48.0532 10.2924 47.8579 10.4877 47.7798C10.6829 47.7017 10.9042 47.7407 11.0474 47.8839L22.5684 59.4049C22.6856 59.496 22.7507 59.6392 22.7507 59.7955C22.7637 60.0819 22.5294 60.3032 22.256 60.3032ZM11.6853 58.8191L20.9802 59.2357L11.2687 49.5242L11.6853 58.8191Z" fill="black"/>
<path d="M77.4788 64.4937H68.4442C68.1708 64.4937 67.9365 64.2724 67.9365 63.986V27.8349C67.9365 27.5615 68.1578 27.3271 68.4442 27.3271H77.4788C77.7521 27.3271 77.9865 27.5485 77.9865 27.8349V63.986C77.9865 64.2724 77.7652 64.4937 77.4788 64.4937ZM68.9519 63.4913H76.9841V28.3426H68.9519V63.4913Z" fill="black"/>
<path d="M77.4795 31.3504H71.9599C71.6865 31.3504 71.4521 31.1291 71.4521 30.8427C71.4521 30.5563 71.6735 30.335 71.9599 30.335H77.4795C77.7529 30.335 77.9872 30.5563 77.9872 30.8427C77.9872 31.1291 77.7659 31.3504 77.4795 31.3504Z" fill="black"/>
<path d="M77.4791 34.3699H73.6388C73.3654 34.3699 73.1311 34.1486 73.1311 33.8622C73.1311 33.5888 73.3524 33.3545 73.6388 33.3545H77.4922C77.7655 33.3545 77.9999 33.5758 77.9999 33.8622C77.9869 34.1356 77.7655 34.3699 77.4791 34.3699Z" fill="black"/>
<path d="M77.4795 37.3777H71.9599C71.6865 37.3777 71.4521 37.1564 71.4521 36.87C71.4521 36.5966 71.6735 36.3623 71.9599 36.3623H77.4795C77.7529 36.3623 77.9872 36.5836 77.9872 36.87C77.9872 37.1564 77.7659 37.3777 77.4795 37.3777Z" fill="black"/>
<path d="M77.4791 40.2283H73.6388C73.3654 40.2283 73.1311 40.007 73.1311 39.7206C73.1311 39.4472 73.3524 39.2129 73.6388 39.2129H77.4922C77.7655 39.2129 77.9999 39.4342 77.9999 39.7206C77.9869 39.994 77.7655 40.2283 77.4791 40.2283Z" fill="black"/>
<path d="M77.4795 43.2351H71.9599C71.6865 43.2351 71.4521 43.0138 71.4521 42.7274C71.4521 42.4541 71.6735 42.2197 71.9599 42.2197H77.4795C77.7529 42.2197 77.9872 42.441 77.9872 42.7274C77.9872 43.0138 77.7659 43.2351 77.4795 43.2351Z" fill="black"/>
<path d="M77.4791 46.242H73.6388C73.3654 46.242 73.1311 46.0207 73.1311 45.7343C73.1311 45.4609 73.3524 45.2266 73.6388 45.2266H77.4922C77.7655 45.2266 77.9999 45.4479 77.9999 45.7343C77.9869 46.0207 77.7655 46.242 77.4791 46.242Z" fill="black"/>
<path d="M77.4795 49.2625H71.9599C71.6865 49.2625 71.4521 49.0412 71.4521 48.7548C71.4521 48.4684 71.6735 48.2471 71.9599 48.2471H77.4795C77.7529 48.2471 77.9872 48.4684 77.9872 48.7548C77.9872 49.0412 77.7659 49.2625 77.4795 49.2625Z" fill="black"/>
<path d="M77.4791 52.2703H73.6388C73.3654 52.2703 73.1311 52.049 73.1311 51.7626C73.1311 51.4892 73.3524 51.2549 73.6388 51.2549H77.4922C77.7655 51.2549 77.9999 51.4762 77.9999 51.7626C77.9869 52.049 77.7655 52.2703 77.4791 52.2703Z" fill="black"/>
<path d="M77.4795 55.2908H71.9599C71.6865 55.2908 71.4521 55.0695 71.4521 54.7831C71.4521 54.5097 71.6735 54.2754 71.9599 54.2754H77.4795C77.7529 54.2754 77.9872 54.4967 77.9872 54.7831C77.9872 55.0565 77.7659 55.2908 77.4795 55.2908Z" fill="black"/>
<path d="M77.4791 58.1277H73.6388C73.3654 58.1277 73.1311 57.9064 73.1311 57.62C73.1311 57.3466 73.3524 57.1123 73.6388 57.1123H77.4922C77.7655 57.1123 77.9999 57.3336 77.9999 57.62C77.9869 57.9064 77.7655 58.1277 77.4791 58.1277Z" fill="black"/>
<path d="M77.4795 61.1482H71.9599C71.6865 61.1482 71.4521 60.9269 71.4521 60.6405C71.4521 60.3541 71.6735 60.1328 71.9599 60.1328H77.4795C77.7529 60.1328 77.9872 60.3541 77.9872 60.6405C77.9872 60.9269 77.7659 61.1482 77.4795 61.1482Z" fill="black"/>
<path d="M67.2728 70.3523H21.9179C21.6445 70.3523 21.4102 70.131 21.4102 69.8446C21.4102 69.5712 21.6315 69.3369 21.9179 69.3369H67.2728C67.5462 69.3369 67.7805 69.5582 67.7805 69.8446C67.7805 70.118 67.5462 70.3523 67.2728 70.3523Z" fill="black"/>
<path d="M40.664 73.1902H9.36854C9.09516 73.1902 8.86084 72.9689 8.86084 72.6825C8.86084 72.4091 9.08215 72.1748 9.36854 72.1748H40.664C40.9374 72.1748 41.1717 72.3961 41.1717 72.6825C41.1717 72.9689 40.9374 73.1902 40.664 73.1902Z" fill="black"/>
<path d="M6.19215 73.1902H2.16957C1.89619 73.1902 1.66187 72.9689 1.66187 72.6825C1.66187 72.4091 1.88317 72.1748 2.16957 72.1748H6.19215C6.46553 72.1748 6.69986 72.3961 6.69986 72.6825C6.68684 72.9689 6.46553 73.1902 6.19215 73.1902Z" fill="black"/>
<path d="M69.1219 73.0203H54.2162C53.9428 73.0203 53.7085 72.799 53.7085 72.5126C53.7085 72.2262 53.9298 72.0049 54.2162 72.0049H69.1089C69.3822 72.0049 69.6166 72.2262 69.6166 72.5126C69.6166 72.799 69.3953 73.0203 69.1219 73.0203Z" fill="black"/>
<path d="M29.6246 31.0246C29.5465 31.0246 29.4684 31.0116 29.4033 30.9725L21.5404 27.1192C21.4883 27.0932 21.4492 27.0671 21.4102 27.0281L3.65353 9.28444C3.45826 9.08917 3.45826 8.77674 3.65353 8.56845L7.67612 4.54587C7.87139 4.3506 8.18382 4.3506 8.39211 4.54587L26.1227 22.3025C26.1618 22.3416 26.2008 22.3806 26.2138 22.4327L30.0412 30.2565C30.0932 30.3347 30.1193 30.4258 30.1193 30.5299C30.1193 30.7903 29.898 31.0246 29.6246 31.0246ZM22.0481 26.247L28.518 29.4104L25.3547 22.9404L8.0276 5.62637L4.72102 8.93296L22.0481 26.247Z" fill="black"/>
<path d="M4.01824 9.4278C3.90108 9.4278 3.78392 9.38875 3.69279 9.29762L2.35193 8.126C2.23477 8.04789 2.1827 7.91771 2.16968 7.77451C2.16968 7.63131 2.22175 7.50113 2.31288 7.39698L6.33546 3.38742C6.51771 3.20517 6.81713 3.19215 7.02542 3.36138L8.36628 4.53301C8.47042 4.62414 8.53551 4.75432 8.53551 4.89752C8.53551 5.04071 8.48344 5.17089 8.39231 5.27504L4.36973 9.2846C4.26559 9.37573 4.13541 9.4278 4.01824 9.4278ZM3.40639 7.73545L3.99221 8.24316L7.29879 4.93657L6.71298 4.42886L3.40639 7.73545Z" fill="black"/>
<path d="M2.67726 8.25593H2.66424C2.52104 8.25593 2.39086 8.19084 2.29974 8.08669L0.80266 6.4334C-0.225767 5.39195 -0.225767 3.58244 0.815678 2.55402L1.64883 1.70784C2.14352 1.21316 2.8465 0.926758 3.58853 0.926758C4.33056 0.926758 5.04655 1.21316 5.52822 1.70784L5.54124 1.72086L7.05133 3.40019C7.2466 3.59546 7.23358 3.90789 7.05133 4.09015L3.02875 8.11273C2.93762 8.20386 2.80744 8.25593 2.67726 8.25593ZM3.58853 1.94217C3.10686 1.94217 2.66424 2.1114 2.35181 2.42384L1.51865 3.25699C0.86775 3.90789 0.86775 5.07952 1.51865 5.73042L1.53167 5.74344L2.69028 7.03223L5.99687 3.72564L4.82524 2.41082C4.51281 2.1114 4.07019 1.94217 3.58853 1.94217Z" fill="black"/>
<path d="M21.7485 27.1716C21.6183 27.1716 21.5012 27.1195 21.397 27.0284C21.2018 26.8331 21.1887 26.5207 21.384 26.3124L25.2374 22.2898C25.4326 22.0946 25.7451 22.0816 25.9533 22.2768C26.1486 22.4721 26.1616 22.7845 25.9664 22.9928L22.113 27.0154C22.0219 27.1195 21.8787 27.1716 21.7485 27.1716Z" fill="black"/>
<path d="M24.2613 24.4892C24.1311 24.4892 24.0009 24.4371 23.9098 24.346L6.33542 6.77163C6.14015 6.57636 6.14015 6.26392 6.33542 6.05563C6.53069 5.86036 6.84312 5.86036 7.05141 6.05563L24.6258 23.63C24.8211 23.8253 24.8211 24.1377 24.6258 24.346C24.5217 24.4371 24.3915 24.4892 24.2613 24.4892Z" fill="black"/>
<path d="M23.0897 25.8303C22.9595 25.8303 22.8293 25.7783 22.7382 25.6871L4.9946 7.9435C4.79933 7.74823 4.79933 7.4358 4.9946 7.22751C5.18987 7.03224 5.5023 7.03224 5.71059 7.22751L23.4542 24.9711C23.6495 25.1664 23.6495 25.4788 23.4542 25.6871C23.3501 25.7783 23.2199 25.8303 23.0897 25.8303Z" fill="black"/>
<path d="M68.7832 22.823C68.5098 22.823 68.2755 22.6017 68.2755 22.3153V12.1092H45.5199C45.2465 12.1092 45.0122 11.8879 45.0122 11.6015C45.0122 11.3281 45.2335 11.0938 45.5199 11.0938H68.7832C69.0566 11.0938 69.2909 11.3151 69.2909 11.6015V22.3153C69.2779 22.5887 69.0566 22.823 68.7832 22.823Z" fill="black"/>
<path d="M44.6862 47.2577C41.5488 47.2577 38.6067 46.034 36.4067 43.8079C34.1936 41.5688 32.9829 38.5746 32.9829 35.3852C32.9829 28.9282 38.2422 23.6689 44.6992 23.6689C51.1561 23.6689 56.4154 28.9282 56.4154 35.3852C56.4154 38.5876 55.1917 41.5818 52.9917 43.8079C50.7656 46.021 47.8235 47.2577 44.6862 47.2577ZM44.6862 24.6583C38.7759 24.6583 33.9723 29.462 33.9723 35.3722C33.9723 41.3735 38.7759 46.2553 44.6862 46.2553C50.5964 46.2553 55.4 41.3735 55.4 35.3722C55.387 29.462 50.5833 24.6583 44.6862 24.6583Z" fill="black"/>
<path d="M50.2058 42.4023C43.7488 42.4023 38.4895 37.143 38.4895 30.686C38.4895 28.3688 39.3357 26.1948 40.0517 24.7758C40.1037 24.6586 40.2079 24.5805 40.325 24.5285C41.9263 23.9296 43.2671 23.6562 44.6861 23.6562C51.1431 23.6562 56.4024 28.9155 56.4024 35.3725C56.4024 37.6507 55.8556 39.7726 54.8272 41.491C54.7751 41.5821 54.684 41.6602 54.5668 41.6993C53.265 42.181 51.9241 42.4023 50.2058 42.4023ZM40.8588 25.4007C40.2209 26.7285 39.4919 28.6682 39.4919 30.686C39.4919 36.5962 44.2956 41.3999 50.2058 41.3999C51.7289 41.3999 52.9265 41.2176 54.0461 40.8271C54.9313 39.2909 55.387 37.4163 55.387 35.3855C55.387 29.4753 50.5833 24.6717 44.6731 24.6717C43.4494 24.6586 42.2647 24.893 40.8588 25.4007Z" fill="black"/>
<path d="M50.2062 42.4028C48.6961 42.4028 47.4854 42.1945 46.1836 41.6998C45.9883 41.6217 45.8582 41.4395 45.8582 41.2312V39.5519C45.8582 34.3446 48.9434 29.9575 53.7341 28.3693C53.9424 28.3043 54.1767 28.3693 54.2939 28.5516C55.6477 30.4132 56.4028 32.8345 56.4028 35.3731C56.4028 37.6512 55.856 39.7732 54.8276 41.4916C54.7755 41.5827 54.6844 41.6608 54.5672 41.6998C53.2654 42.1815 51.9246 42.4028 50.2062 42.4028ZM46.8605 40.8797C47.928 41.2442 48.9565 41.4004 50.2062 41.4004C51.7293 41.4004 52.927 41.2182 54.0465 40.8276C54.9318 39.2915 55.3874 37.4169 55.3874 35.3861C55.3874 33.199 54.7886 31.1162 53.682 29.4629C49.5162 31.012 46.8475 34.9435 46.8475 39.5779V40.8797H46.8605Z" fill="black"/>
<path d="M46.6909 35.2033C43.8139 35.2033 40.9629 34.1488 38.6718 32.2482C38.5546 32.157 38.4895 32.0138 38.4895 31.8576V30.686C38.4895 28.3688 39.3357 26.1948 40.0517 24.7758C40.1037 24.6586 40.2079 24.5805 40.325 24.5285C41.9263 23.9296 43.2671 23.6562 44.6861 23.6562C49.3466 23.6562 53.4993 26.4031 55.5171 30.8162C55.6083 31.0115 55.5692 31.2328 55.413 31.376C52.9786 33.8103 49.8022 35.2033 46.6909 35.2033ZM39.4919 31.6233C41.5748 33.2896 44.1133 34.2009 46.6909 34.2009C49.4377 34.2009 52.2366 33.0032 54.4497 30.9073C52.549 27.0409 48.8258 24.6586 44.6861 24.6586C43.4494 24.6586 42.2647 24.8799 40.8588 25.4007C40.2209 26.7285 39.4919 28.6682 39.4919 30.686V31.6233V31.6233Z" fill="black"/>
</svg>
